<?xml version="1.0" encoding="UTF-8" standalone="no"?>
<!-- Created with Inkscape (http://www.inkscape.org/) -->

<svg
   version="1.1"
   id="svg393"
   width="1878"
   height="1409"
   viewBox="0 0 1878 1409"
   sodipodi:docname="stamp2.svg"
   inkscape:version="1.2.2 (b0a84865, 2022-12-01)"
   xmlns:inkscape="http://www.inkscape.org/namespaces/inkscape"
   xmlns:sodipodi="http://sodipodi.sourceforge.net/DTD/sodipodi-0.dtd"
   xmlns="http://www.w3.org/2000/svg"
   xmlns:svg="http://www.w3.org/2000/svg">
  <defs
     id="defs397" />
  <sodipodi:namedview
     id="namedview395"
     pagecolor="#ffffff"
     bordercolor="#666666"
     borderopacity="1.0"
     inkscape:showpageshadow="2"
     inkscape:pageopacity="0.0"
     inkscape:pagecheckerboard="0"
     inkscape:deskcolor="#d1d1d1"
     showgrid="false"
     inkscape:zoom="0.57680404"
     inkscape:cx="1536.0503"
     inkscape:cy="882.44875"
     inkscape:window-width="1440"
     inkscape:window-height="2532"
     inkscape:window-x="0"
     inkscape:window-y="28"
     inkscape:window-maximized="0"
     inkscape:current-layer="g399" />
  <g
     inkscape:groupmode="layer"
     inkscape:label="Image"
     id="g399">
    <path
       style="fill:#000000"
       d="m 36.588279,1407.732 c -0.602093,-0.4041 -2.065695,-3.9582 -3.252449,-7.898 -3.833101,-12.7252 -11.708321,-20.2893 -24.929248,-23.9442 l -6.2764116,-1.7351 0.2764118,-13.9284 0.2764117,-13.9285 7.6552461,-2.4123 c 14.09253,-4.4408 22.707937,-15.0399 23.627918,-29.0682 0.421744,-6.431 0.158009,-7.8486 -2.528081,-13.5886 -4.880238,-10.4288 -11.270892,-15.6452 -23.535179,-19.2105 l -5.7199041,-1.6628 v -13.8317 -13.8316 l 6.7636101,-2.0544 c 8.964357,-2.7228 15.256473,-7.0432 19.537894,-13.4154 4.749534,-7.0688 6.041223,-11.7005 5.470648,-19.6165 -0.971837,-13.4829 -9.80856,-24.1455 -23.616906,-28.4967 l -7.6552461,-2.4123 -0.2765075,-13.9441 -0.2765075,-13.9442 6.5200921,-1.7649 c 24.624926,-6.6657 33.563447,-33.5973 17.287678,-52.0876 -4.348814,-4.9405 -10.694382,-8.4895 -18.972371,-10.6111 l -4.7823841,-1.2257 v -14.1219 -14.1219 l 5.2500001,-1.3082 c 15.502047,-3.8627 25.497152,-14.8731 26.527198,-29.222 0.559394,-7.7925 -1.06175,-13.4942 -5.791252,-20.3683 -4.329448,-6.2927 -10.022287,-10.1494 -18.705133,-12.6723 l -7.3337521,-2.13101 0.2764695,-13.9379 0.2764695,-13.9379 7.6552461,-2.4123 c 14.09253,-4.4408 22.707937,-15.0399 23.627918,-29.0682 0.421744,-6.431 0.158009,-7.8486 -2.528081,-13.5886 -4.880238,-10.4289 -11.270892,-15.6452 -23.535179,-19.2105 l -5.7199041,-1.6629 v -13.8316 -13.83164 l 6.7636101,-2.05438 c 8.964357,-2.72284 15.256473,-7.04322 19.537894,-13.41538 4.765454,-7.09256 6.041078,-11.69293 5.467023,-19.7161 C 33.000482,829.21418 24.026847,818.42256 10.33824,814.10905 L 2.6829939,811.69676 2.4065822,797.7683 2.1301704,783.83984 8.406582,782.10473 c 8.310549,-2.29745 13.860216,-5.65279 18.28905,-11.0576 10.140954,-12.3757 9.833248,-29.05899 -0.757883,-41.09115 -4.348814,-4.94052 -10.694382,-8.48956 -18.972371,-10.61114 l -4.7823841,-1.22569 v -14.1219 -14.1219 l 5.2500001,-1.32413 c 15.720513,-3.96496 25.48715,-14.71788 26.527198,-29.20606 0.559394,-7.79254 -1.06175,-13.49424 -5.791252,-20.36834 C 23.839492,632.68419 18.146653,628.82741 9.463807,626.30451 L 2.1300549,624.1736 2.4065244,610.23567 2.6829939,596.29774 10.33824,593.88545 c 14.09253,-4.44079 22.707937,-15.03988 23.627918,-29.0682 0.421744,-6.43096 0.158009,-7.84855 -2.528081,-13.5886 -4.880238,-10.42882 -11.270892,-15.64517 -23.535179,-19.2105 l -5.7199041,-1.66282 v -13.83164 -13.83164 l 6.7636101,-2.05438 c 8.964357,-2.72284 15.256473,-7.04322 19.537894,-13.41538 4.765454,-7.09256 6.041078,-11.69293 5.467023,-19.7161 C 33.000482,454.21418 24.026847,443.42256 10.33824,439.10905 L 2.6829939,436.69676 2.4065822,422.7683 2.1301704,408.83984 8.406582,407.10473 c 8.310549,-2.29745 13.860216,-5.65279 18.28905,-11.0576 10.140954,-12.3757 9.833248,-29.05899 -0.757883,-41.09115 -4.348814,-4.94052 -10.694382,-8.48956 -18.972371,-10.61114 l -4.7823841,-1.22569 v -14.1219 -14.1219 l 5.2500001,-1.32413 c 15.720513,-3.96496 25.48715,-14.71788 26.527198,-29.20606 0.559394,-7.79254 -1.06175,-13.49424 -5.791252,-20.36834 -4.299117,-6.24855 -9.527574,-9.79624 -18.490101,-12.54619 l -7.548424,-2.31606 0.2762895,-13.90841 0.2762894,-13.90842 7.6552461,-2.41229 c 14.09253,-4.44079 22.707937,-15.03988 23.627918,-29.0682 0.421945,-6.43402 0.160563,-7.83661 -2.515807,-13.5 -4.968305,-10.51327 -11.368152,-15.75848 -23.547453,-19.2991 l -5.7199041,-1.66282 v -13.83164 -13.83164 l 6.7636101,-2.05438 c 8.964357,-2.72284 15.256473,-7.04322 19.537894,-13.41538 4.765454,-7.09256 6.041078,-11.69293 5.467023,-19.716093 C 33.000482,79.214177 24.026847,68.422557 10.33824,64.109057 L 2.6829939,61.696757 2.4068063,47.805047 2.1306187,33.913327 9.418577,31.769177 C 22.373365,27.957807 29.643555,20.687617 33.454918,7.7328372 l 2.144153,-7.28796 13.891716,0.27619 13.891717,0.27618 2.412293,7.65525 C 70.25267,22.799247 82.469221,32.497247 95.83199,32.497247 c 15.68359,0 26.93625,-9.27893 31.83363,-26.2499998 l 1.65929,-5.75 h 13.83164 13.83164 l 2.0665,6.80352 c 4.66214,15.3490598 15.29437,24.2965998 29.75147,25.0373198 5.66766,0.29038 8.11969,-0.0743 12,-1.78465 11.26071,-4.9635 16.12766,-10.46207 19.96517,-22.5561898 l 2.22113,-7 13.93344,-0.27647 13.93344,-0.27647 2.13486,7.34736 c 3.4108,11.7386398 11.43751,20.1688798 22.58027,23.7154698 5.82693,1.85463 16.11306,0.7959 22.10852,-2.27558 9.00317,-4.61234 16.14092,-14.49625 18.04263,-24.9843098 l 0.67995,-3.75 h 14.19966 14.19966 l 1.30816,5.25 c 3.91331,15.7051298 14.93575,25.5857298 29.56994,26.5067098 16.01992,1.00819 28.41222,-8.54899 33.10748,-25.5331198 l 1.73511,-6.27641 13.92846,0.27641 13.92846,0.27641 2.41229,7.65525 c 4.45788,14.1467498 16.67443,23.8447498 30.0372,23.8447498 15.55619,0 26.46329,-8.74577 31.48996,-25.2499998 l 2.05584,-6.75 h 13.87467 13.87466 l 1.65473,5.75 c 2.34428,8.1461298 4.60545,12.1435898 9.56862,16.9160598 11.7161,11.26594 26.8383,12.48596 40.39692,3.25913 5.26413,-3.58231 9.25444,-9.69696 12.02394,-18.4251898 l 2.22113,-7 14.0494,-0.27717 14.04941,-0.27718 1.09263,4.27718 c 4.73915,18.5515798 17.26457,28.7476298 33.847,27.5524398 14.74695,-1.0629 26.88261,-12.51628 29.69472,-28.0252698 l 0.67995,-3.75 h 14.18838 14.18837 l 2.1732,7.38669 c 2.55038,8.6686998 6.871,14.8192298 13.58342,19.3363798 8.48356,5.70905 18.33351,6.86164 27.93588,3.26893 10.25937,-3.83852 16.97723,-11.69222 20.3083,-23.7419998 l 1.72777,-6.25 h 14.33605 c 11.59526,0 14.33605,0.26664 14.33605,1.39467 0,0.76706 0.90464,4.32356 2.01032,7.90332 3.98869,12.9138798 16.76761,22.7020098 29.63868,22.7020098 15.56608,0 26.46296,-8.7446 31.49811,-25.2768098 l 2.06398,-6.77681 14.04353,0.27681 14.04353,0.27681 1.66631,6 c 0.91647,3.2999998 2.3883,7.3499998 3.27072,8.9999998 2.61215,4.88432 9.85174,11.20998 16.08563,14.05498 10.83262,4.94374 24.98754,2.13667 33.83382,-6.7096 4.56261,-4.56262 6.70231,-8.50075 8.88091,-16.3453798 l 1.66631,-6 14.10321,-0.27717 14.10325,-0.27718 1.0926,4.27718 c 2.7696,10.8418398 6.7485,17.0185198 14.1812,22.0146898 7.1611,4.81365 11.7672,6.1071 19.7094,5.53463 14.7011,-1.05964 26.8429,-12.53437 29.6511,-28.0221498 l 0.68,-3.75 h 14.1884 14.1883 l 2.1732,7.38669 c 2.5504,8.6686998 6.871,14.8192298 13.5834,19.3363798 8.4836,5.70905 18.3336,6.86164 27.9359,3.26893 10.2594,-3.83852 16.9773,-11.69222 20.3083,-23.7419998 l 1.7278,-6.25 h 14.3361 c 11.986,0 14.336,0.24245 14.336,1.479 0,0.81345 0.9746,4.44771 2.1657,8.0761298 4.2631,12.98629 16.6878,22.44487 29.4833,22.44487 15.5661,0 26.463,-8.7446 31.4981,-25.2768098 l 2.064,-6.77681 14.0435,0.27681 14.0436,0.27681 1.6663,6 c 2.2188,7.9896898 4.0378,11.1892798 9.2053,16.1926698 11.5627,11.19543 26.8326,12.39046 40.4655,3.16687 5.3777,-3.63839 9.8953,-10.56759 12.4229,-19.0548798 l 2.0265,-6.80466 h 13.8867 13.8867 l 1.6593,5.75 c 2.7151,9.4086898 6.4045,15.1863498 12.6252,19.7711998 6.9902,5.15191 12.934,6.90702 21.1561,6.24702 13.9885,-1.12286 23.9906,-10.11167 28.673,-25.7682198 l 1.6448,-5.5 14.0205,-0.27641 14.0204,-0.27641 1.7351,6.27641 c 2.2975,8.3105498 5.6528,13.8602198 11.0576,18.2890498 19.7365,16.17256 46.9253,4.86047 52.2447,-21.7367898 l 0.5552,-2.77585 h 14.2871 14.2871 l 0.658,3.89444 c 2.6236,15.5289698 16.5788,28.0728098 31.2571,28.0957898 15.3183,0.024 26.3953,-8.75305 31.4446,-24.9156498 l 2.2265,-7.12699 13.9439,0.27621 13.9439,0.2762 1.6663,6 c 2.2188,7.9896898 4.0378,11.1892798 9.2053,16.1926698 6.1538,5.9583 13.8312,9.2854 21.4545,9.29756 15.2431,0.0243 26.6099,-9.07411 31.5161,-25.2266198 l 2.0544,-6.76361 h 13.8052 13.8052 l 2.0544,6.76361 c 2.7228,8.9643598 7.0432,15.2564798 13.4154,19.5378998 7.0688,4.74953 11.7005,6.04122 19.6165,5.47064 13.9379,-1.00463 24.0013,-9.44461 28.6126,-23.9967898 l 2.3054,-7.27536 13.9239,-0.27641 13.924,-0.27641 1.7351,6.27641 c 3.6934,13.3601798 11.2998,21.2024698 24.2642,25.0166498 l 7.3957,2.17584 -0.2762,13.89172 -0.2762,13.89171 -7.6552,2.4123 c -14.0926,4.44078 -22.708,15.03987 -23.628,29.06819 -0.4217,6.43096 -0.158,7.848553 2.5281,13.588603 4.8803,10.42882 11.2709,15.64517 23.5352,19.2105 l 5.7199,1.66282 v 13.83164 13.83164 l -6.7636,2.05438 c -8.9644,2.72284 -15.2565,7.04322 -19.5379,13.41538 -4.7495,7.06887 -6.0412,11.70058 -5.4707,19.61652 0.9719,13.48288 9.8086,24.14548 23.617,28.49672 l 7.6552,2.41229 0.2764,13.92846 0.2764,13.92846 -6.2764,1.73511 c -8.3105,2.29745 -13.8602,5.65279 -18.289,11.0576 -10.141,12.3757 -9.8333,29.05899 0.7578,41.09115 4.3489,4.94052 10.6944,8.48956 18.9724,10.61114 l 4.7824,1.22569 v 14.22305 14.22305 l -3.8944,0.65797 c -6.2846,1.06177 -15.3195,5.88821 -19.3123,10.31661 -5.5387,6.14302 -8.0253,11.75796 -8.5705,19.35331 -0.5594,7.79254 1.0618,13.49424 5.7913,20.36834 4.3294,6.29263 10.0222,10.14941 18.7051,12.67231 l 7.3337,2.13091 -0.2764,13.93793 -0.2765,13.93793 -7.6552,2.41229 c -14.0926,4.44079 -22.708,15.03988 -23.628,29.0682 -0.4217,6.43096 -0.158,7.84855 2.5281,13.5886 4.8803,10.42882 11.2709,15.64517 23.5352,19.2105 l 5.7199,1.66282 v 13.83164 13.83164 l -6.7636,2.05438 c -8.9644,2.72284 -15.2565,7.04322 -19.5379,13.41538 -4.7495,7.06887 -6.0412,11.70058 -5.4707,19.61652 0.9719,13.48288 9.8086,24.14548 23.617,28.49672 l 7.6552,2.41229 0.2764,13.92846 0.2764,13.92846 -6.2764,1.73511 c -8.3105,2.29745 -13.8602,5.65279 -18.289,11.0576 -10.141,12.3757 -9.8333,29.05899 0.7578,41.09115 4.3489,4.94052 10.6944,8.48956 18.9724,10.61114 l 4.7824,1.22569 v 14.22305 14.22305 l -3.8944,0.65797 c -6.2846,1.06177 -15.3195,5.88821 -19.3123,10.31661 -5.5387,6.14302 -8.0253,11.75796 -8.5705,19.35331 -0.5594,7.79254 1.0618,13.49424 5.7913,20.36834 4.3294,6.29263 10.0222,10.14941 18.7051,12.67231 l 7.3337,2.13091 -0.2764,13.93793 -0.2765,13.93793 -7.6552,2.41229 c -14.0926,4.44079 -22.708,15.03988 -23.628,29.0682 -0.4217,6.43096 -0.158,7.84855 2.5281,13.5886 4.8803,10.42882 11.2709,15.64517 23.5352,19.2105 l 5.7199,1.66282 v 13.83164 13.83168 l -6.7636,2.0543 c -8.9644,2.7229 -15.2565,7.0433 -19.5379,13.4154 -4.7655,7.0926 -6.0411,11.693 -5.467,19.7161 0.951,13.292 9.9246,24.0837 23.6133,28.3972 l 7.6552,2.4123 0.2764,13.9284 0.2764,13.9285 -6.2764,1.73511 c -8.3105,2.2975 -13.8602,5.6528 -18.289,11.0576 -10.141,12.3757 -9.8333,29.059 0.7578,41.0912 4.3489,4.9405 10.6944,8.4895 18.9724,10.6111 l 4.7824,1.2257 v 14.2231 14.223 l -3.8944,0.658 c -6.2846,1.0617 -15.3195,5.8882 -19.3123,10.3166 -5.5387,6.143 -8.0253,11.7579 -8.5705,19.3533 -0.5594,7.7925 1.0618,13.4942 5.7913,20.3683 4.2991,6.2486 9.5275,9.7963 18.4901,12.5462 l 7.5484,2.3161 -0.2763,13.9945 -0.2763,13.9946 -4.5,1.1703 c -7.5296,1.9581 -11.6642,4.1072 -16.5291,8.5915 -6.5015,5.9929 -9.6708,12.6523 -10.2541,21.5464 -0.4219,6.434 -0.1605,7.8366 2.5158,13.5 4.9683,10.5133 11.3682,15.7585 23.5475,19.2991 l 5.7199,1.6628 v 13.8317 13.8316 l -6.7636,2.0544 c -8.9644,2.7228 -15.2565,7.0432 -19.5379,13.4154 -4.7655,7.0925 -6.0411,11.6929 -5.467,19.7161 0.951,13.292 9.9246,24.0836 23.6133,28.3971 l 7.6552,2.4123 0.2762,13.8917 0.2762,13.8917 -7.288,2.1442 c -12.9548,3.8113 -20.225,11.0815 -24.0363,24.0363 l -2.1442,7.288 -13.8917,-0.2762 -13.8917,-0.2762 -2.4123,-7.6552 c -4.4579,-14.1468 -16.6744,-23.8448 -30.0372,-23.8448 -15.5562,0 -26.4633,8.7458 -31.49,25.25 l -2.0558,6.75 h -13.8052 -13.8052 l -2.0665,-6.8035 c -4.6104,-15.1787 -15.2625,-24.243 -29.4308,-25.0437 -15.4826,-0.875 -27.0536,7.8254 -32.2603,24.2572 l -2.2467,7.09 -13.9039,0.2763 -13.9039,0.2763 -2.3148,-7.5441 c -2.741,-8.9336 -7.1322,-15.0797 -13.7516,-19.2474 -6.9222,-4.3583 -11.5926,-5.5821 -19.2078,-5.0333 -14.7011,1.0597 -26.8429,12.5344 -29.6511,28.0222 l -0.68,3.75 -14.1387,-0.01 -14.1387,-0.01 -2.251,-7.4142 c -2.6412,-8.6994 -6.9538,-14.8143 -13.6049,-19.2902 -8.4836,-5.709 -18.3336,-6.8616 -27.9359,-3.2689 -10.2676,3.8416 -16.977,11.6913 -20.3157,23.7684 l -1.7351,6.2764 -14.0033,-0.2764 -14.0033,-0.2764 -2.3212,-7.6371 c -4.2798,-14.0803 -16.5679,-23.8616 -29.9786,-23.8616 -15.5562,0 -26.4633,8.7458 -31.49,25.25 l -2.0558,6.75 h -13.8747 -13.8746 l -1.6548,-5.75 c -2.3442,-8.1461 -4.6054,-12.1436 -9.5686,-16.9161 -11.7122,-11.2621 -26.8385,-12.4856 -40.3862,-3.2665 -5.46,3.7156 -9.1464,9.3084 -11.9343,18.1065 l -2.3215,7.3261 -14.0494,0.2772 -14.0494,0.2772 -1.0926,-4.2772 c -4.7392,-18.5516 -17.2646,-28.7477 -33.847,-27.5525 -14.747,1.0629 -26.8826,12.5163 -29.6947,28.0253 l -0.68,3.75 h -14.1884 -14.1883 l -2.1732,-7.3867 c -2.5504,-8.6687 -6.871,-14.8192 -13.5834,-19.3364 -8.4836,-5.709 -18.3336,-6.8616 -27.9359,-3.2689 -10.2594,3.8385 -16.9773,11.6922 -20.3083,23.742 l -1.7278,6.25 h -14.3361 c -11.5952,0 -14.336,-0.2666 -14.336,-1.3947 0,-0.767 -0.9046,-4.3235 -2.0103,-7.9033 -3.9887,-12.9139 -16.7676,-22.702 -29.6387,-22.702 -15.5661,0 -26.463,8.7446 -31.4981,25.2768 l -2.064,6.7768 -14.04353,-0.2768 -14.04353,-0.2768 -1.66631,-6 c -2.22205,-8.0011 -4.04356,-11.2 -9.20533,-16.1661 -7.17461,-6.9026 -11.94723,-8.8339 -21.83021,-8.8339 -7.01631,0 -9.36539,0.429 -13.45781,2.4578 -9.1671,4.5446 -14.46705,11.3414 -17.57773,22.5422 l -1.66631,6 -14.04353,0.2768 -14.04353,0.2768 -2.19505,-7.2267 c -2.79599,-9.2052 -6.50837,-14.5677 -13.1981,-19.0644 -7.16116,-4.8137 -11.76726,-6.1071 -19.70942,-5.5347 -14.7011,1.0597 -26.84288,12.5344 -29.65115,28.0222 l -0.67995,3.75 h -14.18838 -14.18837 l -2.1732,-7.3867 c -2.55038,-8.6687 -6.871,-14.8192 -13.58342,-19.3364 -8.48356,-5.709 -18.33351,-6.8616 -27.93588,-3.2689 -10.25937,3.8385 -16.97723,11.6922 -20.3083,23.742 l -1.72777,6.25 h -14.24815 -14.24815 l -0.65797,-3.8944 c -2.6236,-15.529 -16.57887,-28.0728 -31.2571,-28.0958 -15.45345,-0.024 -26.38291,8.7683 -31.40784,25.267 l -2.06398,6.7768 -14.04353,-0.2768 -14.04353,-0.2768 -1.66631,-6 c -2.21888,-7.9897 -4.03781,-11.1893 -9.20533,-16.1927 -6.15377,-5.9583 -13.83118,-9.2854 -21.45448,-9.2975 -15.26568,-0.024 -26.64019,9.0891 -31.43391,25.1855 l -2.02651,6.8047 h -13.8867 -13.88669 l -1.65929,-5.75 c -2.71509,-9.4087 -6.40452,-15.1863 -12.62527,-19.7712 -6.99014,-5.1519 -12.93396,-6.907 -21.15606,-6.247 -13.95702,1.1203 -23.81595,9.9551 -28.75535,25.7682 l -1.71799,5.5 -13.94268,0.2764 -13.94269,0.2764 -1.73511,-6.2764 c -2.29745,-8.3105 -5.65279,-13.8602 -11.0576,-18.289 -9.07421,-7.4357 -20.41166,-9.3818 -31.18118,-5.3524 -10.1206,3.7866 -17.23316,12.4834 -20.54,25.115 l -1.24351,4.75 h -14.2047 -14.20469 l -0.65797,-3.8944 c -2.62125,-15.5151 -16.57996,-28.0728 -31.23032,-28.0958 -15.94822,-0.025 -27.56674,9.7904 -32.27538,27.2668 l -1.28696,4.7766 -14.02278,-0.2766 -14.02279,-0.2766 -1.69769,-6.0249 c -2.28952,-8.1251 -4.04106,-11.2195 -9.1517,-16.1678 -11.54843,-11.1816 -27.07896,-12.4244 -40.43432,-3.2357 -5.63315,3.8757 -9.82969,10.2965 -12.53485,19.1784 l -2.05584,6.75 h -13.8052 -13.8052 l -2.05438,-6.7636 c -2.72284,-8.9644 -7.04322,-15.2565 -13.41538,-19.5379 -7.06664,-4.748 -11.70069,-6.0408 -19.61652,-5.4726 -13.949221,1.0014 -24.44641,9.7889 -28.601105,23.9428 -1.022155,3.4822 -2.284577,6.8938 -2.805382,7.5813 -1.046876,1.382 -24.320602,1.8109 -26.296744,0.4847 z m 25.330496,-10.4965 c 3.549713,-12.0654 10.322818,-19.3536 22.119397,-23.8016 8.213928,-3.0972 20.623918,-2.4505 28.391118,1.4793 9.79453,4.9556 16.48375,13.5503 18.88007,24.2582 l 1.19189,5.3259 h 10.75297 10.75297 l 0.65797,-3.8944 c 1.79977,-10.6528 10.39661,-21.8217 20.29813,-26.3712 3.86907,-1.7778 6.61211,-2.1745 15.2197,-2.2015 10.0918,-0.032 10.74593,0.1004 16.82601,3.3969 9.70817,5.2636 15.59052,12.996 18.14582,23.8529 l 1.24336,5.2828 10.54214,-0.2828 10.54215,-0.2827 1.71909,-6.2871 c 4.45096,-16.2782 17.76506,-26.2129 35.12963,-26.2129 11.50215,0 21.83081,5.1166 28.40369,14.0707 3.5214,4.7971 4.45237,6.9199 6.43776,14.6793 l 1.08744,4.25 h 10.36405 10.36406 l 2.05584,-6.75 c 5.22694,-17.1618 17.21958,-26.25 34.63896,-26.25 9.57554,0 16.80332,2.669 23.47732,8.6695 6.05726,5.446 9.45167,10.9365 11.34757,18.3547 l 1.39944,5.4758 10.42817,0.2817 10.42818,0.2817 2.14577,-7.2935 c 3.55928,-12.0979 10.32188,-19.3815 22.12873,-23.8333 8.11703,-3.0606 20.54106,-2.4452 28.41575,1.4075 8.12549,3.9755 15.14731,12.0326 17.70598,20.3166 1.1127,3.6025 2.02309,7.1776 2.02309,7.9446 0,1.1077 2.24542,1.3947 10.9121,1.3947 h 10.9121 l 0.65797,-3.8944 c 1.79977,-10.6528 10.39661,-21.8217 20.29813,-26.3712 3.86907,-1.7778 6.61211,-2.1745 15.2197,-2.2015 9.5887,-0.03 10.95877,0.2088 15.7859,2.7521 10.4652,5.5139 16.96602,13.797 19.2738,24.5578 l 1.10603,5.1572 h 10.78933 10.78932 l 0.66062,-4.1313 c 1.68332,-10.5269 9.33896,-20.6393 19.3231,-25.5241 7.2489,-3.5466 19.52835,-4.4166 27.0543,-1.9169 13.15299,4.3687 21.40767,14.0273 24.66171,28.8559 l 0.61084,2.7835 10.61036,-0.2835 10.61036,-0.2836 1.37887,-5.3954 c 4.34117,-16.9864 17.34899,-27.1046 34.84546,-27.1046 9.92587,0 16.87976,2.6665 24.05449,9.2238 6.1051,5.5797 8.78943,10.0486 10.82834,18.0269 l 1.3415,5.2493 10.61036,0.2836 10.61036,0.2835 0.61622,-2.7835 c 3.36112,-15.1827 10.08661,-23.3671 23.29391,-28.347 7.34696,-2.7703 20.21644,-2.3893 27.36205,0.8099 9.914,4.4388 18.71437,15.7199 20.37777,26.1222 l 0.66062,4.1313 h 10.7609 10.7609 l 0.67995,-3.75 c 1.92697,-10.6273 9.90889,-21.3159 19.39977,-25.9781 5.07905,-2.4949 6.69198,-2.7719 16.14286,-2.7719 9.5546,0 10.97594,0.2508 15.7859,2.785 2.90725,1.5318 7.05342,4.3819 9.21372,6.3336 4.42421,3.997 9.47484,13.3113 10.49625,19.357 l 0.67993,4.0244 h 10.9121 c 9.85431,0 10.91211,-0.175 10.91211,-1.8058 0,-0.9932 0.9461,-4.6074 2.1024,-8.0315 2.6981,-7.9895 9.8432,-16.0065 17.7075,-19.8685 5.1323,-2.5203 6.7195,-2.7942 16.1901,-2.7942 9.1567,0 11.0757,0.3063 15,2.3943 11.6724,6.2105 17.4615,13.9686 20.4377,27.3893 l 0.6172,2.7835 10.6104,-0.2835 10.6104,-0.2836 1.3415,-5.2493 c 4.2931,-16.7991 15.9264,-26.2232 33.3828,-27.0433 11.0171,-0.5175 17.7046,1.842 25.5545,9.0164 6.1051,5.5797 8.7894,10.0486 10.8283,18.0269 l 1.3415,5.2493 10.6104,0.2836 10.6104,0.2835 0.6108,-2.7835 c 3.2409,-14.7689 10.4051,-23.4852 23.2993,-28.347 7.3469,-2.7703 20.2164,-2.3893 27.362,0.8099 9.9243,4.4434 18.793,15.7592 20.38,26.0035 l 0.6584,4.25 h 10.7893 10.7894 l 1.0794,-5.033 c 2.2927,-10.6906 9.1612,-19.6563 18.7958,-24.5349 5.3149,-2.6913 6.6529,-2.9315 16.2905,-2.9242 8.9817,0.01 11.182,0.3457 15.2164,2.3443 10.2603,5.0829 18.5229,15.7265 20.2795,26.1234 l 0.6799,4.0244 h 10.9121 c 8.6667,0 10.9121,-0.287 10.9121,-1.3947 0,-0.767 0.9104,-4.3421 2.0231,-7.9446 2.5669,-8.3108 9.573,-16.3329 17.7868,-20.3665 5.1323,-2.5203 6.7195,-2.7942 16.1901,-2.7942 9.1371,0 11.0841,0.3093 15,2.3831 10.7784,5.7079 16.595,12.7467 19.5478,23.6556 l 1.7665,6.5258 10.4807,-0.2823 10.4807,-0.2822 1.3415,-5.2493 c 4.2931,-16.7991 15.9264,-26.2232 33.3828,-27.0433 11.1868,-0.5255 17.7858,1.8482 25.8218,9.2881 5.8159,5.3845 9.1309,11.0908 11.1856,19.2545 l 1.0697,4.25 h 10.4229 10.4229 l 1.0853,-4.25 c 3.6211,-14.1799 10.3484,-22.1207 22.6345,-26.7175 7.3807,-2.7615 18.3772,-2.7453 25.8164,0.038 10.7062,4.0057 20.4435,15.7404 22.1381,26.6794 l 0.6584,4.25 h 10.7725 10.7724 l 1.2355,-5.25 c 2.6007,-11.0511 9.0439,-19.4418 18.6735,-24.3179 5.3149,-2.6913 6.6529,-2.9315 16.2905,-2.9242 8.9817,0.01 11.182,0.3457 15.2164,2.3443 10.2603,5.0829 18.5229,15.7265 20.2795,26.1234 l 0.6799,4.0244 h 10.8242 10.8242 l 0.658,-3.8944 c 1.7968,-10.6356 10.4361,-21.8666 20.3421,-26.4447 3.8525,-1.7805 6.5243,-2.1609 15.1757,-2.1609 9.1371,0 11.0841,0.3093 15,2.3831 10.7784,5.7079 16.595,12.7467 19.5478,23.6556 l 1.7665,6.5258 10.4926,-0.2823 10.4926,-0.2822 1.6656,-6 c 2.1942,-7.9038 4.3188,-11.7839 9.0349,-16.5 4.7161,-4.7161 8.5962,-6.8407 16.5,-9.0349 l 6,-1.6656 0.2825,-10.5229 0.2826,-10.5228 -4.7826,-1.203 c -16.9265,-4.2578 -27.1059,-16.2862 -28.0842,-33.1859 -1.0222,-17.6585 9.3423,-32.1999 26.0517,-36.5504 l 6.75,-1.7575 v -10.6906 -10.6906 l -4.0244,-0.6799 c -6.0457,-1.0214 -15.36,-6.0721 -19.357,-10.4963 -1.9517,-2.1603 -4.8018,-6.3064 -6.3336,-9.2137 -2.5342,-4.81 -2.785,-6.2313 -2.785,-15.7859 0,-10.0628 0.1428,-10.7634 3.4298,-16.826 5.2636,-9.7082 12.996,-15.5905 23.8529,-18.1458 l 5.2828,-1.2434 -0.2828,-10.5789 -0.2827,-10.579 -4.6131,-1.1749 c -11.1284,-2.8343 -20.8548,-10.6628 -25.1404,-20.2348 -3.2027,-7.1533 -3.5803,-20.0146 -0.8039,-27.3782 4.4921,-11.9138 13.2434,-19.3669 26.8074,-22.8308 l 4.25,-1.0853 v -10.3905 -10.3905 l -5.7199,-1.6628 c -3.146,-0.9146 -7.3315,-2.485 -9.3013,-3.4899 -5.3939,-2.7518 -11.9753,-9.8216 -14.8845,-15.9892 -2.2528,-4.776 -2.5943,-6.8164 -2.5943,-15.5 0,-11.7052 1.721,-16.5298 8.5322,-23.9191 5.3885,-5.8459 9.8138,-8.54811 17.3914,-10.62001 l 6.0764,-1.6615 0.2814,-10.4104 0.2814,-10.4104 -7.2814,-2.2777 c -17.4421,-5.456 -26.6731,-18.8634 -25.5544,-37.116 0.5411,-8.8275 3.0176,-14.8091 8.8964,-21.4878 4.301,-4.8861 13.4831,-10.017 19.8522,-11.093 l 4.0244,-0.6798 v -10.82424 -10.8242 l -4.0244,-0.67993 c -6.0457,-1.02141 -15.36,-6.07204 -19.357,-10.49625 -1.9517,-2.1603 -4.7969,-6.30647 -6.3228,-9.21372 -2.4927,-4.74933 -2.7754,-6.30255 -2.785,-15.30128 -0.01,-9.31461 0.2195,-10.48366 3.2812,-16.70802 4.9049,-9.97175 12.7504,-16.10289 23.9907,-18.74843 l 5.2828,-1.24336 -0.2828,-10.57895 -0.2827,-10.57896 -4.6131,-1.17491 c -7.3893,-1.88199 -13.6617,-5.50377 -18.512,-10.68916 -6.3773,-6.81786 -8.6505,-12.47668 -9.1712,-22.83004 -0.3731,-7.41895 -0.098,-9.39083 2.0512,-14.7122 4.7735,-11.81809 13.088,-18.7886 26.4951,-22.21236 l 4.25,-1.08532 v -10.3905 -10.39049 l -5.7199,-1.66282 c -11.8495,-3.44476 -19.5909,-9.64452 -24.1287,-19.32372 -2.3147,-4.93727 -2.6514,-6.92516 -2.6514,-15.65538 0,-11.70523 1.721,-16.52979 8.5322,-23.91905 5.3885,-5.84592 9.8138,-8.54819 17.3914,-10.62006 l 6.0764,-1.66141 0.2817,-10.44008 0.2817,-10.44008 -7.2817,-2.19636 c -17.2654,-5.20772 -26.6737,-18.88054 -25.5547,-37.13798 0.5411,-8.8275 3.0176,-14.80915 8.8964,-21.48781 4.301,-4.88617 13.4831,-10.017 19.8522,-11.09304 l 4.0244,-0.67993 v -10.80081 -10.80081 l -3.75,-0.67995 c -10.6327,-1.92795 -20.9451,-9.61988 -25.8109,-19.25215 -2.6557,-5.25726 -2.9257,-6.72012 -2.9321,-15.88593 -0.01,-9.57217 0.1744,-10.45067 3.493,-16.94894 4.6954,-9.19419 11.3866,-14.67432 21.5784,-17.67281 l 7.485,-2.20212 -0.2817,-10.47689 -0.2817,-10.47689 -4.6871,-1.19379 c -7.6575,-1.95034 -13.3311,-5.21064 -18.286,-10.50785 -7.2535,-7.75448 -9.0125,-12.51766 -9.0203,-24.42526 -0.01,-8.72979 0.3261,-10.69862 2.6128,-15.5 4.6983,-9.86499 13.9133,-17.05834 25.6306,-20.00742 l 4.25,-1.06967 v -10.36405 -10.36406 l -6.8794,-2.08956 c -17.5817,-5.34026 -26.9895,-18.78269 -25.9091,-37.02026 0.5426,-9.1596 3.0287,-15.2205 8.8207,-21.50403 5.3885,-5.84592 9.8138,-8.54819 17.3914,-10.62006 l 6.0764,-1.66141 0.2817,-10.44008 0.2817,-10.44008 -7.2817,-2.19636 c -17.2654,-5.20772 -26.6737,-18.88054 -25.5547,-37.13798 0.5411,-8.8275 3.0176,-14.80915 8.8964,-21.48781 4.301,-4.88617 13.4831,-10.017 19.8522,-11.09304 l 4.0244,-0.67993 v -10.80081 -10.80081 l -3.75,-0.67995 c -10.6664,-1.93406 -21.0096,-9.66739 -25.7492,-19.25215 -3.9887,-8.06616 -4.6566,-20.233863 -1.5613,-28.443023 4.3719,-11.59501 12.6959,-19.17323 24.5992,-22.39529 l 6.5258,-1.76646 -0.2823,-10.49259 -0.2822,-10.4926 -6,-1.65906 c -7.5288,-2.08178 -9.7156,-3.27722 -15.1377,-8.27512 -5.6292,-5.18882 -8.3491,-9.68395 -10.4014,-17.18994 l -1.6614,-6.0763998 -10.4401,-0.2817 -10.4401,-0.28171 -2.1458,7.2934798 c -3.5592,12.09796 -10.3218,19.3815 -22.1287,23.83336 -7.5726,2.85533 -20.3305,2.38066 -27.4248,-1.02037 -10.3239,-4.94927 -17.2795,-13.64975 -19.8642,-24.8474298 l -1.1993,-5.19563 h -10.7404 -10.7403 l -0.658,3.89444 c -1.7997,10.6527498 -10.3966,21.8216998 -20.2981,26.3711898 -3.8691,1.77774 -6.6121,2.17451 -15.2197,2.20148 -10.0918,0.0316 -10.7459,-0.10045 -16.826,-3.39695 -9.6975,-5.25776 -15.5911,-12.99775 -18.138,-23.8201598 l -1.2355,-5.25 h -10.7724 -10.7725 l -0.6606,4.13128 c -1.6833,10.5269098 -9.339,20.6393398 -19.3231,25.5241198 -7.2489,3.54656 -19.5284,4.4166 -27.0543,1.91688 -7.1314,-2.36867 -13.5902,-6.94963 -17.7085,-12.5599 -3.5806,-4.87767 -4.5095,-6.98781 -6.4987,-14.7623798 l -1.0875,-4.25 h -10.3905 -10.3905 l -1.6593,5.75 c -5.094,17.6524098 -17.415,27.2499998 -34.9826,27.2499998 -9.5755,0 -16.8033,-2.66902 -23.4773,-8.66952 -6.0573,-5.44599 -9.4517,-10.93647 -11.3476,-18.3547198 l -1.3994,-5.47576 -10.4282,-0.2817 -10.4282,-0.28171 -2.1458,7.2934798 c -3.5592,12.09796 -10.3218,19.3815 -22.1287,23.83336 -8.117,3.06059 -20.541,2.44518 -28.4157,-1.40755 -8.1255,-3.97544 -15.1473,-12.03255 -17.706,-20.31653 -1.1127,-3.6025098 -2.0231,-7.1776198 -2.0231,-7.9446798 0,-1.10768 -2.2454,-1.39467 -10.9121,-1.39467 h -10.9121 l -0.658,3.89444 c -1.7997,10.6527498 -10.3966,21.8216998 -20.2981,26.3711898 -3.8691,1.77774 -6.6121,2.17451 -15.2197,2.20148 -9.5887,0.03 -10.9588,-0.20882 -15.7859,-2.75215 -10.4652,-5.5139 -16.966,-13.79694 -19.2738,-24.5577298 l -1.106,-5.15723 h -10.7894 -10.7893 l -0.6606,4.13128 c -1.6833,10.5269098 -9.339,20.6393398 -19.3231,25.5241198 -7.2489,3.54656 -19.5284,4.4166 -27.0543,1.91688 -13.153,-4.36872 -21.4077,-14.02724 -24.6617,-28.8558298 l -0.6108,-2.78355 -10.6104,0.28355 -10.6104,0.28355 -1.3415,5.24933 c -4.2931,16.7991198 -15.9264,26.2231898 -33.3828,27.0432298 -11.0171,0.51754 -17.7046,-1.84197 -25.5545,-9.01635 -6.1051,-5.57972 -8.7894,-10.04856 -10.8283,-18.0268798 l -1.3415,-5.24933 -10.6104,-0.28355 -10.6104,-0.28355 -0.6162,2.78355 c -3.3611,15.1826398 -10.0866,23.3670698 -23.2939,28.3469798 -7.3469,2.77023 -20.2164,2.38927 -27.362,-0.80997 -9.914,-4.43871 -18.7144,-15.71987 -20.3778,-26.1221798 l -0.6606,-4.13128 h -10.76093 -10.7609 l -0.67995,3.75 c -1.92725,10.6289198 -9.61442,20.9377298 -19.25215,25.8179198 -5.31035,2.68896 -6.66111,2.93208 -16.29048,2.93208 -9.5546,0 -10.97594,-0.25076 -15.7859,-2.78504 -2.90725,-1.53177 -7.05342,-4.38188 -9.21372,-6.33358 -4.42421,-3.997 -9.47484,-13.31127 -10.49625,-19.3569398 l -0.67993,-4.02444 h -10.9121 c -9.85433,0 -10.9121,0.17505 -10.9121,1.80583 0,4.9853598 -4.43204,14.5057198 -9.16236,19.6814398 -6.91645,7.5677 -13.79643,10.76413 -24.36231,11.31869 -19.61094,1.02932 -33.51105,-10.00057 -37.91944,-30.0895098 l -0.61084,-2.78355 -10.61036,0.28355 -10.61036,0.28355 -1.3415,5.24933 C 783.2727,26.045697 771.63939,35.469767 754.18299,36.289807 c -11.01715,0.51754 -17.70457,-1.84197 -25.55449,-9.01635 -6.1051,-5.57972 -8.78943,-10.04856 -10.82834,-18.0268798 l -1.3415,-5.24933 -10.61036,-0.28355 -10.61036,-0.28355 -0.59683,2.78355 c -3.0916,14.4189898 -10.60569,23.5554798 -23.3133,28.3469798 -8.08484,3.04845 -20.54348,2.44399 -28.3502,-1.37548 -9.81081,-4.79998 -17.73716,-15.22278 -19.37743,-25.4804298 l -0.67281,-4.20752 h -10.78932 -10.78933 l -1.07939,5.03304 c -2.29272,10.6905698 -9.16121,19.6562498 -18.79586,24.5348798 -5.3149,2.69127 -6.65286,2.93144 -16.29048,2.92421 -8.98175,-0.007 -11.18196,-0.3457 -15.21635,-2.34431 -10.26038,-5.0829 -18.52298,-15.72649 -20.27952,-26.1233798 l -0.67993,-4.02444 h -10.9121 c -8.66668,0 -10.9121,0.28699 -10.9121,1.39467 0,0.76706 -0.91039,4.34217 -2.02309,7.9446798 -2.56692,8.3107 -9.57297,16.33283 -17.78682,20.36642 -5.13224,2.52029 -6.71949,2.79423 -16.19009,2.79423 -9.13707,0 -11.08411,-0.30933 -15,-2.38307 -10.77842,-5.70795 -16.59495,-12.74676 -19.54784,-23.6555798 l -1.76645,-6.52582 -10.48069,0.28224 -10.48069,0.28223 -1.3415,5.24933 C 408.2727,26.045697 396.63939,35.469767 379.18299,36.289807 c -11.18675,0.52551 -17.78584,-1.84818 -25.82184,-9.2881 -5.81591,-5.3845 -9.13089,-11.0908 -11.18558,-19.2544598 l -1.06967,-4.25 h -10.42291 -10.42291 l -1.08532,4.25 c -3.64064,14.2563498 -10.31338,22.0875598 -22.84695,26.8134298 -8.08484,3.04845 -20.54348,2.44399 -28.3502,-1.37548 -9.81081,-4.79998 -17.73716,-15.22278 -19.37743,-25.4804298 l -0.67281,-4.20752 H 237.1739 226.42042 l -1.18968,4.75 c -2.97119,11.8629598 -8.68008,19.4535598 -18.48776,24.5815298 -5.68866,2.97432 -6.70338,3.16799 -16.55999,3.1606 -8.98175,-0.007 -11.18196,-0.3457 -15.21635,-2.34431 -10.26038,-5.0829 -18.52298,-15.72649 -20.27952,-26.1233798 l -0.67993,-4.02444 h -10.8242 -10.8242 l -0.65797,3.89444 c -1.79686,10.6355498 -10.43613,21.8665398 -20.34216,26.4446698 -3.85249,1.78046 -6.52426,2.16089 -15.17567,2.16089 -9.137067,0 -11.084108,-0.30933 -14.999996,-2.38307 C 70.404571,27.906227 64.588039,20.867417 61.635158,9.9585972 l -1.766458,-6.52582 -10.492593,0.28224 -10.492593,0.28223 -1.665645,6 c -2.194155,7.9037998 -4.318774,11.7838998 -9.034875,16.4999998 -4.716101,4.7161 -8.596199,6.84072 -16.5,9.03488 l -6,1.66564 -0.281404,10.41042 -0.281404,10.41041 7.281404,2.27769 c 16.669682,5.21443 25.849908,17.74459 25.739815,35.13246 C 38.039482,111.52642 27.471424,125.1371 11.932994,129.18276 l -6.75,1.75747 v 10.69061 10.69061 l 4.02444,0.67993 c 6.125218,1.03485 15.378437,6.09252 19.506811,10.66214 2.03413,2.25154 4.884243,6.62271 6.333584,9.71372 2.268856,4.83878 2.635165,6.94351 2.635165,15.14104 0,8.74573 -0.268068,10.06555 -3.291999,16.20802 -4.906567,9.96666 -12.755122,16.09835 -23.990741,18.74278 l -5.282741,1.24336 0.282741,10.57895 0.28274,10.57896 4.613063,1.17491 c 11.090603,2.82468 20.744669,10.57422 25.207664,20.23476 1.779264,3.85138 2.179273,6.55275 2.179273,14.71723 0,8.77031 -0.32612,10.67633 -2.65205,15.5 -5.116018,10.60994 -13.014025,16.77822 -25.59795,19.99177 l -4.25,1.08532 v 10.3905 10.39049 l 5.719904,1.66282 c 3.145947,0.91456 7.331539,2.48502 9.301315,3.48993 5.393843,2.75173 11.975231,9.82159 14.884454,15.98917 2.252814,4.77599 2.594327,6.81638 2.594327,15.5 0,11.70523 -1.720967,16.52979 -8.532152,23.91905 -5.388578,5.84592 -9.813823,8.54819 -17.391453,10.62006 l -6.076395,1.66141 -0.281404,10.41041 -0.281404,10.41042 7.281404,2.27769 c 17.442149,5.45607 26.673101,18.86339 25.554375,37.11598 -0.541048,8.8275 -3.017565,14.80915 -8.896354,21.48781 -4.300976,4.88617 -13.483148,10.017 -19.852177,11.09304 l -4.02444,0.67993 v 10.8242 10.8242 l 4.02444,0.67993 c 6.045672,1.02141 15.359933,6.07204 19.356937,10.49625 6.285216,6.95698 8.919121,13.40723 9.391707,22.99962 0.342123,6.94428 0.02868,9.53456 -1.712542,14.15254 -4.371941,11.59501 -12.695927,19.17323 -24.599195,22.3953 l -6.525822,1.76645 0.282237,10.52941 0.282238,10.5294 4.687098,1.19379 c 7.657467,1.95034 13.331123,5.21064 18.28604,10.50785 7.271451,7.77377 9.026862,12.52363 9.026862,24.42526 0,8.72176 -0.334823,10.70303 -2.619412,15.5 -4.698269,9.86499 -13.913334,17.05834 -25.630588,20.00742 l -4.25,1.06967 v 10.3905 10.39049 l 5.719904,1.66282 c 11.849539,3.44476 19.590932,9.64452 24.128736,19.32372 2.314697,4.93727 2.65136,6.92516 2.65136,15.65538 0,11.70523 -1.720967,16.52979 -8.532152,23.91905 -5.388578,5.84592 -9.813823,8.54819 -17.391453,10.62006 l -6.076395,1.66141 -0.281705,10.44008 -0.281705,10.44008 7.281705,2.19636 c 17.265419,5.20772 26.673699,18.88054 25.554676,37.13798 -0.541048,8.8275 -3.017565,14.80915 -8.896354,21.48781 -4.300976,4.88617 -13.483148,10.017 -19.852177,11.09304 l -4.02444,0.67993 v 10.80081 10.80083 l 3.75,0.6799 c 10.622008,1.926 20.493271,9.251 25.581524,18.9827 2.972034,5.6843 3.168476,6.711 3.168476,16.56 0,9.137 -0.309329,11.0841 -2.383073,15 -5.707949,10.7784 -12.746755,16.5949 -23.65558,19.5478 l -6.525822,1.7665 0.282237,10.5294 0.282238,10.5294 4.687098,1.1938 c 7.657467,1.9503 13.331123,5.21061 18.28604,10.50781 7.253414,7.7545 9.012464,12.5177 9.02029,24.4253 0.0059,8.9344 -0.291644,10.6073 -2.792066,15.6991 -4.931658,10.0427 -13.669058,16.8429 -25.451362,19.8083 l -4.25,1.0697 v 10.364 10.3641 l 6.879437,2.0896 c 16.866543,5.123 26.120563,17.6111 26.120563,35.2492 0,8.8549 -2.825924,16.3338 -8.597278,22.753 -5.60369,6.2326 -10.061866,9.0192 -17.826327,11.1421 l -6.076395,1.6614 -0.281705,10.4401 -0.281705,10.4401 7.281705,2.1963 c 17.265419,5.2078 26.673699,18.8806 25.554676,37.138 -0.541048,8.8275 -3.017565,14.8092 -8.896354,21.4878 -4.300976,4.8862 -13.483148,10.017 -19.852177,11.0931 l -4.02444,0.6799 v 10.8008 10.8008 l 3.75,0.68 c 10.62892,1.9272 20.937726,9.6144 25.817916,19.2521 2.688965,5.3104 2.932084,6.6611 2.932084,16.2905 0,9.1371 -0.309329,11.0841 -2.383073,15 -5.707949,10.7784 -12.746755,16.595 -23.65558,19.5478 l -6.525822,1.7665 0.282237,10.4926 0.282238,10.4926 6.076395,1.6614 c 7.51602,2.055 12.001377,4.7725 17.217525,10.4314 4.721449,5.1221 6.565257,8.4266 8.150627,14.6077 0.634808,2.475 1.342857,5.0625 1.57344,5.75 0.299267,0.8923 3.375717,1.25 10.750294,1.25 h 10.331051 z"
       id="path403" />
  </g>
</svg>
