<?xml version="1.0" encoding="iso-8859-1"?>
<!-- Uploaded to: SVG Repo, www.svgrepo.com, Generator: SVG Repo Mixer Tools -->
<!DOCTYPE svg PUBLIC "-//W3C//DTD SVG 1.1//EN" "http://www.w3.org/Graphics/SVG/1.1/DTD/svg11.dtd">
<svg fill="#000000" height="800px" width="800px" version="1.1" id="Capa_1" xmlns="http://www.w3.org/2000/svg" xmlns:xlink="http://www.w3.org/1999/xlink" 
	 viewBox="0 0 388.022 388.022" xml:space="preserve">
<g>
	<path d="M351.668,92.167l-1.197-4.978c-2.325-9.667-9.134-17.855-18.214-21.905l-42.149-18.796
		c-11.392-5.081-20.217-14.256-24.85-25.837C261.485,11.22,253.73,4.174,243.981,1.32c-5.234-1.532-10.818-1.735-16.151-0.585
		l-52.403,11.294c-36.682,7.905-66.405,33.616-79.513,68.773l-0.75,2.011c-35.791,96.002-55.613,196.603-58.918,299.006
		c-0.071,2.208,1.661,4.056,3.869,4.127c2.246,0.073,4.055-1.662,4.127-3.869c3.276-101.534,22.931-201.281,58.418-296.468
		l0.75-2.011c12.149-32.589,39.701-56.42,73.702-63.749l52.403-11.294c3.565-0.768,7.279-0.734,10.827,0.083
		c-2.742,4.578-5.943,12.378-5.509,23.455c0.408,10.399,4.404,15.768,7.321,19.688c2.389,3.209,3.429,4.749,3.045,7.626
		c-0.949,7.112-1.556,19.825,4.022,29.338c-5.479,6.953-12.33,15.979-11.795,25.323c-4.752,1.404-9.255,2.679-13.475,3.873
		c-40.384,11.432-62.628,17.729-78.618,70.84c-9.378,31.147-12.959,55.16-12.361,82.883c0.639,29.624,6.387,64.576,18.637,113.33
		c0.457,1.815,2.086,3.026,3.877,3.026c0.322,0,0.65-0.04,0.978-0.122c2.143-0.539,3.443-2.711,2.905-4.854
		c-20.187-80.336-25.897-127.117-6.375-191.958c14.727-48.915,34.247-54.44,73.137-65.449c8.474-2.399,18.079-5.118,28.611-8.569
		c57.633-18.885,92.785-19.961,93.131-19.969c1.208-0.029,2.339-0.602,3.076-1.561C351.685,94.583,351.95,93.343,351.668,92.167z
		 M248.572,47.004c-2.672-3.59-5.435-7.302-5.745-15.225c-0.404-10.297,2.873-16.894,5.009-20.064
		c4.475,2.757,7.984,6.881,9.994,11.907c5.409,13.524,15.716,24.24,29.02,30.173l42.149,18.796
		c6.354,2.834,11.226,8.367,13.28,14.981c-14.038-3.244-48.419-9.415-86.23-3.028c-3.175-5.567-4.243-14.158-2.92-24.08
		C253.959,54.241,251.097,50.396,248.572,47.004z M252.252,109.468c-2.294,0.752-4.54,1.464-6.747,2.151
		c0.783-6.244,6.321-13.262,10.581-18.657l0.272-0.345c24.779-4.329,48.467-2.912,65.363-0.588
		C305.398,94.693,281.831,99.775,252.252,109.468z"/>
	<path d="M195.286,55.423c2.881,2.106,5.988,3.22,8.987,3.22c3.71,0,8.958-1.648,12.885-9.501c0.756-1.513,0.479-3.337-0.691-4.558
		c-3.946-4.115-8.048-6.201-12.188-6.201c-3.691,0-7.21,1.68-10.177,4.858c-1.585,1.699-2.368,4.002-2.148,6.32
		C192.174,51.898,193.389,54.034,195.286,55.423z M199.95,48.698c1.435-1.537,2.891-2.316,4.328-2.316
		c1.422,0,2.881,0.751,4.175,1.724c-1.287,1.685-2.687,2.536-4.18,2.536c-1.289,0-2.765-0.58-4.265-1.677
		c-0.021-0.015-0.082-0.061-0.092-0.158C199.911,48.741,199.934,48.716,199.95,48.698z"/>
</g>
</svg>