<?xml version="1.0" encoding="iso-8859-1"?>
<!-- Uploaded to: SVG Repo, www.svgrepo.com, Generator: SVG Repo Mixer Tools -->
<!DOCTYPE svg PUBLIC "-//W3C//DTD SVG 1.1//EN" "http://www.w3.org/Graphics/SVG/1.1/DTD/svg11.dtd">
<svg fill="#000000" height="800px" width="800px" version="1.1" id="Capa_1" xmlns="http://www.w3.org/2000/svg" xmlns:xlink="http://www.w3.org/1999/xlink" 
	 viewBox="0 0 437.001 437.001" xml:space="preserve">
<g>
	<path d="M435.747,85.746c-20.745-19.592-64.115-14.541-110.033-9.193c-39.102,4.555-79.537,9.263-110.6,0.259
		c-32.167-9.325-62.914-10.983-88.915-4.8c-22.389,5.325-40.988,16.407-52.37,31.203c-10.992,14.29-26.819,35.533-38.162,50.838
		c-10.811,14.587-16.855,32.102-17.482,50.649c-1.382,40.949-17.766,85.106-17.932,85.548c-0.775,2.068,0.273,4.374,2.342,5.149
		c2.067,0.776,4.373-0.272,5.149-2.341c0.694-1.85,17.009-45.798,18.436-88.086c0.572-16.918,6.075-32.878,15.915-46.156
		c4.063-5.483,8.706-11.733,13.491-18.146c3.11,35.908,38.036,63.234,104.107,81.336c3.636,0.996,6.205,3.817,6.871,7.546
		c0.661,3.696-0.756,7.198-3.79,9.369c-49.992,35.769-79.013,84.646-80.224,86.709c-1.118,1.905-0.48,4.355,1.424,5.474
		c0.636,0.374,1.333,0.551,2.021,0.551c1.372,0,2.708-0.706,3.453-1.974c0.289-0.491,29.42-49.509,77.98-84.253
		c5.523-3.952,8.209-10.574,7.01-17.282c-1.205-6.741-6.045-12.05-12.632-13.854c-68.62-18.8-101.631-47.182-98.186-84.361
		c5.925-7.896,11.709-15.546,16.548-21.836c28.814-37.459,89.501-36.124,132.716-23.597c6.536,1.895,13.425,3.209,20.574,4.074
		c0.815,3.976,1.654,12.258-3.244,19.3c-3.35,4.815-8.832,17.214-5.605,29.677c1.589,6.14,5.17,11.32,10.465,15.241
		c-10.242,7.771-20.106,16.5-29.369,26.323c-23.945,25.395-23.718,65.238,0.517,90.707c27.982,29.407,37.004,59.501,45.891,95.788
		c0.447,1.826,2.082,3.049,3.882,3.049c0.315,0,0.635-0.038,0.955-0.116c2.146-0.525,3.459-2.691,2.934-4.837
		c-8.858-36.171-18.575-68.617-47.865-99.399c-21.306-22.391-21.521-57.401-0.492-79.704c64.107-67.989,158.789-82.24,204.29-89.089
		c7.157-1.078,13.338-2.008,17.967-2.934c1.466-0.293,2.647-1.38,3.06-2.818C437.258,88.322,436.835,86.774,435.747,85.746z
		 M232.461,135.87c9.01-20.603,63.08-29.525,106.431-32.865c-31.228,8.875-65.57,22.589-96.934,44.761
		C237.026,144.839,233.841,140.844,232.461,135.87z M414.627,87.6c-9.527,1.434-21.172,3.188-34.23,5.674
		c-3.607-0.02-36.903,0.26-71.301,4.766c-38.297,5.016-63.953,13.357-76.637,24.863c1.007-4.418,2.781-8.245,4.325-10.464
		c5.723-8.227,5.754-17.318,4.941-23.069c26.495,1.93,56.059-1.51,84.914-4.87c38.747-4.512,75.601-8.805,96.168,1.853
		C420.277,86.749,417.534,87.162,414.627,87.6z"/>
	<path d="M206.614,107.24l2.378-2.379c1.562-1.562,1.562-4.095,0-5.657l-2.379-2.378c-3.331-3.331-7.76-5.165-12.471-5.165
		s-9.14,1.834-12.471,5.165l-2.378,2.378c-1.562,1.562-1.562,4.095,0,5.657l2.378,2.379c3.331,3.331,7.76,5.166,12.471,5.166
		S203.283,110.572,206.614,107.24z M194.143,99.661c2.354,0,4.578,0.838,6.333,2.372c-1.755,1.535-3.98,2.373-6.333,2.373
		s-4.578-0.838-6.333-2.373C189.565,100.499,191.79,99.661,194.143,99.661z"/>
</g>
</svg>