<?xml version="1.0" encoding="iso-8859-1"?>
<!-- Uploaded to: SVG Repo, www.svgrepo.com, Generator: SVG Repo Mixer Tools -->
<!DOCTYPE svg PUBLIC "-//W3C//DTD SVG 1.1//EN" "http://www.w3.org/Graphics/SVG/1.1/DTD/svg11.dtd">
<svg fill="#000000" height="800px" width="800px" version="1.1" id="Capa_1" xmlns="http://www.w3.org/2000/svg" xmlns:xlink="http://www.w3.org/1999/xlink" 
	 viewBox="0 0 450.333 450.333" xml:space="preserve">
<g>
	<path d="M447.908,242.394c-1.184-0.508-118.309-50.694-162.377-68.745c-67.64-63.307-124.076-69.298-159.542-63.143
		c-41.103,7.132-67.285,32.33-77.217,51.742c-19.796,38.693-18.33,83.668-17.612,94.726c-5.753,3.707-21.79,14.602-30.361,26.03
		c-1.325,1.768-0.967,4.275,0.8,5.601c1.768,1.324,4.274,0.967,5.6-0.8c8.211-10.949,24.926-21.962,29.2-24.682l16.359,0.77
		c0.75,0.036,1.497,0.054,2.243,0.054c11.127,0,21.876-3.95,30.485-11.248c28.601-24.262,60.117-39.513,93.673-45.33
		c23.976-4.157,42.811-2.284,51.927-0.792c0.926,3.467,3.451,6.323,7.012,7.66c-8.321,0.968-18.737,2.543-29.755,5.106
		c-34.463,8.015-56.851,21.31-66.542,39.516c-0.789,1.481-0.569,3.298,0.551,4.548c3.197,3.571,4.543,7.41,4.115,11.738
		c-1.671,16.904-29.608,37.857-46.3,50.376c-1.768,1.326-2.125,3.833-0.8,5.601c0.786,1.048,1.987,1.6,3.203,1.6
		c0.835,0,1.678-0.261,2.397-0.8c18.893-14.17,47.444-35.584,49.461-55.989c0.559-5.653-0.875-10.879-4.267-15.57
		c21.584-34.82,97.552-39.217,105.879-39.594l18.149,6.599c-6.687,3.852-19.046,7.725-41.845,9.485
		c-15.083,1.165-28.652,8.281-38.209,20.04c-9.534,11.729-13.719,26.423-11.784,41.373c1.621,12.523,1.477,25.604-0.428,38.878
		c-0.314,2.187,1.205,4.214,3.391,4.527c0.193,0.028,0.384,0.042,0.573,0.042c1.958,0,3.668-1.438,3.955-3.433
		c2.008-13.991,2.157-27.799,0.443-41.042c-1.65-12.753,1.921-25.289,10.059-35.3c8.16-10.039,19.743-16.115,32.616-17.109
		c25.437-1.964,42.04-6.668,50.604-14.355c115.852,27.265,161.553,19.869,163.454,19.539c1.744-0.303,3.082-1.718,3.287-3.477
		C450.512,244.776,449.536,243.091,447.908,242.394z M285.862,182.433c29.56,12.174,85.659,36.034,122.67,51.828
		c-7.429-1.819-15.449-3.821-23.596-5.855c-63.745-15.907-118.913-29.057-143.254-28.26l29.004-4.64
		C277.868,194.356,283.664,189.352,285.862,182.433z M55.895,165.893c9.092-17.772,33.264-40.877,71.462-47.505
		c33.454-5.802,86.76-0.026,151.415,59.905l-0.498,1.619c-1.102,3.582-3.861,6.291-7.372,7.35
		c-1.928-7.982-8.113-24.915-26.493-30.044c-11.058-3.087-17.472-1.857-22.625-0.87c-5.45,1.045-9.389,1.799-18.237-2.393
		c-18.396-8.714-27.264-2.328-36.652,4.435c-1.529,1.101-3.111,2.24-4.779,3.353c-2.257,1.505-7.471,2.369-14.071,3.463
		c-21.343,3.537-60.112,9.965-107.539,53.978C42.533,202.777,46.888,183.495,55.895,165.893z M184.826,157.92
		c2.153-0.354,4.489-0.288,7.196,0.323c5.399,1.767,9.312,6.845,9.312,12.827c0,7.444-6.056,13.5-13.5,13.5s-13.5-6.056-13.5-13.5
		C174.334,164.661,178.827,159.292,184.826,157.92z M177.794,199.485c-34.98,6.064-67.778,21.916-97.48,47.111
		c-7.634,6.473-17.283,9.773-27.175,9.306l-14.05-0.661c-0.229-4.492-0.455-13.064,0.263-23.873
		c48.699-48.103,88.53-54.713,110.001-58.271c7.82-1.297,13.474-2.236,17.164-4.678c-0.108,0.871-0.182,1.751-0.182,2.651
		c0,11.855,9.645,21.5,21.5,21.5s21.5-9.645,21.5-21.5c0-2.404-0.403-4.715-1.134-6.875c6.404,1.659,10.804,0.831,15.088,0.009
		c4.778-0.914,9.723-1.862,18.97,0.719c14.073,3.927,19.094,17.129,20.753,23.708l-22.693,3.63c-3.848,0.616-6.943,3.007-8.51,6.327
		C221.944,197.031,202.387,195.224,177.794,199.485z M273.674,218.665l-29.166-10.606c26.829,0.248,92.928,16.738,138.492,28.108
		c9.713,2.424,18.321,4.565,25.848,6.399c-24.343-1.385-61.646-5.822-114.494-17.813
		C287.341,223.163,280.431,221.123,273.674,218.665z"/>
	<path d="M187.134,168.231c1.699,0,3.082,1.382,3.082,3.081c0,0.936-0.396,1.599-0.729,1.991c-1.429,1.685-1.221,4.209,0.463,5.638
		c0.752,0.638,1.671,0.949,2.585,0.949c1.134,0,2.261-0.479,3.053-1.413c1.694-1.998,2.627-4.542,2.627-7.165
		c0-6.11-4.971-11.081-11.082-11.081c-2.209,0-4,1.791-4,4S184.925,168.231,187.134,168.231z"/>
</g>
</svg>