<?xml version="1.0" encoding="iso-8859-1"?>
<!-- Uploaded to: SVG Repo, www.svgrepo.com, Generator: SVG Repo Mixer Tools -->
<!DOCTYPE svg PUBLIC "-//W3C//DTD SVG 1.1//EN" "http://www.w3.org/Graphics/SVG/1.1/DTD/svg11.dtd">
<svg fill="#000000" height="800px" width="800px" version="1.1" id="Capa_1" xmlns="http://www.w3.org/2000/svg" xmlns:xlink="http://www.w3.org/1999/xlink" 
	 viewBox="0 0 411.268 411.268" xml:space="preserve">
<g>
	<path d="M188.945,106.706c12.278,0,23.378-6.721,28.966-17.539l0.254-0.499c0.312-0.623,0.455-1.316,0.416-2.011
		c-0.498-8.955-3.526-16.955-8.234-22.839c14.495,4.204,24.202,13.546,31.424,22.104c0.791,0.938,1.921,1.42,3.059,1.42
		c0.911,0,1.827-0.31,2.578-0.943c1.688-1.425,1.901-3.948,0.477-5.637c-10.52-12.464-28.035-28.803-58.581-27.092
		c-0.084,0.003-0.168,0.007-0.252,0.01c-0.011,0.001-0.022,0.001-0.033,0.001c-0.002,0-0.003,0.001-0.005,0.001
		c-13.147,0.645-29.17,9.974-33.942,16.337c-0.741,0.988-0.984,2.263-0.659,3.453l0.288,1.072
		c1.182,4.423,3.159,11.826,8.071,18.724c6.081,8.539,15.62,13.437,26.171,13.438C188.944,106.706,188.944,106.706,188.945,106.706z
		 M210.52,86.029c-0.757,1.382-1.642,2.664-2.626,3.85c-6.529-0.615-12.328-1.552-17.411-2.646l2.904-10.453
		c7.438,1.467,13.479,3.317,16.399,4.284C210.125,82.627,210.378,84.278,210.52,86.029z M190.433,61.645
		c1.031,0,1.997,0.083,2.87,0.247c4.499,0.844,9.316,4.094,12.735,9.651c-7.924-2.22-20.394-4.982-33.06-4.881
		C178.486,63.882,184.967,61.645,190.433,61.645z M163.997,77.829c-0.272-0.82-0.521-1.614-0.741-2.371
		c7.22-1.205,15.011-0.914,22.191,0.015l-2.732,9.834C172.508,82.419,166.319,79.179,163.997,77.829z M169.937,89.484
		c6.592,2.6,16.071,5.492,28.567,7.324c-2.966,1.232-6.204,1.899-9.56,1.899C181.376,98.705,174.512,95.355,169.937,89.484z"/>
	<path d="M376.098,112.293c-23.174-4.421-59.472-12.114-100.788-23.66c-2.92-0.816-5.371-2.68-6.9-5.247
		c-6.529-10.96-26.808-40.075-61.208-47.581c-3.013-3.227-13.401-13.558-30.449-22.351C158.27,3.92,128.145-5.488,89.601,3.846
		c-34.8,8.425-57.489,33.094-67.438,73.321c-7.959,32.182-7.789,74.836,0.504,126.778c14.332,89.765,46.962,203.294,47.29,204.431
		c0.506,1.752,2.104,2.892,3.841,2.892c0.367,0,0.741-0.051,1.111-0.158c2.123-0.612,3.347-2.829,2.734-4.952
		c-0.327-1.131-32.82-114.188-47.076-203.474C12.582,90.044,33.077,25.761,91.484,11.621c28.897-6.996,56.25-4.04,81.299,8.787
		c8.878,4.547,15.875,9.597,20.8,13.673c-7.419-0.284-15.374,0.44-23.879,2.486c-7.802,1.876-15.625,5.107-23.252,9.602
		c-1.903,1.122-2.537,3.574-1.416,5.478c1.122,1.903,3.574,2.538,5.477,1.415c6.944-4.093,14.03-7.025,21.062-8.717
		c22.159-5.328,42.644-1.551,60.891,11.231c15.03,10.528,24.665,24.508,29.071,31.903c2.585,4.341,6.712,7.486,11.62,8.858
		c41.585,11.62,78.118,19.363,101.443,23.813c6.965,1.329,11.924,7.261,12.325,14.049c0,0-9.704-1.056-12.971-1.404
		c-133.805-14.257-176.794-11.965-178.628-11.858c-2.205,0.132-3.886,2.025-3.755,4.23c0.131,2.206,2.02,3.876,4.231,3.756
		c0.449-0.027,45.271-2.417,182.74,12.41c-0.891,2.194-2.326,4.139-4.229,5.664c-2.968,2.378-6.68,3.44-10.459,2.992l-52.2-6.208
		c-63.539-6.641-103.38,20.996-125.608,45.347c-13.825,15.146-20.408,35.591-18.061,56.089c2.875,25.099,10.777,71,32.098,147.146
		c0.495,1.768,2.101,2.923,3.85,2.923c0.356,0,0.72-0.048,1.081-0.149c2.127-0.596,3.369-2.803,2.773-4.93
		c-21.179-75.64-29.012-121.091-31.854-145.9c-2.084-18.2,3.755-36.347,16.021-49.786c20.985-22.989,58.646-49.071,118.812-42.789
		l52.143,6.201c5.927,0.714,11.75-0.962,16.406-4.692c3.589-2.876,6.132-6.698,7.386-11.018l3.482,0.383
		c2.086,0.224,3.983-1.184,4.369-3.239C396.903,126.827,388.624,114.682,376.098,112.293z"/>
	<path d="M304.268,119.446c0.533,0.24,1.09,0.354,1.639,0.354c1.526,0,2.983-0.878,3.65-2.359c0.907-2.015,0.009-4.383-2.006-5.289
		l-15.22-6.85c-2.014-0.91-4.383-0.009-5.289,2.006c-0.907,2.015-0.009,4.383,2.006,5.289L304.268,119.446z"/>
</g>
</svg>