<?xml version="1.0" encoding="iso-8859-1"?>
<!-- Uploaded to: SVG Repo, www.svgrepo.com, Generator: SVG Repo Mixer Tools -->
<!DOCTYPE svg PUBLIC "-//W3C//DTD SVG 1.1//EN" "http://www.w3.org/Graphics/SVG/1.1/DTD/svg11.dtd">
<svg fill="#000000" height="800px" width="800px" version="1.1" id="Capa_1" xmlns="http://www.w3.org/2000/svg" xmlns:xlink="http://www.w3.org/1999/xlink" 
	 viewBox="0 0 427.001 427.001" xml:space="preserve">
<g>
	<path d="M395.092,252.903c-0.688-2.333-0.658-4.827-0.627-7.468c0.027-2.298,0.056-4.674-0.342-7.246
		c-0.707-4.568-2.276-7.936-4.275-10.343c-0.442-10.463-2.87-34.049-15.141-56.923c-8.079-15.06-18.776-26.894-31.99-35.466
		c-47.049-34.181-65.974-71.087-84.14-112.264c-0.701-1.589-2.353-2.548-4.075-2.364c-1.728,0.18-3.141,1.455-3.499,3.154
		c-3.566,16.933-2.771,31.405-0.804,42.227c-7.893-12.688-17.032-33.196-19.673-62.569c-0.155-1.721-1.397-3.148-3.081-3.538
		c-1.683-0.392-3.429,0.344-4.323,1.822c-9.488,15.643-11.842,38.96-6.458,63.972c4.554,21.157,13.879,40.824,26.004,55.168
		C161.112,134.469,93.471,201.435,28.129,331.35c-0.993,1.974-0.198,4.378,1.776,5.371c0.577,0.29,1.19,0.428,1.794,0.428
		c1.464,0,2.874-0.807,3.577-2.204c76.194-151.493,154.917-215.576,255.272-207.782c75.898,5.894,88.804,71.181,90.962,95.823
		c-0.983-0.162-1.954-0.223-2.883-0.17c-7.53,0.436-13.436,6.727-13.734,14.633c-0.121,3.199-3.077,8.42-6.201,10.955
		c-10.105,8.199-18.904,17.209-26.152,26.782c-0.003,0.003-0.005,0.006-0.007,0.009c-12.055,15.908-19.918,33.392-23.418,52.002
		c-10.008,3.557-44.606,21.163-49.677,95.533c-0.149,2.204,1.515,4.112,3.719,4.263c0.093,0.006,0.185,0.009,0.276,0.009
		c2.085,0,3.843-1.617,3.987-3.728c2.821-41.389,15.28-63.431,25.235-74.634c9.158-10.307,17.919-13.543,20.234-14.256
		c4.3,0.531,23.116,2.261,41.434-5.173l-3.874,11.136c-0.512,1.471-0.123,3.105,0.996,4.188c0.76,0.735,1.763,1.126,2.783,1.126
		c0.482,0,0.969-0.087,1.435-0.267c0.615-0.236,15.202-5.957,27.406-20.23C394.376,311.94,405.638,288.67,395.092,252.903z
		 M291.168,119.187c-13.333-1.037-26.288-0.857-38.91,0.555c-12.8-13.367-23.128-33.943-27.774-55.526
		c-3.6-16.728-3.533-32.483,0.005-45.186c7.892,45.054,30.513,66.878,33.022,69.171c0.015,0.014,0.029,0.028,0.042,0.04
		c1.595,1.516,4.103,1.449,5.627-0.136c1.264-1.313,1.446-3.273,0.576-4.78c-0.461-0.903-9.006-18.247-6.868-44.403
		c13.547,29.299,29.681,57.79,58.369,84.371C307.748,121.224,299.717,119.851,291.168,119.187z M317.345,326.741
		c3.021-14.622,8.966-28.498,17.728-41.377l4.372,8.936c4.033,8.257,13.4,12.499,22.314,10.076c0.452-0.129,0.71,0.21,0.774,0.302
		c0.194,0.273,0.144,0.517,0.089,0.674l-4.587,13.19C342.985,327.143,325.233,327.229,317.345,326.741z M377.199,319.718
		c-5.293,6.255-11.188,10.724-15.857,13.669l3.767-10.829c0.001-0.001,0.001-0.002,0.002-0.004l5.07-14.578
		c0.941-2.713,0.53-5.606-1.128-7.937c-1.645-2.312-4.302-3.692-7.106-3.692c-0.794,0-1.591,0.111-2.326,0.32
		c-5.172,1.409-10.636-1.065-12.988-5.881l-6.218-12.71c6.566-8.342,14.4-16.225,23.319-23.46c4.318-3.504,8.924-10.77,9.154-16.865
		c0.162-4.29,3.317-6.782,6.203-6.949c3.576-0.193,6.26,3.011,7.126,8.611c0.297,1.916,0.273,3.864,0.249,5.926
		c-0.038,3.117-0.076,6.339,0.952,9.827C395.032,280.988,391.594,302.706,377.199,319.718z"/>
	<path d="M315.372,232.652c0.001,0,0.001,0,0.002,0c4.713,0,9.344-1.316,13.392-3.805l11.291-6.944
		c1.662-1.022,2.345-3.096,1.613-4.906l-4.967-12.291c-3.937-9.739-13.275-16.031-23.792-16.031c-4.714,0-9.346,1.316-13.394,3.805
		l-11.291,6.944c-1.662,1.022-2.345,3.096-1.613,4.906l4.968,12.291C295.516,226.358,304.855,232.651,315.372,232.652z
		 M329.285,207.704l3.7,9.155l-8.411,5.173c-2.786,1.714-5.968,2.62-9.2,2.62h-0.001c-3.24,0-6.314-0.873-8.968-2.432
		c-3.84-14.214,4.098-23.007,6.843-25.532C320.348,196.82,326.62,201.109,329.285,207.704z M300.288,201.399
		c-1.185,2.585-2.15,5.57-2.619,8.937l-2.372-5.868L300.288,201.399z"/>
	<path d="M379.663,233.92c-2.185-0.1-4.088,1.578-4.204,3.784l-0.631,11.98c-0.116,2.206,1.578,4.089,3.784,4.205
		c0.071,0.003,0.143,0.005,0.214,0.005c2.112,0,3.878-1.655,3.99-3.79l0.631-11.98C383.563,235.919,381.869,234.036,379.663,233.92z
		"/>
	<path d="M294.189,237.418c0-19.529-16.25-35.417-36.225-35.417s-36.225,15.888-36.225,35.417c0,19.529,16.25,35.417,36.225,35.417
		S294.189,256.947,294.189,237.418z M257.965,264.835c-15.563,0-28.225-12.299-28.225-27.417c0-15.118,12.661-27.417,28.225-27.417
		s28.225,12.299,28.225,27.417C286.189,252.536,273.528,264.835,257.965,264.835z"/>
</g>
</svg>