<?xml version="1.0" encoding="iso-8859-1"?>
<!-- Uploaded to: SVG Repo, www.svgrepo.com, Generator: SVG Repo Mixer Tools -->
<!DOCTYPE svg PUBLIC "-//W3C//DTD SVG 1.1//EN" "http://www.w3.org/Graphics/SVG/1.1/DTD/svg11.dtd">
<svg fill="#000000" height="800px" width="800px" version="1.1" id="Capa_1" xmlns="http://www.w3.org/2000/svg" xmlns:xlink="http://www.w3.org/1999/xlink" 
	 viewBox="0 0 402.582 402.582" xml:space="preserve">
<g>
	<path d="M288.265,206.045c16.953,0,28.576-10.912,29.167-11.478c1.592-1.525,1.645-4.046,0.124-5.642
		c-1.52-1.597-4.05-1.656-5.65-0.142c-0.591,0.559-14.653,13.597-33.382,7.746c-2.108-0.657-4.352,0.516-5.012,2.625
		c-0.658,2.108,0.517,4.352,2.625,5.011C280.405,205.497,284.469,206.045,288.265,206.045z"/>
	<path d="M171.327,106.884c-1.613,0.934-39.604,23.313-48.559,61.891c-0.499,2.152,0.84,4.301,2.992,4.801
		c0.304,0.071,0.608,0.104,0.908,0.104c1.818,0,3.464-1.249,3.893-3.097c8.149-35.109,44.327-56.515,44.775-56.776
		c1.91-1.107,2.563-3.554,1.456-5.465C175.685,106.43,173.239,105.776,171.327,106.884z"/>
	<path d="M153.615,170.021c-2.021-0.893-4.381,0.021-5.275,2.04c-0.639,1.444-15.658,35.778-17.006,71.467
		c-0.083,2.208,1.639,4.064,3.846,4.148c0.052,0.002,0.103,0.003,0.154,0.003c2.139,0,3.913-1.693,3.994-3.849
		c1.288-34.119,16.179-68.194,16.328-68.534C156.548,173.275,155.634,170.914,153.615,170.021z"/>
	<path d="M401.968,221.861c-2.525-20.702-19.915-33.426-30.464-39.33c0.222-12.02-1.131-61.993-36.472-99.243
		C308.856,55.695,270.42,41.925,220.64,42.351c-7.597,0.058-13.407,0.317-18.675,0.83c-8.431-3.057-17.499-5.804-27.262-8.154
		c-1.518-0.364-3.114,0.188-4.081,1.418c-0.966,1.229-1.127,2.91-0.412,4.301c0.175,0.339,0.319,0.68,0.44,1.028
		c-11.622-8.617-24.517-13.871-37.637-15.289c-5.139-0.559-12.24-0.356-19.104-0.159c-4.876,0.14-9.479,0.271-13.185,0.138
		c-1.707-0.056-3.28,0.98-3.887,2.587c-0.605,1.607-0.117,3.422,1.214,4.509c14.526,11.86,28.033,21.887,40.525,30.372
		c-25.896,15.269-49.092,38.691-69.021,69.736c-17.002,26.486-31.688,58.56-43.65,95.331C5.583,291.462,0.073,346.745,0.019,347.295
		c-0.213,2.199,1.397,4.154,3.596,4.366c0.132,0.013,0.262,0.019,0.391,0.019c2.035,0,3.776-1.547,3.977-3.615
		c0.053-0.543,5.502-55.088,25.579-116.742c11.753-36.091,26.144-67.517,42.771-93.405c20.108-31.305,43.556-54.498,69.706-69.024
		c45.981,29.952,77.219,38.306,93.574,40.455c-5.429,3.24-11.883,7.994-17.779,14.696c-22.298,25.345-18.695,57.883-11.747,80.715
		c0.525,1.726,2.111,2.836,3.826,2.836c0.385,0,0.777-0.056,1.166-0.174c2.113-0.643,3.305-2.878,2.662-4.991
		c-9.2-30.229-5.878-54.737,9.873-72.843c9.739-11.195,21.513-16.45,25.472-17.991c1.735,0.728,3.366,1.673,4.842,2.849
		l14.162,11.258c1.73,1.375,4.247,1.086,5.62-0.642c1.375-1.729,1.088-4.246-0.642-5.621l-14.159-11.256
		c-4.683-3.73-10.409-5.882-16.564-6.225c-45.741-2.492-106.855-46.049-134.433-67.577c0.734-0.02,1.477-0.042,2.225-0.063
		c6.596-0.189,13.417-0.385,18.014,0.116c13.496,1.458,26.803,7.528,38.483,17.555c1.177,1.009,2.288,2.036,3.305,3.052
		c1.335,1.335,3.422,1.555,5.005,0.527c1.584-1.027,2.233-3.022,1.559-4.786c-0.756-1.974-0.947-3.776-1.149-5.684
		c-0.023-0.216-0.046-0.435-0.07-0.656c52.629,14.116,82.694,40.412,98.794,60.376c9.69,12.016,17.868,23.737,23.426,31.792
		c-5.253-3.751-13.737-6.726-26.925-4.196c-27.21,5.216-23.911,32.188-23.875,32.46c0.004,0.032,0.026,0.056,0.034,0.086
		c0.107,0.68,0.368,1.332,0.808,1.881c14.981,18.725,28.111,24.1,38.249,24.1c3.675,0,6.958-0.707,9.791-1.74
		c7.2-2.614,11.3-7.407,11.471-7.61c1.418-1.681,1.204-4.182-0.468-5.61c-1.399-1.195-3.389-1.251-4.845-0.266
		c2.729-11.426,1.242-20.099-0.112-24.735c0.404-0.03,0.81-0.104,1.206-0.265c1.551-0.63,2.488-2.123,2.491-3.7
		c0-0.001,0-0.001,0-0.002c0-0.202-0.333-1.815-0.545-2.555c-0.87-3.044-3.12-9.955-7.716-18.985
		c31.618,4.412,52.53,33.254,56.625,55.297c-27.618,27.776-21.23,58.421-20.932,59.771c0.34,1.533,1.545,2.725,3.081,3.048
		c0.098,0.021,7.907,1.671,16.949,3.962c1.286,15.087,7.008,87.481,1.845,124.351c-0.307,2.188,1.219,4.209,3.406,4.516
		c0.188,0.026,0.375,0.039,0.56,0.039c1.963,0,3.677-1.446,3.956-3.446c5.071-36.2,0.125-103.18-1.547-123.266
		c8.153,2.438,8.298,5.663,7.66,19.073c-0.07,1.473,0.676,2.866,1.942,3.623c0.632,0.378,1.343,0.567,2.053,0.567
		c0.712,0,1.425-0.19,2.058-0.57C397.677,261.069,404.847,245.469,401.968,221.861z M295.253,182.197
		c-10.544,2.907-22.421-2.908-34.619-16.938c6.448-4.011,15.062-8.627,23.659-11.049c-0.868,2.073-1.363,4.468-1.363,7.045
		c0,8.088,4.834,14.424,11.006,14.424c1.336,0,2.604-0.313,3.78-0.86C297.112,177.146,296.316,179.604,295.253,182.197z
		 M290.93,161.255c0-3.985,1.946-6.424,3.006-6.424s3.006,2.439,3.006,6.424s-1.946,6.424-3.006,6.424S290.93,165.24,290.93,161.255
		z M258.845,156.978c1.026-6.101,4.778-14.315,17.238-16.704c12.538-2.402,19.306,1.249,22.666,4.431
		C285.667,143.367,270.806,149.839,258.845,156.978z M296.377,117.002c-12.231-20.422-35.203-47.388-76.915-66.639
		c0.411-0.004,0.82-0.009,1.242-0.012c0.729-0.006,1.451-0.01,2.175-0.01c46.327,0,82.085,12.914,106.295,38.396
		c25.51,26.85,32.156,61.719,33.803,81.16C354.458,145.748,330.441,118.814,296.377,117.002z M380.894,261.257
		c-0.1-9.304-2.36-16.062-14.493-19.432c-8.686-2.413-17.8-4.497-22.208-5.472c-0.825-7.235-1.274-28.904,18.556-49.311
		c7.047,3.297,28.751,15.058,31.278,35.789C396.181,240.5,392.339,252.13,380.894,261.257z"/>
	<path d="M255.398,238.146c-14.727-11.044-22.475-34.659-22.591-35.019c-0.675-2.104-2.927-3.266-5.028-2.59
		c-2.104,0.673-3.265,2.925-2.591,5.029c0.343,1.07,8.582,26.36,25.409,38.981c0.72,0.54,1.563,0.8,2.397,0.8
		c1.216,0,2.417-0.552,3.203-1.6C257.523,241.979,257.164,239.471,255.398,238.146z"/>
	<path d="M297.247,249.354c-14.183-0.886-30.11-17.51-30.343-17.755c-1.516-1.604-4.048-1.678-5.653-0.161
		c-1.606,1.517-1.679,4.049-0.162,5.655c0.738,0.782,18.283,19.16,35.658,20.246c0.086,0.005,0.17,0.008,0.254,0.008
		c2.095,0,3.855-1.631,3.988-3.75C301.127,251.39,299.452,249.491,297.247,249.354z"/>
	<path d="M334.622,246.348c-14.858-0.464-27.683-6.507-27.892-6.607c-1.992-0.957-4.38-0.12-5.338,1.87
		c-0.958,1.991-0.121,4.381,1.869,5.339c0.582,0.28,14.455,6.874,31.11,7.394c0.043,0.001,0.085,0.002,0.127,0.002
		c2.151,0,3.929-1.709,3.996-3.875C338.565,248.263,336.83,246.417,334.622,246.348z"/>
</g>
</svg>