<?xml version="1.0" encoding="iso-8859-1"?>
<!-- Uploaded to: SVG Repo, www.svgrepo.com, Generator: SVG Repo Mixer Tools -->
<!DOCTYPE svg PUBLIC "-//W3C//DTD SVG 1.1//EN" "http://www.w3.org/Graphics/SVG/1.1/DTD/svg11.dtd">
<svg fill="#000000" height="800px" width="800px" version="1.1" id="Capa_1" xmlns="http://www.w3.org/2000/svg" xmlns:xlink="http://www.w3.org/1999/xlink" 
	 viewBox="0 0 427.376 427.376" xml:space="preserve">
<g>
	<path d="M325.088,136.655l-10.913-0.672c3.251-3.585,5.25-8.325,5.25-13.534c0-11.134-9.059-20.193-20.193-20.193
		s-20.192,9.059-20.192,20.193c0,3.881,1.12,7.498,3.025,10.578c-11.108-2.688-21.39-8.367-29.69-16.533l-0.115-0.112
		c-3.047-2.947-6.288-5.761-9.634-8.362l-1.966-1.529c-7.474-5.812-16.806-9.013-26.276-9.013c-8.622,0-16.947,2.564-24.077,7.416
		c-12.972,8.828-20.069,23.997-18.52,39.586c2.058,20.7,12.389,47.148,49.925,55.593c5.722,1.288,11.848,1.94,18.209,1.94
		c0.002,0-0.001,0,0.001,0c33.312,0,69.167-17.789,93.377-32.71c6.673-4.113,9.753-11.688,7.846-19.297
		C339.235,142.379,332.932,137.138,325.088,136.655z M299.232,110.256c6.723,0,12.193,5.47,12.193,12.193
		c0,6.723-5.47,12.192-12.193,12.192c-6.723,0-12.192-5.47-12.192-12.192C287.04,115.726,292.51,110.256,299.232,110.256z
		 M329.102,162.494c-23.331,14.379-57.741,31.521-89.18,31.521c-5.771,0-11.307-0.587-16.454-1.745
		c-32.879-7.397-41.923-30.501-43.72-48.579c-1.259-12.672,4.511-25.003,15.06-32.182c5.797-3.945,12.566-6.03,19.576-6.03
		c7.7,0,15.288,2.603,21.365,7.328l1.966,1.529c3.119,2.425,6.141,5.048,9.049,7.862c12.342,12.143,28.584,19.412,45.733,20.467
		l32.099,1.976c5.21,0.32,7.957,3.987,8.79,7.311C334.215,155.261,333.525,159.768,329.102,162.494z"/>
	<path d="M299.232,119.943c1.382,0,2.506,1.124,2.506,2.506c0,0.671-0.257,1.167-0.472,1.464c-1.294,1.791-0.892,4.291,0.898,5.585
		c0.708,0.512,1.528,0.759,2.34,0.759c1.24,0,2.463-0.575,3.245-1.657c1.301-1.8,1.988-3.927,1.988-6.151
		c0-5.793-4.713-10.506-10.506-10.506c-2.209,0-4,1.791-4,4S297.023,119.943,299.232,119.943z"/>
	<path d="M425.889,141.658c-15.88-12.826-55.615-20.542-66.756-22.501c-7.731-43.549-57.846-77.265-118.327-77.265
		c-40.962,0-88.105,20.844-114.644,50.689c-13.677,15.382-25.009,34.856-37.006,55.475C68.271,183.949,44.6,224.63,1.682,255.15
		c-1.858,1.321-2.247,3.936-0.816,5.746c1.342,1.696,3.868,1.902,5.629,0.647c44.214-31.505,68.311-72.92,89.575-109.464
		c4.276-7.35,8.467-14.547,12.699-21.447h21.837c0.249,7.008,1.409,22.112,6.579,38.43c9.373,29.582,27.53,48.693,52.509,55.266
		c17.541,4.616,35.963,5.094,53.779,5.556c2.924,0.076,5.822,0.153,8.691,0.246c-1.92,5.81-6.09,16.442-13.994,28.58
		c-10.933,16.791-31.473,40-67.24,55.221c-2.033,0.865-2.979,3.214-2.114,5.247c0.647,1.521,2.127,2.435,3.683,2.435
		c0.522,0,1.053-0.103,1.564-0.32c37.786-16.079,59.477-40.708,71.019-58.537c9.327-14.407,13.687-26.657,15.375-32.282
		c14.15,0.734,27.283,2.379,38.274,7.322c14.888,6.697,24.348,18.927,29.416,38.191c1.027,3.904,1.686,7.9,1.989,11.925
		c2.588,34.381,0.522,65.919-6.168,92.401c-0.506,2.003,0.46,4.168,2.39,4.904c0.48,0.183,0.966,0.269,1.442,0.269
		c1.787,0,3.415-1.206,3.875-3.018c8.916-35.148,10.021-76.887,3.286-124.055c-4.484-31.399,1.037-64.03,15.545-92.183
		c1.222,0.034,2.815,0.063,4.743,0.063c15.597,0,51.929-1.898,70.773-18.524c0.883-0.78,1.378-1.909,1.353-3.086
		C427.349,143.504,426.806,142.398,425.889,141.658z M409.402,141.281l-50.344,1.851c0.739-4.029,1.116-8.111,1.116-12.233
		c0-1.15-0.039-2.293-0.097-3.432C370.214,129.353,393.363,134.156,409.402,141.281z M326.072,251.078
		c-6.037-9.243-14.018-16.063-24.059-20.579c-16.752-7.535-36.949-8.059-58.332-8.613c-17.359-0.45-35.309-0.915-51.95-5.294
		c-22.452-5.908-38.217-22.646-46.856-49.749c-6.6-20.703-6.332-39.944-6.328-40.133c0.021-1.074-0.391-2.111-1.144-2.878
		c-0.752-0.767-1.781-1.199-2.855-1.199h-20.753c5.839-9.049,11.847-17.426,18.347-24.736
		c25.133-28.265,69.818-48.005,108.666-48.005c61.408,0,111.367,36.34,111.367,81.007c0,10.12-2.545,19.994-7.564,29.348
		C329.783,187.881,323.313,219.828,326.072,251.078z M354.443,158.267c1.005-2.327,1.875-4.681,2.617-7.057l51.43-1.891
		C390.36,157.307,365.723,158.283,354.443,158.267z"/>
</g>
</svg>