<?xml version="1.0" encoding="iso-8859-1"?>
<!-- Uploaded to: SVG Repo, www.svgrepo.com, Generator: SVG Repo Mixer Tools -->
<!DOCTYPE svg PUBLIC "-//W3C//DTD SVG 1.1//EN" "http://www.w3.org/Graphics/SVG/1.1/DTD/svg11.dtd">
<svg fill="#000000" height="800px" width="800px" version="1.1" id="Capa_1" xmlns="http://www.w3.org/2000/svg" xmlns:xlink="http://www.w3.org/1999/xlink" 
	 viewBox="0 0 443.501 443.501" xml:space="preserve">
<g>
	<path d="M443.283,245.7c-0.322-0.938-8.171-23.084-32.789-34.338c-18.408-8.419-48.186-26.346-59.239-33.105
		c2.28-2.557,5.179-6.348,7.656-11.301c4.455-8.911,8.364-23.427,1.686-41.978c-6.809-18.912-17.773-34.845-30.875-44.864
		c-15.93-12.182-34.424-15.263-53.487-8.909c-14.047,4.683-25.133,13.75-32.994,26.975c-1.238-0.241-2.78-0.451-4.565-0.531
		c1.095-9.508,2.204-31.398-6.428-54.547c-0.772-2.069-3.077-3.123-5.146-2.351c-2.07,0.771-3.122,3.075-2.351,5.146
		c7.709,20.674,6.984,40.707,6.053,49.903c-5.41-18.169-19.59-53.592-53.18-82.818c-1.666-1.45-4.193-1.273-5.643,0.392
		c-1.45,1.667-1.275,4.193,0.392,5.644c31.975,27.823,45.516,61.506,50.707,78.875c-8.647-15.792-36.9-61.018-93.444-96.774
		c-1.868-1.182-4.337-0.624-5.519,1.243c-1.181,1.867-0.624,4.338,1.243,5.519c56.837,35.942,84.772,82.872,91.665,95.703
		c-0.263,0.159-0.526,0.318-0.79,0.485C204.661,90.134,153.271,31.461,88.959,6.276c-2.057-0.805-4.377,0.209-5.183,2.266
		c-0.806,2.058,0.209,4.378,2.266,5.184c61.27,23.993,112.063,81.26,123.759,95.149c-0.119,0.103-0.238,0.198-0.357,0.302
		c-13.412-11.398-73.782-60.602-143.143-84.458c-2.088-0.72-4.365,0.392-5.083,2.481c-0.718,2.089,0.393,4.365,2.482,5.083
		c67.301,23.149,126.106,70.75,140.06,82.561c-0.157,0.176-0.315,0.353-0.472,0.532c-7.494-4.593-28.431-17.125-53.76-29.721
		C106.766,64.386,72.496,53.065,47.672,52.004c-2.209-0.106-4.073,1.618-4.167,3.825c-0.094,2.207,1.619,4.073,3.826,4.167
		c23.35,0.998,57.434,12.335,98.567,32.786c24.225,12.044,44.383,24.027,52.381,28.906c-0.122,0.169-0.245,0.337-0.365,0.507
		C182.957,115.268,105.981,81.451,28.024,81c-0.008,0-0.016,0-0.023,0c-2.198,0-3.987,1.775-4,3.977
		c-0.013,2.209,1.768,4.011,3.977,4.023c74.849,0.432,148.975,32.383,165.569,39.99c-0.087,0.151-0.171,0.305-0.258,0.457
		C176,124.87,89.01,103.125,16.703,108.511c-2.203,0.164-3.856,2.084-3.691,4.286c0.164,2.204,2.093,3.837,4.286,3.692
		c69.017-5.149,152.001,14.971,172.27,20.251c-0.135,0.296-0.272,0.591-0.404,0.889c-18.338-2.266-116.585-13.482-185.758-3.084
		c-2.185,0.328-3.689,2.365-3.361,4.55s2.368,3.69,4.55,3.361c65.919-9.91,159.069,0.16,181.504,2.858
		c-0.354,1.007-0.692,2.02-1.015,3.037c-17.125-0.726-101.628-3.246-166.598,13.781c-2.137,0.56-3.415,2.746-2.855,4.883
		c0.471,1.798,2.092,2.987,3.867,2.987c0.335,0,0.677-0.043,1.017-0.132c61.864-16.212,142.068-14.38,162.383-13.601
		c-0.196,0.824-0.393,1.647-0.571,2.474c-16.584,0.852-93.688,6.402-152.702,37.725c-1.951,1.036-2.693,3.457-1.658,5.408
		c0.719,1.354,2.104,2.126,3.537,2.126c0.632,0,1.274-0.15,1.872-0.468c54.262-28.801,126.556-35.333,146.831-36.636
		c-15.099,3.81-76.973,21.115-124.712,59.485c-1.722,1.385-1.996,3.902-0.612,5.624c0.79,0.983,1.95,1.494,3.12,1.494
		c0.879,0,1.765-0.288,2.503-0.882c43.878-35.267,101.797-52.654,119.463-57.372c-0.019,0.25-0.043,0.5-0.06,0.749
		c-8.51,4.673-41.663,25.272-75.289,78.364c-1.182,1.867-0.627,4.338,1.239,5.52c0.664,0.421,1.404,0.622,2.136,0.622
		c1.325-0.001,2.622-0.658,3.383-1.86c4.924-7.774,9.846-14.827,14.683-21.225c-0.616,19.434,1.787,57.51,23.89,99.933
		c24.779,47.559,17.68,100.429,17.587,101.085c-0.313,2.188,1.207,4.213,3.394,4.526c0.192,0.027,0.383,0.041,0.571,0.041
		c1.958,0,3.669-1.439,3.955-3.435c0.324-2.262,7.62-55.951-18.412-105.915c-27.554-52.885-23.072-99.806-22.11-107.386
		c19.297-23.002,36.212-35.375,44.691-40.759c0.111,13.618,2.454,26.428,6.485,36.631c6.738,17.055,16.858,27.489,23.976,33.159
		c-2.619,1.118-5.016,2.676-7.173,4.689c-5.786,5.401-9.56,13.769-11.217,24.87c-1.671,11.194-0.547,21.214-0.163,24.018
		c0.726,5.293,3.555,11.595,6.55,18.267c2.181,4.859,4.437,9.883,5.972,14.704c0.688,2.161,1.432,4.312,2.151,6.392
		c2.159,6.243,4.198,12.141,4.863,18.351c0.708,6.62,3.236,11.19,7.512,13.584c2.29,1.281,4.718,1.718,6.965,1.718
		c1.895,0,3.656-0.311,5.097-0.687c4.277,7.951,15.853,31.782,15.853,56.799c0,2.209,1.791,4,4,4s4-1.791,4-4
		c0-26.462-11.637-50.963-16.503-60.052c11.598-7.552,19.261-26.62,22.805-56.81c0.785-6.641,1.323-23.398,1.844-39.604l0.063-1.96
		c0.493-15.256,11.833-27.725,26.964-29.646c17.881-2.27,42.221-4.257,65.108-5.315c11.161-0.517,21.981,0.375,32.172,2.646
		c25.511,5.688,51.743,3.813,52.845,3.729c1.236-0.093,2.36-0.754,3.042-1.789S443.686,246.872,443.283,245.7z M407.168,218.638
		c11.844,5.415,19.299,13.864,23.61,20.363c-23.693-9.619-83.864-32.186-136.177-36.339c-1.743-7.083-4.599-13.316-6.78-17.425
		c1.741-0.299,3.74-0.623,5.762-0.911c2.614-0.374,5.413-0.093,8.095,0.808c16.917,5.688,36.529,0.258,42.659-1.734
		C352.234,188.276,386.236,209.065,407.168,218.638z M257.941,140.558l9.442,14.352c-2.658,3.093-4.275,7.103-4.275,11.491
		c0,8.72,6.358,15.967,14.677,17.393c0.103,0.262,0.229,0.516,0.388,0.755c0.089,0.134,8.898,13.493,9.903,27.636
		c0.803,11.303-7.479,21.579-18.857,23.396c-21.241,3.403-42.321-3.839-56.383-19.365c-7.796-8.606-12.06-18.289-12.672-28.778
		c-0.617-10.567,2.335-19.758,8.772-27.316c0.025-0.028,0.05-0.058,0.075-0.087C222.018,144.874,245.036,140.145,257.941,140.558z
		 M211.52,146.891l0.209-1.433c0.65-4.457,3.667-8.21,7.877-9.797l2.803-1.061c3.741-1.419,7.048-3.824,9.562-6.957
		c2.513-3.132,4.138-6.888,4.701-10.861c0.287-2.023,1.961-2.526,2.468-2.632c0.144-0.03,0.387-0.068,0.685-0.068
		c0.756,0,1.87,0.246,2.642,1.498l10.525,17.067C240.965,133.328,224.393,137.345,211.52,146.891z M280.774,176.067
		c-5.33,0-9.667-4.336-9.667-9.666s4.336-9.667,9.667-9.667s9.667,4.337,9.667,9.667S286.104,176.067,280.774,176.067z
		 M254.651,281.278c-0.516,16.038-1.048,32.622-1.793,38.926c-0.544,4.639-1.991,16.959-5.635,28.603
		c-4.056,12.958-9.66,21.192-16.208,23.811c-0.066,0.026-0.15,0.063-0.214,0.093c-1.401,0.65-5.627,1.998-8.328,0.469
		c-1.871-1.06-3.03-3.563-3.445-7.443c-0.761-7.113-3.046-13.723-5.256-20.113c-0.703-2.034-1.431-4.138-2.089-6.205
		c-1.673-5.254-4.024-10.489-6.296-15.553c-2.753-6.132-5.353-11.924-5.922-16.076c-1.414-10.313-1.37-32.354,8.913-41.953
		c3.322-3.101,7.451-4.638,12.518-4.638c2.005,0,4.157,0.24,6.464,0.721c9.956,2.065,19.134,8.507,27.3,19.154L254.651,281.278z
		 M354.413,236.621c-23.088,1.068-47.666,3.076-65.747,5.372c-15.973,2.028-28.591,13.39-32.619,28.33
		c-8.146-8.746-17.221-14.197-27.063-16.239c-2.748-0.571-5.365-0.86-7.853-0.878c-3.572-2.028-18.768-11.712-27.577-34.008
		c-9.798-24.8-8.872-66.216,12.142-94.124c19.062-25.317,37.291-18.799,38.027-18.521c1.888,0.752,4.039-0.031,5.001-1.821
		c6.928-12.875,17.035-21.602,30.042-25.937c37.369-12.459,63.382,18.554,74.305,48.893c7.126,19.795,0.629,34.074-4.916,41.744
		c-2.82,3.901-6.918,6.691-11.592,7.844c-7.855,1.938-21.086,4.058-32.337,0.276c-2.86-0.961-5.836-1.424-8.748-1.378
		c1.868-2.801,2.962-6.16,2.962-9.772c0-9.741-7.925-17.667-17.667-17.667c-2.442,0-4.769,0.499-6.887,1.399l-24.612-38.751
		c-2.496-4.047-7.118-6.036-11.771-5.062c-4.65,0.971-8.085,4.637-8.753,9.34c-0.361,2.554-1.405,4.966-3.019,6.978
		c-1.622,2.021-3.751,3.57-6.156,4.482l-2.796,1.058c-6.927,2.611-11.896,8.79-12.967,16.125l-1.677,11.485
		c-7.327,9.013-10.677,19.813-9.958,32.116c0.721,12.356,5.677,23.688,14.729,33.683c15.886,17.538,39.65,25.721,63.576,21.895
		c15.434-2.465,26.667-16.46,25.573-31.862c-0.019-0.271-0.051-0.539-0.075-0.809c45.576,4.014,96.971,21.974,123.639,32.361
		c-9.039-0.34-20.137-1.315-30.924-3.719C377.812,237.025,366.278,236.072,354.413,236.621z"/>
	<circle cx="280.773" cy="166.4" r="4.814"/>
	<path d="M365.162,213c0.156,0,0.314-0.009,0.473-0.027l5.667-0.667c2.194-0.259,3.763-2.246,3.505-4.44s-2.247-3.756-4.44-3.505
		l-5.667,0.667c-2.194,0.259-3.763,2.246-3.505,4.44C361.434,211.503,363.162,213,365.162,213z"/>
</g>
</svg>