<?xml version="1.0" encoding="iso-8859-1"?>
<!-- Uploaded to: SVG Repo, www.svgrepo.com, Generator: SVG Repo Mixer Tools -->
<!DOCTYPE svg PUBLIC "-//W3C//DTD SVG 1.1//EN" "http://www.w3.org/Graphics/SVG/1.1/DTD/svg11.dtd">
<svg fill="#000000" height="800px" width="800px" version="1.1" id="Capa_1" xmlns="http://www.w3.org/2000/svg" xmlns:xlink="http://www.w3.org/1999/xlink" 
	 viewBox="0 0 408.286 408.286" xml:space="preserve">
<g>
	<circle cx="168.813" cy="176.618" r="6.082"/>
	<path d="M95.642,162.588c-3.163-2.034-6.427-2.698-9.701-1.977c-4.386,0.97-8.334,4.308-12.069,10.207
		c-1.257,1.984-0.55,4.652,1.609,5.728c1.866,0.93,4.128,0.146,5.252-1.61c2.398-3.744,4.857-6.054,6.933-6.513
		c0.723-0.157,1.887-0.24,3.649,0.894c8.802,5.659,9.378,14.648,8.938,19.503c-0.251,2.768-0.896,5.357-1.789,7.66
		c-1.723,0.494-2.716,0.138-3.335-0.225c-3.558-2.086-5.354-10.313-5.666-13.97c-0.184-2.199-2.116-3.839-4.314-3.652
		c-2.202,0.182-3.839,2.113-3.658,4.315c0.129,1.566,1.496,15.445,9.577,20.199c0.695,0.409,1.524,0.797,2.479,1.087
		c-0.97,0.929-1.964,1.624-2.925,2.02c-3.203,1.318-4.836,1.175-5.295,0.882c-0.077-0.049-0.145-0.377-0.204-0.862
		c-0.329-2.713-3.182-4.339-5.667-3.2c-1.7,0.779-2.658,2.63-2.264,4.459c0.458,2.125,1.464,4.764,3.672,6.243
		c1.549,1.038,3.374,1.557,5.462,1.557c2.169,0,4.622-0.561,7.342-1.681c7.445-3.065,13.565-13.205,14.553-24.109
		C109.248,178.211,104.663,168.386,95.642,162.588z"/>
	<path d="M400.663,244.2c-0.565-2.005-14.757-49.072-102.772-74.855c-6.931-19.37-20.847-57.168-47.314-92.663
		C216.458,30.924,173.454,5.175,122.762,0.15C111.06-1.008,99.575,4.608,93.49,14.463c-15.9,25.751-18.525,66.09-6.778,101.279
		c-16.526,11.669-35.079,26.656-50.291,49.045c-19.5,28.701-29.238,63.869-28.941,104.527
		c0.338,46.314,11.497,81.771,20.463,110.261c1.861,5.914,3.619,11.5,5.169,16.829c0.617,2.121,2.839,3.339,4.958,2.724
		c2.122-0.617,3.341-2.837,2.724-4.958c-1.575-5.413-3.346-11.04-5.22-16.997c-8.806-27.979-19.765-62.802-20.094-107.917
		c-0.285-39.004,8.987-72.64,27.559-99.973c14.873-21.89,33.27-36.482,49.508-47.859c14.172,1.616,128.963,16.517,161.089,77.159
		c-1.235,2.48-3.209,6.998-4.163,12.152c-7.535,0.008-15.368,0.183-23.508,0.554c-32.477,1.484-60.089,1.339-82.07-0.432
		c-2.206-0.17-4.131,1.464-4.309,3.666c-0.177,2.202,1.464,4.131,3.666,4.309c22.316,1.798,50.267,1.949,83.078,0.449
		c7.851-0.359,15.413-0.527,22.698-0.535c0.238,2.582,0.9,5.151,2.182,7.556c0.59,1.107,1.296,2.128,2.091,3.081
		c-3.951-0.063-7.896-0.097-11.821-0.097c-23.34,0-42.54,8.139-57.067,24.19c-26.952,29.782-28.991,76.765-27.58,90.875
		c1.753,17.534,6.819,33.807,11.717,49.543c1.241,3.985,2.413,7.75,3.528,11.525c0.514,1.74,2.107,2.867,3.834,2.867
		c0.375,0,0.757-0.053,1.135-0.165c2.119-0.626,3.328-2.851,2.702-4.97c-1.132-3.83-2.312-7.622-3.562-11.636
		c-4.78-15.355-9.723-31.234-11.396-47.962c-1.659-16.593,2.403-59.132,25.551-84.71c12.946-14.306,30.151-21.559,51.135-21.559
		c73.5,0,153.941,11.837,154.745,11.956c1.339,0.199,2.694-0.294,3.59-1.313C400.712,246.91,401.031,245.507,400.663,244.2z
		 M252.392,182.01c-17.368-22.473-47.242-40.471-89.131-53.625c-31.44-9.873-60.253-13.784-68.824-14.797
		c-10.997-32.679-8.682-71.374,5.859-94.923c4.491-7.272,13.005-11.42,21.676-10.555c48.361,4.794,89.473,29.473,122.191,73.353
		c23.781,31.893,37.226,65.893,44.501,85.879c-7.932-1.116-20.659-1.538-29.219,5.003
		C256.174,174.845,253.828,178.086,252.392,182.01z M261.731,196.843c-0.919-1.857-1.913-3.688-2.979-5.494
		c0.181-5.76,1.984-9.915,5.539-12.638c6.737-5.158,18.051-4.304,24.522-3.25c2.888,0.47,6.799,1.551,7.719,1.824
		c42.776,12.689,66.638,30.566,79.184,43.46c5.564,5.719,9.433,10.97,12.08,15.214c-18.708-8.764-61.096-24.103-130.166-25.167
		c1.004-4.297,2.835-8.218,3.962-10.142C262.278,199.485,262.33,198.053,261.731,196.843z M271.813,229.686
		c-6.949-0.927-11.495-3.32-13.537-7.134c-0.615-1.148-0.977-2.419-1.175-3.747c54.632,0.863,92.452,10.95,114.41,19.161
		c-22.744-2.703-57.865-6.299-94.698-7.879C276.348,230.067,272.936,229.836,271.813,229.686z"/>
	<path d="M338.695,212.54l10,2c0.265,0.054,0.529,0.079,0.789,0.079c1.868,0,3.538-1.315,3.918-3.217
		c0.433-2.166-0.972-4.273-3.138-4.706l-10-2c-2.166-0.439-4.273,0.972-4.707,3.138C335.124,210,336.529,212.107,338.695,212.54z"/>
	<path d="M242.265,205.665c0.785,1.06,1.994,1.619,3.218,1.619c0.827,0,1.661-0.255,2.376-0.785c1.775-1.313,2.15-3.816,0.836-5.593
		c-0.498-0.674-12.414-16.652-30.626-29.782c-24.734-17.831-49.077-21.543-70.398-10.74c-1.97,0.999-2.758,3.406-1.759,5.377
		c0.573,1.131,1.615,1.855,2.769,2.093c-1.174,2.687-1.832,5.65-1.832,8.765c0,12.094,9.824,21.935,21.911,21.964
		c0.004,0,0.005,0.001,0.009,0.001c0.326,0.003,0.648,0.005,0.968,0.005c18.417,0,27.254-5.856,28.216-6.535
		c1.805-1.273,2.235-3.77,0.961-5.574c-1.274-1.806-3.771-2.235-5.575-0.961c-1.55,1.094-3.596,1.962-5.856,2.652
		c2.086-3.359,3.294-7.316,3.294-11.552c0-4.507-1.373-8.694-3.71-12.184C217.663,172.991,241.933,205.218,242.265,205.665z
		 M168.813,190.583c-7.7,0-13.964-6.265-13.964-13.965c0-7.699,6.264-13.964,13.964-13.964s13.964,6.265,13.964,13.964
		C182.777,184.318,176.513,190.583,168.813,190.583z"/>
</g>
</svg>