<?xml version="1.0" encoding="iso-8859-1"?>
<!-- Uploaded to: SVG Repo, www.svgrepo.com, Generator: SVG Repo Mixer Tools -->
<!DOCTYPE svg PUBLIC "-//W3C//DTD SVG 1.1//EN" "http://www.w3.org/Graphics/SVG/1.1/DTD/svg11.dtd">
<svg fill="#000000" height="800px" width="800px" version="1.1" id="Capa_1" xmlns="http://www.w3.org/2000/svg" xmlns:xlink="http://www.w3.org/1999/xlink" 
	 viewBox="0 0 419.382 419.382" xml:space="preserve">
<g>
	<path d="M340.62,129.721l-17.349-12.312l-21.815-22.517c-25.97-26.803-62.178-40.212-99.339-36.785
		c-37.163,3.425-70.313,23.227-90.947,54.328l-11.8,17.79c-27.634,41.654-39.623,91.925-33.76,141.55l0.707,5.992
		c-9.619,3.588-39.499,16.03-65.081,40.475c-1.597,1.526-1.654,4.059-0.128,5.655c0.785,0.823,1.838,1.237,2.893,1.237
		c0.993,0,1.987-0.368,2.763-1.108c28.949-27.663,64.787-39.64,65.146-39.758c1.808-0.593,2.949-2.379,2.727-4.269l-1.08-9.161
		c-4.666-39.491,2.429-79.4,20.061-114.698c5.291,29.1,16.609,53.695,33.757,73.219c15.578,17.737,35.919,31.304,60.456,40.323
		c29.284,10.765,57.154,12.432,71.612,12.432c4.316,0,7.429-0.148,9.036-0.248c2.22,1.088,5.393,2.159,9.315,3.208
		c4.779,5.585,31.96,38.001,51.118,74.584c0.715,1.364,2.106,2.145,3.547,2.145c0.626,0,1.261-0.147,1.853-0.458
		c1.957-1.025,2.713-3.442,1.688-5.399c-15.025-28.688-34.848-54.823-45.462-68.008c39.947,7.762,113.502,13.707,123.813,14.517
		c0.105,0.008,0.211,0.012,0.314,0.012c1.555,0,2.981-0.905,3.637-2.336c0.188-0.411,0.295-0.841,0.338-1.274
		c0.002-0.012,0.011-0.022,0.012-0.035C424.533,232.85,394.634,168.054,340.62,129.721z M411.203,289.772
		c-5.816-5.26-15.447-13.606-27.904-23.119c1.169-2.088,2.279-4.301,3.301-6.659c7.681-17.716,8.75-38.737,3.233-62.738
		C404.941,225.288,412.564,257.237,411.203,289.772z M373.503,172.195c13.443,33.779,15.409,62.192,5.828,84.454
		c-0.779,1.809-1.621,3.518-2.503,5.149c-16.39-12.069-36.783-25.409-59.376-36.495c0.05-3.008-0.609-6.078-2.073-8.948
		c-0.836-1.64-1.569-2.99-2.134-4c8.114-15.965,10.966-29.503,8.685-41.317c-4.443-23.002-2.364-37.67,0.197-44.629l13.862,9.837
		C350.359,146.444,362.939,158.603,373.503,172.195z M290.46,238.083c-0.001,0-0.002,0-0.002,0c-6.739,0-13.96-2.661-22.487-8.327
		c7.988-8.531,17.471-15.029,24.364-19.138c1.364-0.813,2.923-1.243,4.507-1.243c2.764,0,5.328,1.249,7.036,3.426l1.509,1.925
		c0.354,0.6,1.473,2.531,2.865,5.262c2.61,5.117,0.873,11.313-3.954,14.107C299.661,236.779,295.136,238.083,290.46,238.083z
		 M106.036,134.647l11.8-17.79c19.289-29.072,50.276-47.582,85.016-50.784c34.738-3.197,68.583,9.332,92.858,34.385l20.028,20.672
		c-0.98,2.115-2.182,5.376-3.083,9.981c-0.295,1.509-0.539,3.07-0.737,4.676c-13.429-13.062-46.734-40.54-91.062-42.651
		c-28.312-1.335-46.063,12.478-63.243,25.848c-16.299,12.685-31.764,24.707-55.426,21.715
		C103.436,138.664,104.712,136.643,106.036,134.647z M190.591,262.173c-23.271-8.554-42.519-21.371-57.206-38.094
		c-17.36-19.766-28.425-45.154-32.928-75.525c3.135,0.434,6.141,0.637,9.034,0.637c22.332-0.001,37.899-12.113,53.035-23.892
		c16.769-13.05,32.622-25.379,57.949-24.17c48.809,2.324,84.598,38.762,90.831,45.522c0.025,7.803,0.945,16.459,2.769,25.904
		c1.779,9.216-0.292,19.998-6.316,32.827c-3.026-2.566-6.852-4.005-10.917-4.005c-3.026,0-6.001,0.82-8.603,2.371
		c-8.284,4.938-20.093,13.137-29.308,24.153c-0.71,0.849-1.036,1.954-0.902,3.052c0.135,1.099,0.718,2.092,1.612,2.745
		c8.462,6.179,15.97,9.934,23.091,11.512c-7.775,11.079-14.403,20.854-16.663,28.759
		C256.391,274.347,224.105,274.493,190.591,262.173z M291.151,247.142l0.78-1.109c5.587-0.246,10.961-1.881,16.373-5.013
		c3.232-1.87,5.68-4.595,7.23-7.741c21.718,10.811,41.297,23.69,57.048,35.321c-8.934,12.456-19.887,18.173-22.958,19.601
		c-32.062-3.612-64.288-8.171-75.698-12.643C276.174,268.436,283.475,258.055,291.151,247.142z M362.829,289.638
		c4.968-3.575,10.875-8.83,16.171-16.213c10.39,7.96,18.732,15.056,24.407,20.097C392.042,292.544,377.776,291.213,362.829,289.638z
		"/>
	<path d="M241.807,115.226c-1.551,0.341-2.753,1.566-3.063,3.122c-3.757,18.781-15.054,31.867-31.904,37.05
		c-16.468-3.803-37.039-5.755-59.577-1.53c-2.171,0.407-3.602,2.498-3.194,4.669c0.407,2.172,2.502,3.598,4.669,3.194
		c19.088-3.58,36.857-2.36,51.654,0.587c1.082,0.215,9.159,2.114,10.505,2.483c18.852,5.164,30.803,12.281,31.023,12.414
		c0.645,0.393,1.364,0.584,2.08,0.584c1.054,0,2.097-0.416,2.871-1.214c0.244-0.251,24.059-25.483-0.972-59.81
		C244.962,115.494,243.358,114.885,241.807,115.226z M243.018,168.661c-4.206-2.244-12.483-6.266-23.748-9.853
		c2.124-1.158,4.146-2.453,6.064-3.875c5.886,7.009,14.514,8.836,20.397,9.19C244.795,165.999,243.826,167.527,243.018,168.661z
		 M248.559,156.182c-4.116,0.041-12.275-0.693-17.171-6.521c5.568-5.66,9.895-12.649,12.737-20.726
		C249.903,139.803,250.151,149.104,248.559,156.182z"/>
</g>
</svg>