<?xml version="1.0" encoding="iso-8859-1"?>
<!-- Uploaded to: SVG Repo, www.svgrepo.com, Generator: SVG Repo Mixer Tools -->
<!DOCTYPE svg PUBLIC "-//W3C//DTD SVG 1.1//EN" "http://www.w3.org/Graphics/SVG/1.1/DTD/svg11.dtd">
<svg fill="#000000" height="800px" width="800px" version="1.1" id="Capa_1" xmlns="http://www.w3.org/2000/svg" xmlns:xlink="http://www.w3.org/1999/xlink" 
	 viewBox="0 0 448.634 448.634" xml:space="preserve">
<g>
	<path d="M448.411,163.546c-12.58-36.064-76.101-38.867-95.27-38.867c-0.692,0-1.279,0.004-1.777,0.01
		c-8.137-7.916-32.285-29.422-68.392-44.611c-37.599-15.817-73.59-18.675-106.971-8.497C108.1,92.282,69.113,127.492,61.701,134.632
		c-6.516-0.092-30.892-0.308-57.907,1.093c-2.206,0.114-3.902,1.996-3.788,4.202c0.111,2.136,1.878,3.793,3.992,3.793
		c0.069,0,0.14-0.001,0.21-0.005c31.148-1.615,58.745-1.063,59.021-1.056c1.108,0.021,2.17-0.413,2.942-1.201
		c0.392-0.4,40.021-40.23,112.163-62.225c69.428-21.168,138.984,23.45,167.328,51.066l-0.142,2.554
		c-0.266,4.787-4.071,8.658-8.854,9.004l-38.178,2.767c-9.044,0.656-17.052,5.79-21.421,13.734c-1.397,2.541-1.353,5.544,0.12,8.036
		c1.689,2.857,4.908,4.399,8.196,3.903l16.663-2.5c1.247-0.187,2.519-0.282,3.779-0.282c5.046,0,9.933,1.479,14.132,4.279
		c7.539,5.026,16.31,7.683,25.363,7.683c0.433,0,0.869-0.017,1.304-0.03c-9.937,21.339-29,45.715-50.069,63.699
		c-36.986,31.574-107.884,129.38-110.884,133.528c-1.295,1.79-0.893,4.291,0.897,5.585c0.708,0.513,1.528,0.759,2.341,0.759
		c1.239,0,2.462-0.575,3.244-1.656c0.729-1.008,73.33-101.174,109.595-132.132c23.214-19.814,44.145-47.228,53.954-70.514
		c25.432-2.351,65.601-6.308,89.524-9.897c1.178-0.176,2.215-0.869,2.831-1.888C448.674,165.911,448.803,164.67,448.411,163.546z
		 M348.737,171.322c-1.131,0.103-2.28,0.155-3.415,0.155c-7.469,0-14.705-2.192-20.926-6.339c-0.592-0.394-1.194-0.768-1.806-1.122
		c61.567-9.839,93.117-5.619,107.91-1.247C404.516,166.09,369.379,169.445,348.737,171.322z M417.25,151.745
		c-28.442-4.063-67.874-1.33-117.249,8.121c-1.113,0.213-15.862,2.521-15.862,2.521c-0.032-0.012-0.084-0.085-0.061-0.174
		c3.058-5.56,8.661-9.152,14.989-9.611l38.178-2.767c8.783-0.636,15.775-7.747,16.264-16.54l0.034-0.617
		c11.853,0.031,61.121,1.487,80.796,22.831C430.012,154.123,424.417,152.77,417.25,151.745z"/>
	<path d="M266.106,132.333c0-16.157-13.145-29.301-29.301-29.301s-29.301,13.144-29.301,29.301s13.145,29.301,29.301,29.301
		S266.106,148.49,266.106,132.333z M215.504,132.333c0-11.745,9.556-21.301,21.301-21.301s21.301,9.556,21.301,21.301
		c0,11.746-9.556,21.301-21.301,21.301S215.504,144.079,215.504,132.333z"/>
	<path d="M246.613,132.333c0,2.619-1.021,5.082-2.873,6.935c-1.562,1.562-1.562,4.095,0.001,5.657
		c0.781,0.781,1.805,1.171,2.828,1.171s2.048-0.391,2.829-1.172c3.362-3.364,5.215-7.835,5.215-12.591
		c0-9.819-7.988-17.807-17.808-17.807c-2.209,0-4,1.791-4,4s1.791,4,4,4C242.213,122.526,246.613,126.926,246.613,132.333z"/>
</g>
</svg>