<?xml version="1.0" encoding="iso-8859-1"?>
<!-- Uploaded to: SVG Repo, www.svgrepo.com, Generator: SVG Repo Mixer Tools -->
<!DOCTYPE svg PUBLIC "-//W3C//DTD SVG 1.1//EN" "http://www.w3.org/Graphics/SVG/1.1/DTD/svg11.dtd">
<svg fill="#000000" height="800px" width="800px" version="1.1" id="Capa_1" xmlns="http://www.w3.org/2000/svg" xmlns:xlink="http://www.w3.org/1999/xlink" 
	 viewBox="0 0 459.174 459.174" xml:space="preserve">
<g>
	<path d="M378.33,163.767c-2.088,0-3.847-1.62-3.987-3.733c-0.146-2.205,1.521-4.11,3.725-4.258l10-0.667
		c2.199-0.153,4.111,1.521,4.258,3.725c0.146,2.205-1.521,4.11-3.725,4.258l-10,0.667
		C378.509,163.764,378.418,163.767,378.33,163.767z"/>
	<path d="M245.523,164.945c-0.001,0-0.001,0-0.002,0c-8.435,0-16.483-3.161-22.665-8.9l-7.911-7.346
		c-0.869-0.808-1.335-1.958-1.273-3.142c0.333-6.314,3.252-12.787,8.68-19.239c5.217-6.202,12.852-9.76,20.944-9.76
		c8.606,0,16.528,3.928,21.733,10.777l11.155,14.679c1.051,1.383,1.09,3.286,0.095,4.71c-2.239,3.207-4.856,6.244-7.778,9.028
		C262.277,161.68,254.117,164.945,245.523,164.945z M221.857,144.199l6.443,5.981c4.697,4.361,10.813,6.764,17.222,6.764
		c6.53,0,12.732-2.48,17.462-6.985c1.817-1.731,3.497-3.572,5.015-5.496l-9.338-12.288c-3.68-4.841-9.279-7.617-15.364-7.617
		c-5.726,0-11.128,2.519-14.822,6.91C224.747,135.9,222.527,140.173,221.857,144.199z"/>
	<path d="M246.067,152.767c-5.697,0-10.333-4.636-10.333-10.333c0-5.698,4.636-10.334,10.333-10.334
		c5.698,0,10.334,4.636,10.334,10.334C256.401,148.131,251.765,152.767,246.067,152.767z M246.067,140.1
		c-1.286,0-2.333,1.047-2.333,2.334c0,1.286,1.047,2.333,2.333,2.333c1.287,0,2.334-1.047,2.334-2.333
		C248.401,141.147,247.354,140.1,246.067,140.1z"/>
	<path d="M458.971,190.829c-0.007-0.063-0.015-0.125-0.024-0.188c-1.461-11.27-10.643-31.969-55.523-44.723
		c-17.392-4.939-34.06-7.476-49.581-7.557c-4.112-3.562-18.728-15.836-38.492-28.038c-28.602-17.657-54.191-26.826-76.174-27.297
		c-1.93-0.042-15.368-0.33-21-0.705c-13.932-0.928-31.72-2.566-50.396-5.453c-37.696-5.826-86.798-18.032-106.643-43.086
		c-1.537-1.941-4.508-2.073-6.204-0.087c-1.265,1.481-1.165,3.679,0.049,5.202c3.313,4.154,7.309,7.978,11.853,11.502
		C33.217,36.245,6.515,20.115,6.08,19.85C4.194,18.7,1.732,19.3,0.584,21.187c-1.149,1.888-0.55,4.348,1.336,5.497
		c0.182,0.11,18.475,11.207,43.651,23.036c13.935,6.547,25.879,11.441,36.822,15.153c-25.648-0.191-47.395,1.383-47.688,1.404
		c-2.203,0.163-3.857,2.081-3.694,4.284c0.156,2.103,1.91,3.705,3.985,3.705c0.099,0,0.199-0.004,0.299-0.011
		c0.193-0.015,10.439-0.703,24.981-1.088c5.441,0.223,27.104,1.831,46.249,13.233C83.469,88.542,68.169,97.883,67.387,98.37
		c-1.874,1.166-2.446,3.627-1.284,5.503s3.627,2.453,5.505,1.293c0.215-0.133,21.868-13.26,51.576-10.912
		c23.671,1.879,36.778,6.56,39.812,9.182c-0.028,0.019-0.058,0.039-0.088,0.059c-0.045,0.03-0.08,0.069-0.124,0.101
		c-2.378,1.427-4.718,2.9-6.979,4.468c-24.148,16.746-40.301,41.014-46.71,70.178c-4.041,18.385-7.417,65.886,15.375,177.451
		c4.65,22.767,0.434,46.151-11.873,65.846l-7.565,12.105c-1.12,1.792-0.787,4.215,0.911,5.471c0.726,0.537,1.563,0.793,2.388,0.793
		c1.333,0,2.637-0.667,3.396-1.881l7.654-12.249c13.399-21.443,17.99-46.901,12.927-71.688
		c-9.656-47.267-24.497-132.741-15.4-174.133c13.612-61.933,69.342-86.512,116.958-88.863
		c47.481-2.318,104.839,44.854,114.411,53.038c-0.32,4.328-2.352,15.729-14.784,18.392c-1.776,0.381-3.584,0.762-5.408,1.146
		c-18.255,3.847-37.13,7.825-46.355,15.727c-1.148,0.984-1.645,2.533-1.279,4.002c0.364,1.468,1.526,2.605,3.002,2.938
		c9.007,2.03,27.442,2.695,48.787,3.464c16.655,0.601,34.578,1.248,50.047,2.613c-30.201,10.137-91.517,34.091-131.39,72.469
		c-22.748,21.895-31.691,58.785-25.864,106.686c4.341,35.685,15.104,64.536,15.561,65.747c0.604,1.603,2.126,2.591,3.743,2.591
		c0.469,0,0.945-0.083,1.409-0.258c2.067-0.778,3.112-3.085,2.334-5.152c-0.43-1.144-42.445-114.945,8.364-163.85
		c49.368-47.516,135.773-73.192,145.085-75.857c3.608,0.625,6.875,1.335,9.694,2.148c16.279,4.701,29.985,2.99,39.806-0.04
		c0.195,1.673,1.441,3.105,3.182,3.458c0.268,0.054,0.534,0.08,0.797,0.08c1.864,0,3.533-1.311,3.917-3.208
		C458.975,196.963,459.43,194.536,458.971,190.829z M170.069,99.509c-6.738-9.354-36.64-12.466-46.253-13.229
		c-1.285-0.102-2.549-0.169-3.804-0.221c-6.993-5.677-14.619-9.814-22.043-12.829c4.434,0.156,8.866,0.377,13.206,0.677
		c0.311,0.023,0.79,0.063,1.383,0.11c3.808,0.298,7.581,0.96,11.266,1.963c24.944,6.795,51.73,10.622,73.908,12.777
		C187.966,91.45,178.7,95.052,170.069,99.509z M413.44,189.254c-17.928-5.176-51.391-6.382-80.914-7.445
		c-5.93-0.214-11.761-0.425-17.251-0.663c25.364-3.584,49.968-5.023,81.19-6.048c27.108-0.893,41.264,9.346,47.246,15.441
		C435.61,192.275,425.321,192.685,413.44,189.254z M396.203,167.102c-24.218,0.795-44.502,1.84-64.249,3.928
		c1.075-0.227,2.159-0.455,3.215-0.682c14.731-3.156,19.895-15.381,20.954-23.96c14.136,0.307,29.292,2.733,45.114,7.227
		c12.429,3.532,39.692,13.123,47.711,30.889C441.508,177.162,425.386,166.137,396.203,167.102z"/>
</g>
</svg>