<?xml version="1.0" encoding="iso-8859-1"?>
<!-- Uploaded to: SVG Repo, www.svgrepo.com, Generator: SVG Repo Mixer Tools -->
<!DOCTYPE svg PUBLIC "-//W3C//DTD SVG 1.1//EN" "http://www.w3.org/Graphics/SVG/1.1/DTD/svg11.dtd">
<svg fill="#000000" height="800px" width="800px" version="1.1" id="Capa_1" xmlns="http://www.w3.org/2000/svg" xmlns:xlink="http://www.w3.org/1999/xlink" 
	 viewBox="0 0 455.349 455.349" xml:space="preserve">
<g>
	<path d="M452.065,339.354c-64.515-11.729-138.155-66.484-212.962-158.345c-7.36-9.037-9.189-21.218-4.773-31.787
		c23.776-56.899-27.527-97.528-57.977-111.062c-27.049-12.022-56.549-11.974-83.068,0.134
		c-34.545,15.773-61.472,50.38-75.821,97.443c-18.944,62.138,5.917,114.037,22.422,139.443c2.507,3.858,3.103,8.577,1.633,12.945
		c-1.476,4.389-4.822,7.806-9.179,9.374L2.646,308.19c-2.079,0.748-3.157,3.04-2.409,5.118c0.749,2.079,3.039,3.156,5.119,2.409
		l29.693-10.689c6.67-2.401,11.792-7.632,14.052-14.351c2.253-6.697,1.34-13.935-2.506-19.854
		c-4.305-6.627-9.206-15.144-13.689-25.223c-0.526-6.432-3.712-55.943,17.448-103.693c5.583-12.597,16.5-21.726,29.951-25.045
		c13.644-3.367,27.781-0.298,38.789,8.419c19.833,15.705,80.184,63.496,81.641,89.83c0.167,3.011-0.506,5.572-2.029,7.776
		c-13.699-4.286-25.58-5.458-35.568-3.46c-36.421,7.276-82.853-16.843-93.91-40.968c-0.921-2.008-3.295-2.888-5.303-1.97
		c-2.008,0.921-2.89,3.295-1.97,5.304c11.684,25.492,56.142,50.205,94.931,46.609c4.549,6.46,20.017,29.587,31.442,60.7
		c12.32,33.551,22.332,83.578,0.061,131.379c-0.933,2.003-0.066,4.382,1.937,5.315c0.547,0.255,1.121,0.375,1.687,0.375
		c1.507,0,2.95-0.855,3.628-2.312c18.574-39.867,18.615-87.493,0.118-137.729c-10.378-28.186-23.656-49.575-30.048-59.044
		c17.613-3.012,52.028,4.114,116.808,53.472c7.824,5.961,36.029,26.743,70.473,43.892c32.266,16.063,60.217,24.151,83.368,24.15
		c5.513,0,10.755-0.459,15.717-1.377c1.898-0.352,3.274-2.01,3.271-3.94S453.965,339.699,452.065,339.354z M208.723,214.669
		c-1.129-20.419-28.031-50.815-84.662-95.66c-12.962-10.264-29.607-13.876-45.672-9.914c-15.872,3.916-28.756,14.694-35.349,29.569
		c-13.905,31.378-17.734,62.923-18.504,83.854c-6.712-23.769-9.091-52.728,0.579-84.448C38.787,93.23,64.177,60.379,96.608,45.571
		c24.404-11.143,51.57-11.178,76.496-0.101c6.837,3.039,30.367,14.652,46.095,36.511c14.506,20.162,17.114,41.747,7.75,64.156
		c-5.556,13.296-3.275,28.594,5.951,39.923c2.437,2.993,4.873,5.934,7.308,8.849c-8.936,3.856-25.568,13.532-28.324,32.824
		c-1.844-0.773-3.659-1.496-5.447-2.172C208.168,222.343,208.946,218.704,208.723,214.669z M287.368,274.194
		c-25.461-19.399-48.097-33.756-67.801-43.038c0.617-9.256,5.198-17.073,13.669-23.256c4.762-3.476,9.607-5.553,12.381-6.573
		c61.059,71.693,121.347,118.834,176.632,138.278C364.602,331.821,296.167,280.898,287.368,274.194z"/>
	<path d="M157.451,119.469c-2.238,0-4.607,0.171-7.041,0.506c-2.096,0.289-3.604,2.16-3.442,4.27
		c1.077,13.996,16.476,27.229,31.687,27.23c0,0,0.001,0,0.001,0c2.423,0,4.769-0.345,6.973-1.022
		c1.792-0.552,2.96-2.273,2.811-4.143C187.697,137.026,180.263,119.469,157.451,119.469z M178.656,143.475
		C178.656,143.475,178.655,143.475,178.656,143.475c-9.541-0.001-19.816-7.549-22.856-15.97c0.56-0.023,1.11-0.036,1.65-0.036
		c15.651,0,20.714,10.349,22.31,15.97C179.397,143.462,179.028,143.475,178.656,143.475z"/>
</g>
</svg>