<?xml version="1.0" encoding="iso-8859-1"?>
<!-- Uploaded to: SVG Repo, www.svgrepo.com, Generator: SVG Repo Mixer Tools -->
<!DOCTYPE svg PUBLIC "-//W3C//DTD SVG 1.1//EN" "http://www.w3.org/Graphics/SVG/1.1/DTD/svg11.dtd">
<svg fill="#000000" height="800px" width="800px" version="1.1" id="Capa_1" xmlns="http://www.w3.org/2000/svg" xmlns:xlink="http://www.w3.org/1999/xlink" 
	 viewBox="0 0 427.641 427.641" xml:space="preserve">
<g>
	<path d="M412.945,298.132L168.719,89.917c-1.627-1.389-3.447-2.429-5.363-3.14c-1.268-26.752-18.921-49.703-44.742-57.686
		L82.584,17.954L69.879,4.129c-2.466-2.684-5.96-4.206-9.619-4.126c-3.611,0.061-7.025,1.661-9.368,4.389
		c-25.444,29.634-39.457,67.499-39.457,106.62c0,43.394,23.788,72.088,51.332,105.313c2.233,2.693,4.491,5.417,6.762,8.18
		c7.449,9.063,27.235,33.139,38.192,71.684c9.574,33.679,11.663,76.416,6.208,127.022c-0.237,2.196,1.352,4.169,3.548,4.406
		c0.146,0.016,0.291,0.023,0.434,0.023c2.017,0,3.751-1.521,3.972-3.572c5.565-51.634,3.389-95.395-6.467-130.067
		c-11.413-40.148-31.968-65.16-39.707-74.575c-2.278-2.772-4.543-5.504-6.784-8.207c-26.556-32.033-49.491-59.699-49.491-100.208
		c0-37.21,13.327-73.224,37.526-101.408c0.868-1.01,2.087-1.579,3.434-1.602c1.355-0.02,2.672,0.539,3.593,1.541l8.482,9.229
		c-5.831,1.945-13.641,6.702-19.592,18.292c-1.009,1.965-0.234,4.376,1.731,5.385c0.584,0.3,1.209,0.443,1.824,0.443
		c1.452,0,2.853-0.793,3.562-2.174c7.34-14.293,17.578-15.243,19.729-15.274l36.527,11.292c22.129,6.841,37.394,26.257,39.032,49.05
		c-2.585,0.288-5.134,1.138-7.459,2.589l-5.619,3.508c-5.385,3.369-11.59,5.15-17.945,5.15c-0.313,0-0.636,0.001-0.948-0.01
		c-0.046-0.001-0.091-0.002-0.137-0.002h-0.429c-7.522,0-14.285,4.178-17.64,10.889c-0.476,0.942-1.011,1.819-1.605,2.628
		c-0.039,0.051-0.077,0.102-0.114,0.154c-3.151,4.256-7.996,6.956-13.306,7.412L77.8,119.152c-5.956,0.509-10.925,4.314-12.97,9.93
		c-2.044,5.616-0.685,11.726,3.55,15.944l44.711,44.544c61.375,61.139,99.152,142.348,106.372,228.668
		c0.175,2.088,1.924,3.667,3.982,3.667c0.112,0,0.225-0.004,0.338-0.014c2.201-0.184,3.837-2.118,3.652-4.319
		c-7.378-88.208-45.981-171.193-108.698-233.669l-24.012-23.922c4.554-0.103,12.522,0.82,18.952,2.599
		c24.792,6.857,48.278,17.482,69.809,31.582l69.704,45.643c42.587,27.885,88.904,49.438,137.673,64.08
		c4.571,3.768,8.011,6.641,10.113,8.407c2.537,2.131,6.047,2.742,9.161,1.595c3.124-1.151,5.337-3.794,5.921-7.071
		S415.478,300.292,412.945,298.132z M152.06,95.161c3.619-2.261,8.228-1.921,11.467,0.843l76.153,64.925l-92.327-62.829
		L152.06,95.161z M257.571,233.11l-69.704-45.642c-22.224-14.554-46.468-25.522-72.059-32.6c-4.895-1.354-11.214-2.412-16.492-2.761
		c-5.333-0.352-8.972-0.003-11.348,1.143L74.026,139.36c-2.033-2.025-2.661-4.844-1.679-7.541c0.981-2.696,3.274-4.452,6.133-4.696
		l12.282-1.049c6.634-0.569,12.763-3.589,17.207-8.391c83.143,29.528,209.605,126.954,265.841,172.303
		C332.861,275.932,293.84,256.859,257.571,233.11z M408.181,305.41c-0.048,0.268-0.217,0.75-0.812,0.969
		c-0.432,0.16-0.9,0.08-1.249-0.213c-2.21-1.856-5.874-4.917-10.781-8.958c-42.986-35.412-188.701-152.051-282.734-186.357
		c2.095-3.614,5.916-5.83,10.141-5.83h0.365c5.547,0.174,11.023-0.789,16.137-2.76l156.682,106.624l111.825,95.337
		C408.237,304.631,408.228,305.142,408.181,305.41z"/>
	<path d="M143.39,75.707c0-7.027-5.717-12.744-12.744-12.744s-12.744,5.717-12.744,12.744s5.717,12.744,12.744,12.744
		S143.39,82.734,143.39,75.707z M125.903,75.707c0-2.616,2.128-4.744,4.744-4.744s4.744,2.128,4.744,4.744s-2.128,4.744-4.744,4.744
		S125.903,78.323,125.903,75.707z"/>
</g>
</svg>