<?xml version="1.0" encoding="iso-8859-1"?>
<!-- Uploaded to: SVG Repo, www.svgrepo.com, Generator: SVG Repo Mixer Tools -->
<!DOCTYPE svg PUBLIC "-//W3C//DTD SVG 1.1//EN" "http://www.w3.org/Graphics/SVG/1.1/DTD/svg11.dtd">
<svg fill="#000000" height="800px" width="800px" version="1.1" id="Capa_1" xmlns="http://www.w3.org/2000/svg" xmlns:xlink="http://www.w3.org/1999/xlink" 
	 viewBox="0 0 444.662 444.662" xml:space="preserve">
<g>
	<path d="M272.113,166.918c0.052-0.425,0.079-0.858,0.079-1.288c0-5.755-4.682-10.438-10.438-10.438
		c-0.588,0-1.182,0.051-1.764,0.149c-2.178,0.372-3.642,2.438-3.271,4.616c0.371,2.178,2.44,3.634,4.615,3.271
		c1.493-0.265,2.857,0.919,2.857,2.401c0,0.104-0.006,0.208-0.019,0.31c-0.27,2.193,1.289,4.189,3.481,4.459
		c0.166,0.021,0.331,0.03,0.494,0.03C270.139,170.429,271.863,168.944,272.113,166.918z"/>
	<path d="M444.333,159.505c-9.015-20.804-48.174-20.067-54.971-19.783c-3.789-1.516-18.667-6.908-36.943-6.027
		c-3.725-2.411-12.328-7.771-26.172-16.308c-48.075-29.64-100.734-49.131-156.516-57.932c-55.767-8.796-111.845-6.469-166.68,6.925
		c-1.09,0.267-2.018,0.978-2.558,1.961c-0.54,0.984-0.642,2.149-0.281,3.211c0.616,1.813,16.187,43.896,134.767,72.09
		c-14.784,16.273-26.042,47.833-38.85,83.744c-10.34,28.989-22.06,61.847-36.976,89.124c-8.547,15.628-17.177,30.51-25.653,44.234
		c-1.004,1.625-0.81,3.774,0.585,5.079c1.918,1.795,4.866,1.318,6.17-0.792c8.565-13.866,17.285-28.899,25.916-44.683
		c15.221-27.831,27.053-61.005,37.493-90.274c13.009-36.473,25.319-70.976,40.544-84.311c4.155,0.896,14.011,2.824,21.807,2.824
		c0.011,0,0.022,0,0.034,0c2.631-0.002,5.253,0.136,7.856,0.522c13.633,2.023,51.075,8.34,66.539,18.648
		c0.209,0.14,0.805,0.445,1.55,0.801c1.424,9.641,9.73,17.072,19.761,17.072c3.103,0,6.032-0.731,8.655-1.998
		c9.568,10.235,24.248,13.804,37.615,8.832c9.772-3.637,22.992-7.637,35.97-8.679c-7.035,5.549-17.057,13.96-27.258,24.22
		c-25.083,25.226-38.327,48.397-39.363,68.872c-0.761,15.037,5.157,28.284,17.556,39.409c-8.064,38.958,5.387,70.203,6.074,71.759
		c0.66,1.495,2.124,2.383,3.659,2.383c0.539,0,1.086-0.109,1.611-0.341c2.02-0.89,2.937-3.249,2.049-5.271
		c-0.187-0.425-18.409-42.98,1.346-88.804c14.248-33.049,32.721-68.683,87.204-109.084c6.261-0.873,36.671-5.975,47.23-23.794
		C444.757,162.031,444.842,160.681,444.333,159.505z M168.121,140.508c-3.842,0.279-8.937-0.252-13.459-0.948
		c-5.714-0.879-13.519-2.691-14.999-3.036c-34.189-7.968-79.387-21.798-109.378-43.647C18.635,84.389,12.757,77.17,9.988,72.953
		c52.195-12.073,105.488-13.958,158.496-5.596c54.729,8.635,106.396,27.758,153.564,56.84c11.402,7.03,19.373,11.984,23.808,14.796
		c-3.337,4.897-9.467,12.06-16.026,13.34c-3.416,0.664-6.676-0.317-9.974-3.005c-13.6-11.081-23.987-9.772-34.985-8.385
		c-4.774,0.604-9.711,1.226-15.256,0.828c-7.336-0.523-12.228-3.36-17.893-6.645c-7.571-4.39-16.152-9.365-31.726-9.365
		C195.586,125.762,172.777,137.883,168.121,140.508z M242.648,159.716c-15.226-8.891-43.538-14.611-60.042-17.353
		c9.282-3.958,23.195-8.602,37.39-8.602c13.422,0,20.687,4.213,27.713,8.286c2.657,1.541,5.356,3.103,8.339,4.422
		C249.671,148.373,244.617,153.368,242.648,159.716z M249.754,165.63c0-6.617,5.383-12,12-12s12,5.383,12,12s-5.383,12-12,12
		S249.754,172.247,249.754,165.63z M334.997,176.848c-11,1.775-21.551,5.063-29.763,8.118c-10.037,3.733-21.03,1.204-28.412-6.227
		c3.062-3.515,4.931-8.093,4.931-13.109c0-6.394-3.027-12.082-7.711-15.745c4.315-0.062,8.248-0.552,11.828-1.005
		c10.441-1.317,17.985-2.268,28.93,6.649c5.188,4.229,10.769,5.789,16.583,4.651c11.01-2.162,19.315-13.801,22.282-18.529
		c14.664-0.528,27.032,3.398,31.547,5.055c0.041,0.88-0.085,2.097-0.783,3.415c-2.115,3.999-8.461,7.212-17.868,9.048
		C344.439,163.487,337.282,172.215,334.997,176.848z M302.322,292.845c-2.109,4.892-3.813,9.734-5.182,14.492
		c-8.487-8.805-12.351-18.68-11.778-30.047c1.798-35.632,47.183-74.427,65.43-88.634l32.123-1.123
		C338.871,222.224,319.097,253.935,302.322,292.845z M395.714,179.009c-0.445,0.064-0.892,0.102-1.342,0.117l-29.871,1.045
		c28.489-12.693,54.867-14.964,67.69-15.215C420.777,174.954,400.114,178.379,395.714,179.009z M355.176,175.706
		c-2.897-0.196-5.839-0.222-8.799-0.081c3.665-2.928,10.185-6.354,21.718-8.604c12.169-2.375,20.045-6.802,23.408-13.158
		c1.198-2.264,1.636-4.416,1.709-6.247c11-0.091,29.88,1.555,39.257,9.291C418.173,157.089,387.797,159.643,355.176,175.706z"/>
</g>
</svg>