<?xml version="1.0" encoding="iso-8859-1"?>
<!-- Uploaded to: SVG Repo, www.svgrepo.com, Generator: SVG Repo Mixer Tools -->
<!DOCTYPE svg PUBLIC "-//W3C//DTD SVG 1.1//EN" "http://www.w3.org/Graphics/SVG/1.1/DTD/svg11.dtd">
<svg fill="#000000" height="800px" width="800px" version="1.1" id="Capa_1" xmlns="http://www.w3.org/2000/svg" xmlns:xlink="http://www.w3.org/1999/xlink" 
	 viewBox="0 0 448 448" xml:space="preserve">
<g>
	<path d="M445.821,143.813c-1.86-0.951-46.813-23.306-167.257-31.344c-14.016-11.484-41.662-25.494-73.172-31.646
		c-26.699-5.214-65.486-6.623-98.662,16.258C48.71,137.095,1.073,213.503,0.598,214.271c-1.161,1.878-0.58,4.343,1.298,5.505
		c1.881,1.164,4.345,0.581,5.506-1.297c0.116-0.188,3.096-4.966,8.378-12.638c7.73-11.23,16.938-21.37,27.37-30.147
		c21.043-17.706,57.955-43.587,91.825-41.399c17.715,1.148,32.766,10.017,44.737,26.36c0.712,0.972,1.796,1.622,2.998,1.709
		c4.809,0.35,9.73,0.216,14.94,0.076c14.597-0.392,29.641-0.797,42.966,9.713c-17.842,10.508-26.327,32.004-19.882,52.338
		c20.656,65.161-20.788,139.163-21.209,139.903c-1.093,1.919-0.423,4.361,1.496,5.455c0.625,0.355,1.306,0.524,1.977,0.524
		c1.39,0,2.74-0.726,3.479-2.02c0.448-0.786,11.071-19.576,19.177-47.021c13.623-46.123,8.992-79.437,2.708-99.261
		c-5.802-18.298,3.084-37.743,20.667-45.231c18.267-7.779,39.716-13.179,69.547-17.509c15.983-2.32,41.407-3.09,65.994-3.834
		c27.501-0.831,51.252-1.55,60.561-4.287c1.57-0.463,2.701-1.835,2.854-3.466C448.135,146.117,447.279,144.558,445.821,143.813z
		 M234.216,141.187c7.041-12.446,32.177-19.071,42.968-20.791c66.078,4.36,109.473,13.213,135.103,20.271
		C368.741,137.473,290.037,133.528,234.216,141.187z M248.531,168.391c-16.283-14.88-34.743-14.387-51.097-13.948
		c-4.328,0.116-8.45,0.229-12.34,0.049c-13.266-17.428-29.944-26.906-49.602-28.181c-22.938-1.486-49.256,8.053-78.234,28.35
		c-1.459,1.022-2.885,2.045-4.28,3.066c16.675-19.181,36.771-39.217,58.292-54.06c30.886-21.3,67.398-19.908,92.588-14.992
		c26.154,5.106,49.38,15.755,63.694,25.554c-13.5,3.277-38.039,11.468-42.501,28.36c-1.621,0.275-3.227,0.558-4.797,0.856
		c-2.171,0.412-3.596,2.506-3.184,4.676c0.364,1.919,2.042,3.255,3.925,3.255c0.248,0,0.499-0.023,0.751-0.071
		c7.38-1.401,15.356-2.535,23.743-3.442l17.214,15.395C257.748,164.847,253.045,166.552,248.531,168.391z M384.327,147.503
		c-24.812,0.751-50.467,1.526-66.9,3.912c-17.762,2.579-32.642,5.548-45.717,9.163l-15.372-13.748
		c44.089-3.652,96.853-1.865,135.124,0.455C389.086,147.359,386.703,147.432,384.327,147.503z"/>
	<path d="M198.833,147.375c-9.833,0-17.833-8-17.833-17.833c0-9.834,8-17.834,17.833-17.834c9.834,0,17.834,8,17.834,17.834
		C216.667,139.375,208.667,147.375,198.833,147.375z M198.833,119.708c-5.422,0-9.833,4.411-9.833,9.834
		c0,5.422,4.411,9.833,9.833,9.833c5.423,0,9.834-4.411,9.834-9.833C208.667,124.119,204.256,119.708,198.833,119.708z"/>
	<circle cx="198.834" cy="129.541" r="5.036"/>
</g>
</svg>