<?xml version="1.0" encoding="iso-8859-1"?>
<!-- Uploaded to: SVG Repo, www.svgrepo.com, Generator: SVG Repo Mixer Tools -->
<!DOCTYPE svg PUBLIC "-//W3C//DTD SVG 1.1//EN" "http://www.w3.org/Graphics/SVG/1.1/DTD/svg11.dtd">
<svg fill="#000000" height="800px" width="800px" version="1.1" id="Capa_1" xmlns="http://www.w3.org/2000/svg" xmlns:xlink="http://www.w3.org/1999/xlink" 
	 viewBox="0 0 425.32 425.32" xml:space="preserve">
<g>
	<path d="M424.712,189.39c-14.095-22.552-36.085-38.461-61.921-44.797l-67.828-16.612c-5.424-1.333-10.363-3.755-14.678-7.197
		c-22.011-17.576-48.566-26.867-76.795-26.867c-26.255,0-51.335,8.175-72.543,23.645c-0.07,0.042-0.142,0.087-0.216,0.138
		c-33.78,22.941-59.947,77.289-75.95,118.842c-12.472,32.404-30.563,62.081-53.77,88.205c-1.467,1.652-1.318,4.18,0.333,5.647
		c1.653,1.469,4.181,1.318,5.647-0.333c20.233-22.777,36.667-48.192,49.016-75.71c10.431,24.713,29.267,44.418,53.825,56.05
		c14.912,7.063,30.786,10.611,46.72,10.61c13.313,0,26.669-2.479,39.528-7.453c8.074-3.127,16.551-4.918,25.194-5.322
		c2.207-0.103,3.912-1.976,3.809-4.183c-0.103-2.207-1.963-3.912-4.183-3.809c-9.507,0.444-18.83,2.414-27.708,5.853
		c-26.179,10.128-54.567,9.089-79.935-2.927c-25.191-11.932-43.889-33.029-52.72-59.458c0.576-1.429,1.155-2.856,1.709-4.295
		c28.199-73.222,55.184-102.974,72.869-115.024c0.13-0.075,0.283-0.172,0.452-0.298c19.849-14.508,43.337-22.177,67.923-22.177
		c26.396,0,51.225,8.686,71.805,25.119c3.024,2.412,6.305,4.396,9.797,5.964c-7.322,6.022-12.783,14.024-15.677,23.169
		c-0.667,2.106,0.5,4.354,2.607,5.02c0.401,0.127,0.808,0.188,1.208,0.188c1.698,0,3.273-1.09,3.813-2.794
		c2.956-9.344,9.109-17.272,17.402-22.491l66.443,16.273c19.234,4.717,36.145,15.205,48.782,30.016
		c-7.456-2.69-17.792-5.898-30.511-8.548c-24.835-5.173-63.763-9.039-108.178,1.92c-2.145,0.529-3.454,2.697-2.925,4.842
		c0.529,2.144,2.694,3.456,4.842,2.925c58.707-14.486,108.157-2.478,131.764,5.638l-82.709,8.271
		c-0.182,0.013-0.364,0.032-0.55,0.055l-0.193,0.021c-9.702,1.057-18.802,3.993-26.934,8.451c-3.351-2.133-6.374-4.726-9.001-7.743
		c-1.45-1.667-3.978-1.84-5.643-0.39c-1.667,1.451-1.841,3.977-0.39,5.643c2.311,2.655,4.879,5.036,7.671,7.126
		c-14.535,10.452-24.963,26.253-28.538,44.88l-13.625,71.18c-0.415,2.169,1.007,4.265,3.177,4.681
		c0.254,0.049,0.507,0.072,0.756,0.072c1.881,0,3.558-1.333,3.924-3.249l13.625-71.178c5.328-27.757,27.77-48.462,55.802-51.516
		l0.45-0.052c0.064-0.003,0.128-0.008,0.192-0.015l99.044-9.904c1.376-0.137,2.583-0.976,3.193-2.218
		C425.52,192.031,425.445,190.563,424.712,189.39z"/>
	<path d="M251.26,169.079c4.92-1.501,8.903-5.068,10.934-9.791c0.331-0.75,0.435-1.608,0.246-2.467
		c-0.157-0.717-0.319-1.346-0.495-1.921c-2.763-9.054-10.973-15.136-20.428-15.136c-2.111,0-4.213,0.315-6.248,0.936
		c-0.576,0.176-1.184,0.391-1.86,0.659c-0.026,0.01-0.053,0.021-0.079,0.032c-0.549,0.229-1.021,0.567-1.4,0.98
		c-0.153,0.166-0.292,0.345-0.416,0.536c-2.804,4.328-3.548,9.64-2.042,14.575c2.256,7.394,8.963,12.361,16.688,12.361
		C247.885,169.843,249.601,169.586,251.26,169.079z M237.125,155.146c-0.693-2.27-0.507-4.687,0.496-6.799
		c1.272-0.387,2.583-0.583,3.896-0.583c5.907,0,11.037,3.799,12.772,9.456c-1.193,2.011-3.094,3.515-5.364,4.208
		c-0.902,0.275-1.832,0.415-2.763,0.415C241.979,161.843,238.348,159.152,237.125,155.146z"/>
</g>
</svg>