<?xml version="1.0" encoding="UTF-8" standalone="no"?>
<!-- Uploaded to: SVG Repo, www.svgrepo.com, Generator: SVG Repo Mixer Tools -->

<svg
   fill="#000000"
   height="148mm"
   width="105mm"
   version="1.1"
   id="Capa_1"
   viewBox="0 0 229.8106 323.92352"
   xml:space="preserve"
   sodipodi:docname="bird_8.svg"
   inkscape:version="1.2.2 (b0a84865, 2022-12-01)"
   xmlns:inkscape="http://www.inkscape.org/namespaces/inkscape"
   xmlns:sodipodi="http://sodipodi.sourceforge.net/DTD/sodipodi-0.dtd"
   xmlns="http://www.w3.org/2000/svg"
   xmlns:svg="http://www.w3.org/2000/svg"><defs
   id="defs526" /><sodipodi:namedview
   id="namedview524"
   pagecolor="#ffffff"
   bordercolor="#666666"
   borderopacity="1.0"
   inkscape:showpageshadow="2"
   inkscape:pageopacity="0.0"
   inkscape:pagecheckerboard="0"
   inkscape:deskcolor="#d1d1d1"
   showgrid="false"
   inkscape:zoom="1.5146346"
   inkscape:cx="341.99668"
   inkscape:cy="403.39762"
   inkscape:window-width="1440"
   inkscape:window-height="920"
   inkscape:window-x="0"
   inkscape:window-y="25"
   inkscape:window-maximized="0"
   inkscape:current-layer="Capa_1"
   inkscape:document-units="mm" />
<g
   id="g521"
   transform="matrix(0,0.57981246,0.57981246,0,-19.46753,28.266606)">
	<path
   d="m 461.572,360.087 c -22.648,-18.816 -60.982,-35.363 -113.947,-49.186 -22.111,-5.77 -42.299,-9.832 -55.812,-12.294 10.886,-7.989 28.758,-23.441 25.46,-36.792 -0.767,-3.108 -2.715,-5.744 -5.385,-7.373 19.826,-19.595 28.359,-35.959 25.352,-48.652 -0.747,-3.154 -2.705,-5.382 -5.514,-6.271 -2.062,-0.652 -4.293,-0.486 -6.52,0.153 3.272,-7.224 5.597,-14.141 6.937,-20.708 4.731,-23.183 1.667,-41.254 -7.451,-43.947 -1.876,-0.552 -8.335,-1.508 -12.637,9.482 -0.998,2.55 -1.995,5.279 -3.05,8.169 -0.123,0.337 -0.249,0.681 -0.374,1.023 -0.244,-11.657 -0.954,-26.538 -2.794,-40.464 -0.069,-0.527 -7.306,-52.273 -21.632,-52.273 -0.117,0 -0.237,0.003 -0.355,0.011 -6.901,0.41 -9.836,10.388 -10.133,34.437 -0.129,10.415 -0.733,20.518 -1.676,30.198 -2.555,-11.361 -6.199,-25.758 -10.756,-39.005 -0.174,-0.506 -17.837,-50.588 -31.934,-46.85 -6.681,1.773 -7.576,12.135 -3.088,35.763 2.345,12.347 3.921,24.384 4.923,35.877 -2.808,-8.276 -6.103,-17.187 -9.75,-25.58 -0.213,-0.491 -21.755,-49.034 -35.515,-44.198 -6.521,2.293 -6.6,12.692 -0.27,35.896 4.218,15.463 7.151,30.524 9.16,44.661 -4.895,-10.517 -11.462,-23.689 -18.665,-35.565 -0.278,-0.459 -28.173,-45.661 -41.15,-39.006 -6.153,3.151 -4.828,13.467 4.573,35.604 7.353,17.315 12.879,34.258 17.04,49.978 -7.925,-9.23 -19.413,-21.953 -31.227,-32.779 C 116.323,92.095 105.977,84.325 96.995,79.079 82.087,70.37 77.276,72.278 74.956,74.473 c -5.024,4.748 -0.865,14.279 14.358,32.9 17.214,21.055 30.554,42.424 40.615,61.273 -9.119,-8.356 -18.577,-16.176 -28.291,-23.352 -6.421,-4.743 -12.552,-8.975 -18.223,-12.578 -0.453,-0.288 -45.496,-28.428 -54.181,-16.712 -4.117,5.554 1.645,14.212 19.888,29.885 11.843,10.175 22.451,20.673 31.864,30.985 -5.936,-2.877 -11.589,-5.423 -16.918,-7.617 -0.497,-0.205 -49.757,-20.053 -56.261,-6.997 -3.084,6.187 4.101,13.705 24.801,25.952 12.571,7.439 24.854,15.775 36.768,24.938 -3.736,-0.94 -7.334,-1.775 -10.772,-2.496 -0.524,-0.11 -52.569,-10.649 -56.589,3.371 -1.905,6.646 6.53,12.729 29.115,21 5.527,2.024 11.048,4.216 16.555,6.554 -11.323,2.569 -49.152,12.106 -47.641,24.486 0.837,6.861 10.979,9.173 34.997,7.979 5.327,-0.262 10.721,-0.398 16.158,-0.417 -2.362,1.078 -4.63,2.154 -6.775,3.224 -0.391,0.194 -39.022,19.573 -34.234,31.226 1.116,2.717 3.601,4.081 7.973,4.081 4.77,0 11.787,-1.626 21.718,-4.895 3.332,-1.097 6.717,-2.12 10.13,-3.102 3.373,2.584 11.011,5.991 27.844,5.991 3.007,0 6.309,-0.11 9.931,-0.351 4.18,4.654 17.199,15.036 47.761,10.671 4.245,-0.604 7.558,0.435 10.428,3.276 13.906,13.767 10.825,62.999 8.464,80.807 -0.29,2.19 1.25,4.201 3.439,4.491 0.178,0.023 0.355,0.035 0.531,0.035 1.975,0 3.693,-1.462 3.96,-3.474 0.368,-2.774 8.799,-68.171 -10.764,-87.542 -4.667,-4.622 -10.449,-6.479 -17.19,-5.514 -18.312,2.618 -29.131,-0.577 -35.091,-3.86 3.124,-0.383 6.428,-0.846 9.935,-1.405 2.182,-0.348 3.668,-2.398 3.32,-4.58 -0.348,-2.181 -2.391,-3.663 -4.58,-3.32 -24.217,3.861 -37.836,3.041 -45.284,1.428 10.177,-2.44 20.632,-4.401 31.293,-5.827 2.19,-0.293 3.728,-2.306 3.435,-4.495 -0.293,-2.189 -2.309,-3.725 -4.495,-3.435 -17.139,2.292 -33.789,5.899 -49.598,10.722 -0.536,-3.435 -2.463,-6.412 -4.673,-8.702 2.861,-1.692 5.964,-3.398 9.315,-5.065 5.954,-2.97 14.809,-6.844 22.636,-9.937 3.3,0.161 6.606,0.356 9.918,0.604 0.102,0.007 0.203,0.011 0.303,0.011 2.073,0 3.827,-1.6 3.984,-3.701 0.165,-2.203 -1.487,-4.123 -3.69,-4.288 -15.528,-1.164 -30.981,-1.386 -45.944,-0.669 0.285,-4.381 -1.439,-8.852 -3.12,-12.076 5.972,-1.924 12.822,-3.749 20.305,-5.212 2.473,-0.488 5.136,-0.961 8.071,-1.44 11.262,5.292 22.43,11.199 33.405,17.719 0.641,0.381 1.344,0.563 2.039,0.563 1.365,0 2.695,-0.699 3.443,-1.958 1.128,-1.899 0.477,-4.31 -1.396,-5.481 -22.281,-13.942 -54.515,-27.134 -64.065,-30.632 -1.05,-0.385 -2.053,-0.76 -3.014,-1.126 2.249,-2.736 4.62,-6.536 5.432,-11.016 6.232,0.558 13.227,1.547 20.662,3.112 8.43,1.767 17.857,4.237 28.021,7.336 6.297,5.381 12.478,10.991 18.519,16.836 0.776,0.751 1.779,1.125 2.781,1.125 1.046,0 2.091,-0.407 2.875,-1.219 1.536,-1.588 1.495,-4.12 -0.093,-5.656 -21.305,-20.613 -44.267,-38.465 -68.307,-53.125 4.305,-2.338 8.3,-5.976 9.491,-11.17 3.469,1.178 7.075,2.52 10.775,4.043 10.174,4.19 21.599,9.718 33.959,16.422 11.789,14.423 21.103,27.884 28.017,38.818 0.761,1.204 2.059,1.863 3.385,1.863 0.73,0 1.47,-0.2 2.134,-0.62 1.867,-1.181 2.424,-3.651 1.243,-5.519 -13.55,-21.431 -36.117,-52.358 -68.344,-81.547 4.087,-1.349 8.423,-4.32 11.144,-10.581 2.155,1.246 4.347,2.569 6.566,3.979 5.513,3.504 11.489,7.629 17.76,12.262 15.355,11.343 30.075,24.315 43.767,38.552 4.363,9.516 7.699,17.79 10.11,24.236 0.601,1.607 2.126,2.6 3.747,2.6 0.465,0 0.939,-0.082 1.4,-0.254 2.069,-0.774 3.12,-3.079 2.346,-5.148 -8.282,-22.149 -27.184,-65.298 -61.243,-107.538 3.852,-1.068 7.91,-3.439 10.919,-7.996 3.877,2.976 7.938,6.351 12.044,10.114 20.797,19.058 40.656,44.245 40.854,44.497 0.004,0.005 0.01,0.009 0.014,0.015 4.676,21.608 6.755,39.824 7.671,51.859 0.16,2.1 1.913,3.696 3.984,3.696 0.102,0 0.205,-0.004 0.308,-0.012 2.203,-0.167 3.853,-2.089 3.685,-4.292 -1.762,-23.167 -7.724,-68.739 -27.802,-117.763 0.713,0.082 1.45,0.129 2.203,0.129 1.368,0 2.791,-0.154 4.225,-0.529 2.677,-0.701 5.027,-2.059 7.043,-4.03 2.378,3.353 4.783,6.988 7.145,10.881 14.629,24.119 27.38,54.227 28.216,55.967 3.126,39.472 -0.507,67.124 -0.564,67.541 -0.299,2.188 1.231,4.205 3.42,4.505 0.184,0.025 0.367,0.038 0.548,0.038 1.967,0 3.682,-1.452 3.958,-3.456 0.087,-0.632 8.228,-62.353 -9.928,-133.905 0.532,0.031 1.069,0.053 1.613,0.053 4.212,0 8.712,-1.007 12.052,-3.986 1.859,3.571 3.706,7.412 5.479,11.491 9.395,21.617 16.446,46.865 18.557,54.768 0.184,40.498 -5.77,68.547 -5.861,68.964 -0.47,2.158 0.897,4.289 3.056,4.76 0.287,0.063 0.574,0.093 0.856,0.093 1.839,0 3.495,-1.275 3.904,-3.146 0.136,-0.623 13.076,-61.404 0.652,-134.075 1.847,0.358 3.943,0.625 6.125,0.625 2.856,0 5.847,-0.456 8.577,-1.745 1.293,3.148 2.556,6.476 3.756,9.962 6.726,19.55 11.437,41.752 13.495,52.342 0.533,2.743 1.136,6.225 1.617,8.662 -7.676,47.089 -21.669,79.353 -21.86,79.786 -0.89,2.021 0.027,4.382 2.049,5.272 0.524,0.231 1.072,0.341 1.61,0.341 1.537,0 3.002,-0.891 3.662,-2.388 0.255,-0.579 24.619,-56.669 27.221,-129.495 3.321,2.004 7.349,3.541 11.67,3.541 1.178,0 2.378,-0.122 3.59,-0.371 0.415,2.389 0.797,4.851 1.132,7.386 3.384,25.623 2.859,54.667 2.739,59.601 -6.067,13.766 -15.085,30.784 -30.576,52.471 -1.284,1.798 -0.868,4.296 0.93,5.58 1.797,1.285 4.295,0.867 5.58,-0.93 20.186,-28.26 29.659,-48.796 35.819,-64.58 1.234,1.122 2.73,2.151 4.548,2.879 1.746,0.7 3.579,1.049 5.491,1.049 1.016,0 2.057,-0.107 3.117,-0.305 -0.312,2.286 -0.719,4.72 -1.251,7.324 -6.994,34.271 -42.499,70.833 -42.856,71.198 -1.545,1.578 -1.52,4.11 0.058,5.656 0.779,0.763 1.79,1.144 2.8,1.144 1.037,0 2.073,-0.401 2.856,-1.2 0.382,-0.389 9.471,-9.701 19.591,-23.594 2.393,-3.284 4.618,-6.522 6.695,-9.716 0.503,1.053 1.138,2.094 1.964,3.075 1.967,2.337 4.592,3.92 7.826,4.758 -11.858,18.253 -36.632,38.166 -48.541,46.48 -1.812,1.265 -2.255,3.758 -0.991,5.569 0.777,1.114 2.021,1.711 3.284,1.711 0.79,0 1.588,-0.233 2.285,-0.72 0.565,-0.395 12.059,-8.817 25.102,-20.192 1.29,-1.125 2.567,-0.693 3.121,-0.407 0.98,0.504 1.732,1.478 2.011,2.605 2.145,8.684 -15.449,24.315 -28.949,32.917 -3.731,-0.614 -5.846,-0.923 -5.929,-0.935 -1.037,-0.149 -2.092,0.113 -2.937,0.733 l -21.959,16.104 c -0.977,0.716 -1.576,1.836 -1.631,3.045 -0.054,1.21 0.442,2.379 1.35,3.18 l 12.443,10.979 c 0.731,0.646 1.672,1.001 2.646,1.001 1.101,0 2.194,0.01 3.289,0.017 -12.273,15.629 -14.417,37.652 -4.544,55.552 9.603,17.412 17.28,34.83 17.356,35.004 0.659,1.499 2.125,2.392 3.664,2.392 0.538,0 1.084,-0.109 1.607,-0.339 2.022,-0.889 2.941,-3.249 2.053,-5.271 -0.078,-0.177 -7.892,-17.91 -17.676,-35.648 -9.374,-16.997 -5.879,-38.413 8.203,-51.508 102.738,2.819 178.352,35.714 179.137,36.061 0.523,0.231 1.073,0.342 1.615,0.342 0.014,0 0.027,0 0.041,0 2.201,-0.01 3.982,-1.797 3.982,-4 -0.003,-1.355 -0.674,-2.55 -1.7,-3.274 z M 35.397,300.304 c -9.254,2.944 -14.074,3.716 -16.493,3.842 1.996,-2.422 6.413,-6.314 12.784,-10.646 1.78,1.445 4.07,3.918 3.709,6.804 z M 27.08,266.308 c -11.616,0.179 -16.452,-0.867 -18.352,-1.552 2.075,-1.973 7.645,-5.017 15.696,-8.109 1.638,2.917 3.249,6.925 2.656,9.661 z m -4.1,-43.125 c -7.931,-3.464 -11.169,-5.781 -12.459,-6.976 2.687,-1.011 9.035,-1.644 17.698,-1.345 -0.945,3.578 -3.509,6.607 -5.239,8.321 z m 9.251,-44.556 c -11.33,-7.045 -15.172,-10.949 -16.457,-12.673 3.769,-0.673 13.801,0.499 26.748,4.228 -0.737,5.183 -7.307,7.606 -10.291,8.445 z m 26.415,-40.058 c -2.084,0.671 -4.071,0.617 -5.165,0.506 -12.352,-10.708 -15.99,-15.938 -17.047,-18.042 0.003,0 0.006,0 0.01,0 4.192,0 15.355,3.471 29.03,10.568 -1.433,3.612 -3.711,5.966 -6.828,6.968 z M 91.233,96.917 C 83.862,87.316 81.751,82.653 81.164,80.682 c 3.374,0.595 10.951,4.302 20.301,10.776 -3.12,4.993 -7.856,5.54 -10.232,5.459 z m 61.895,-20.771 c -3.196,0.853 -6.601,-0.389 -8.291,-1.17 -4.84,-12.188 -5.61,-17.551 -5.621,-19.684 3.301,1.628 10.254,8.066 18.085,18.054 -1.198,1.442 -2.574,2.372 -4.173,2.8 z m 39.63,-3.032 c -3.926,-14.938 -3.99,-21.031 -3.693,-23.309 3.038,2.05 9.021,9.313 15.403,20.188 -2.453,4.196 -8.493,3.724 -11.71,3.121 z M 233.7,71.732 c -2.748,-15.229 -2.334,-21.317 -1.858,-23.566 3.065,2.438 9.017,11.079 14.909,23.73 -4.014,2.069 -9.98,0.754 -13.051,-0.164 z m 48.041,22.132 c 0.299,-15.99 1.951,-22.011 2.877,-24.151 2.708,3.223 7.26,14.128 10.611,29.325 -5.921,1.279 -11.313,-3.085 -13.488,-5.174 z m 38.228,68.026 c -2.21,-0.866 -3.602,-2.857 -4.305,-4.14 0.29,-0.79 0.576,-1.571 0.855,-2.335 1.04,-2.846 2.021,-5.534 2.986,-7.998 1.285,-3.283 2.547,-4.453 3.012,-4.683 1.353,0.724 4.244,6.536 3.796,18.804 -2.449,0.914 -4.58,1.041 -6.344,0.352 z m 1.586,56.916 c -1.934,-2.269 -1.848,-5.682 -1.711,-7.107 5.357,-4.208 8.765,-4.861 9.408,-4.602 0.029,0.035 0.123,0.201 0.203,0.538 0.968,4.085 0.061,8.74 -2.137,13.668 -2.614,-0.256 -4.563,-1.09 -5.763,-2.497 z m -46.465,85.072 c 7.056,1.092 36.448,5.875 70.514,14.766 10.367,2.705 20.204,5.541 29.486,8.489 -20.348,-5.22 -39.19,-8.583 -54.83,-10.74 -24.343,-3.357 -44.075,-4.343 -55.967,-4.596 z M 262.7,319.8 c 16.093,0.32 49.183,2.046 88.344,10.051 -25.4,-4.115 -54.115,-6.999 -84.988,-7.091 z"
   id="path517" />
	<path
   d="m 232.334,285.427 c -7.034,0 -14.785,8.991 -16.993,11.747 -1.171,1.462 -1.171,3.54 0,5.002 2.208,2.756 9.959,11.747 16.993,11.747 7.854,0 12.956,-10.507 13.898,-12.613 0.465,-1.04 0.465,-2.229 0,-3.27 -0.943,-2.106 -6.045,-12.613 -13.898,-12.613 z m 0,20.496 c -1.752,0 -5.451,-2.95 -8.563,-6.248 3.112,-3.299 6.811,-6.248 8.563,-6.248 1.458,0 4.03,3.083 5.776,6.25 -1.73,3.128 -4.331,6.246 -5.776,6.246 z"
   id="path519" />
</g>
<plotdata
   application="axidraw"
   model="2"
   layer="-2"
   node="0"
   last_path="0"
   node_after_path="0"
   last_known_x="0"
   last_known_y="0"
   paused_x="0"
   paused_y="0"
   randseed="0"
   row="0"
   id="1673543569" /></svg>
