<?xml version="1.0" encoding="iso-8859-1"?>
<!-- Uploaded to: SVG Repo, www.svgrepo.com, Generator: SVG Repo Mixer Tools -->
<!DOCTYPE svg PUBLIC "-//W3C//DTD SVG 1.1//EN" "http://www.w3.org/Graphics/SVG/1.1/DTD/svg11.dtd">
<svg fill="#000000" height="800px" width="800px" version="1.1" id="Capa_1" xmlns="http://www.w3.org/2000/svg" xmlns:xlink="http://www.w3.org/1999/xlink" 
	 viewBox="0 0 344.8 344.8" xml:space="preserve">
<g>
	<path d="M180.243,76C180.243,76,180.243,76,180.243,76c3.977,0,6.799-0.419,6.917-0.437c1.746-0.264,3.112-1.641,3.362-3.389
		c0.086-0.603,1.888-14.855-17.284-23.161c-1.762-0.763-3.56-1.15-5.343-1.15c-5.808,0-10.884,4.171-12.344,10.143
		c-1.421,5.813,1.149,11.383,6.549,14.192C168.142,75.34,175.301,76,180.243,76z M180.244,68L180.244,68
		c-2.23,0-4.99-0.167-7.788-0.704c0.534-1.924,1.741-4.486,4.424-6.9c3.327,2.723,4.747,5.519,5.333,7.564
		C181.609,67.985,180.948,68,180.244,68z M163.323,59.905c0.491-2.009,2.22-4.042,4.572-4.042c0.584,0,1.202,0.128,1.838,0.367
		c-2.618,2.887-4.034,5.861-4.8,8.332C162.936,63.072,163.041,61.055,163.323,59.905z"/>
	<path d="M341.52,209.534l-1.829-1.894c-27.013-27.969-77.294-80.031-81.139-133.652c-2.629-36.67-44.836-66.47-92.109-65.045
		c-21.511,0.642-53.597,4.363-84.298,18.445c-35.361,16.22-60.029,42.056-73.319,76.79c-12.457,32.561-11.725,78.689,2.179,137.105
		c10.288,43.226,24.388,77.512,24.528,77.853c0.845,2.042,3.188,3.012,5.226,2.167c2.041-0.844,3.011-3.184,2.167-5.225
		c-0.14-0.336-14.029-34.13-24.165-76.761C5.453,183.35,4.601,137.608,16.299,107.037C28.813,74.327,52.09,49.976,85.48,34.66
		c29.482-13.523,60.431-17.101,81.201-17.721c20.565-0.615,41.482,5.357,57.418,16.382c15.956,11.039,25.358,25.685,26.473,41.239
		c0.764,10.654,3.219,21.198,6.884,31.487l-7.524,1.272l-17.874-17.874c-1.199-1.199-3.025-1.512-4.558-0.776
		c-1.53,0.734-2.431,2.356-2.246,4.043c0.029,0.267,2.77,26.867-9.921,42.219c-5.25,6.352-12.571,9.948-21.758,10.689
		c-1.226,0.099-2.337,0.755-3.015,1.781c-0.679,1.025-0.848,2.305-0.459,3.471c0.373,1.12,0.304,3.838-0.012,6.779
		c-4.824-2.093-12.553-4.857-21.027-5.575c-0.332-0.028-24.61-1.413-48.044-8.237c-20.776-6.05-45.936-17.77-47.803-39.245
		c-0.586-6.735,1.965-13.784,7.184-19.848c5.153-5.99,12.443-10.255,18.141-10.614c2.204-0.139,3.879-2.039,3.74-4.244
		c-0.14-2.205-2.067-3.87-4.243-3.741c-7.949,0.501-17.031,5.627-23.702,13.38c-6.636,7.711-9.863,16.859-9.09,25.76
		c3.007,34.577,50.933,47.494,80.169,52.171c-5.718,3.851-10.157,9.646-13.231,17.329c-8.079,20.197,17.354,45.939,49.555,78.53
		c23.595,23.881,50.338,50.949,68.782,80.695c0.757,1.221,2.064,1.893,3.403,1.893c0.719,0,1.447-0.194,2.104-0.601
		c1.878-1.164,2.456-3.63,1.292-5.507c-18.919-30.513-45.999-57.92-69.891-82.102c-28.949-29.3-53.95-54.604-47.817-69.936
		c3.343-8.357,8.557-13.839,15.498-16.295c3.731-1.321,7.705-1.71,11.601-1.534c0.133,0.009,0.256,0.016,0.364,0.023
		c11.555,0.629,22.34,6.149,23.981,7.024l41.17,31.2c29.078,22.036,65.167,33.062,101.584,31.033
		c4.594-0.255,8.491-3.074,10.171-7.355C345.661,217.57,344.719,212.848,341.52,209.534z M336.532,218.934
		c-0.199,0.507-1.016,2.17-3.167,2.29c-34.53,1.911-68.739-8.53-96.309-29.422l-39.462-29.905c0.369-2.318,0.796-5.711,0.746-8.809
		c9.538-1.596,17.322-5.987,23.181-13.087c9.477-11.485,11.67-27.441,11.982-37.795l12.23,12.23
		c0.915,0.916,2.218,1.331,3.495,1.115l11.173-1.889c17.185,41.187,52.339,77.589,73.534,99.535l1.826,1.891
		C337.265,216.646,336.731,218.426,336.532,218.934z"/>
	<path d="M263.172,147.445l-12-6.667c-1.933-1.073-4.366-0.377-5.439,1.554c-1.072,1.931-0.377,4.367,1.555,5.439l12,6.667
		c0.615,0.342,1.281,0.504,1.938,0.504c1.406,0,2.77-0.742,3.501-2.058C265.799,150.953,265.103,148.517,263.172,147.445z"/>
</g>
</svg>