<?xml version="1.0" encoding="iso-8859-1"?>
<!-- Uploaded to: SVG Repo, www.svgrepo.com, Generator: SVG Repo Mixer Tools -->
<!DOCTYPE svg PUBLIC "-//W3C//DTD SVG 1.1//EN" "http://www.w3.org/Graphics/SVG/1.1/DTD/svg11.dtd">
<svg fill="#000000" height="800px" width="800px" version="1.1" id="Capa_1" xmlns="http://www.w3.org/2000/svg" xmlns:xlink="http://www.w3.org/1999/xlink" 
	 viewBox="0 0 395.372 395.372" xml:space="preserve">
<g>
	<path d="M376.59,130.624c-11.409-17.418-25.504-39.641-27.979-43.547c-2.405-11.391-8.327-21.703-17.028-29.46
		c-10.078-8.983-23.029-13.931-36.468-13.931c-8.679,0-17.053,2.037-24.57,5.804c-2.76-1.632-8.168-4.476-16.17-7.126
		c-10.767-3.565-28.604-7.482-52.458-5.912c-26.592,1.754-55.155,9.842-84.896,24.039C80.07,78.129,41.142,105.323,1.318,141.318
		c-1.639,1.481-1.767,4.011-0.285,5.65c0.79,0.873,1.877,1.317,2.968,1.317c0.957,0,1.916-0.341,2.681-1.032
		c39.04-35.286,77.127-61.955,113.206-79.266c28.735-13.788,56.249-21.694,81.777-23.5c22.613-1.596,39.458,1.988,49.606,5.277
		c4.817,1.562,8.619,3.205,11.38,4.564c-3.704,2.729-7.1,5.928-10.075,9.59l-0.425,0.529c-3.732,4.709-4.446,10.995-1.863,16.405
		c2.637,5.524,8.101,8.994,14.259,9.055c6.31,0.062,12.392,1.364,18.027,3.804c-2.815-0.481-5.541-0.653-7.954-0.653
		c-4.576,0-7.877,0.601-8.015,0.626c-1.119,0.208-2.097,0.882-2.689,1.854c-3.784,6.218-3.666,13.856,0.326,20.958
		c5.037,8.963,14.863,14.754,25.034,14.754c5.113,0,10.081-1.41,14.766-4.192c1.164-0.691,1.899-1.924,1.955-3.276
		c0.132-3.236-0.076-6.236-0.605-9.002c1.944,3.684,3.403,7.643,4.321,11.824c1.624,7.396,8.019,12.563,15.553,12.563
		c0.001,0,0.001,0,0.001,0c4.64,0,8.856-1.992,11.873-5.608c0.813-0.975,1.606-1.994,2.357-3.03
		c5.771-7.972,9.21-17.299,10.087-27.016c5.423,8.498,12.74,19.907,19.322,29.979c-0.998,2.949-2.749,8.581-3.389,13.525
		c-10.258-0.636-25.555,2.739-29.713,3.715c-3.319-0.597-6.762-0.988-10.335-1.11c-2.229-0.054-4.059,1.655-4.133,3.862
		c-0.075,2.208,1.654,4.059,3.862,4.134c5.796,0.196,11.253,1.193,16.336,2.73c-1.44,4.099-5.7,6.221-5.899,6.317
		c-1.376,0.646-2.267,2.015-2.301,3.534s0.797,2.926,2.143,3.631c1.449,0.759,3.049,1.473,4.747,2.146
		c-33.031,24.012-58.308,36.628-63.406,34.597c-11.15-4.46-51.424-56.203-48.832-87.961c0.18-2.201-1.459-4.132-3.662-4.312
		c-2.191-0.191-4.132,1.458-4.312,3.661c-2.77,33.942,37.212,87.818,52.891,95.609c1.083,8.477,5.559,57.977-30.156,100.133
		c-9.152,10.804-16.871,22.877-22.941,35.884c-0.935,2.002-0.069,4.382,1.933,5.316c0.547,0.255,1.122,0.376,1.689,0.376
		c1.506,0,2.948-0.854,3.627-2.31c5.77-12.362,13.103-23.834,21.796-34.095c36.032-42.529,33.711-90.975,32.231-104.398
		c6.556-1.081,17.648-5.667,38.1-18.625c13.492-8.548,26.034-17.626,30.366-20.807c11.831,3.278,24.837,5.047,29.245,5.588
		c4.209,4.514,6.493,7.798,6.563,7.901c0.747,1.1,1.988,1.753,3.309,1.753c0.061,0,0.121-0.001,0.182-0.004
		c1.388-0.063,2.644-0.842,3.317-2.058C392.715,191.233,405.28,167.544,376.59,130.624z M269.951,101.301
		c1.162-0.122,2.786-0.242,4.669-0.242c1.446,0,3.028,0.069,4.664,0.254c-4.154,4.497-6.232,8.943-7.244,12.578
		c-0.297-0.437-0.578-0.875-0.825-1.314C269.038,108.7,268.607,104.687,269.951,101.301z M289.276,123.25
		c-3.785,0-7.236-1.113-10.162-2.819c-0.058-2.077,0.422-8.971,8.424-16.009c0.24-0.211,0.44-0.45,0.617-0.7
		c1.827,0.883,3.533,2.033,4.982,3.542c3.137,3.268,4.779,7.952,4.894,13.945C295.189,122.566,292.252,123.25,289.276,123.25z
		 M333.017,125.835c-0.644,0.889-1.323,1.763-2.021,2.598c-1.47,1.763-3.505,2.733-5.729,2.733c0,0,0,0-0.001,0
		c-3.064-0.001-6.793-1.966-7.739-6.278c-2.679-12.206-9.231-22.831-18.949-30.726c-9.716-7.894-21.457-12.132-33.951-12.255
		c-3.126-0.03-5.788-1.714-7.119-4.501c-1.275-2.672-0.934-5.659,0.909-7.985l0.364-0.453c8.923-10.983,22.166-17.282,36.334-17.282
		c11.473,0,22.534,4.228,31.145,11.903C343.921,79.332,346.889,106.675,333.017,125.835z M368.447,174.993
		c-7.184-1.244-16.121-3.124-23.265-5.686c1.52-1.613,2.961-3.674,3.869-6.192C356.581,166.369,363.097,170.673,368.447,174.993z
		 M387.055,181.77c-6.202-7.192-18.065-18.856-34.614-25.994c6.404-0.869,12.567-1.233,15.794-0.311
		c1.283,0.367,2.662,0.07,3.681-0.791c1.018-0.86,1.541-2.172,1.394-3.497c-0.234-2.101,0.487-5.812,1.46-9.457
		C387.426,160.41,388.182,174.209,387.055,181.77z"/>
	<path d="M224.002,190.953c1.77,0,3.388-1.184,3.863-2.974c0.567-2.136-0.704-4.326-2.839-4.894
		c-0.399-0.105-39.935-10.995-42.371-45.086c-2.465-34.517,21.954-52.378,22.995-53.121c1.797-1.278,2.222-3.77,0.948-5.57
		c-1.275-1.805-3.772-2.232-5.576-0.956c-1.191,0.843-29.142,21.086-26.347,60.218c1.181,16.527,9.965,30.827,25.403,41.354
		c11.434,7.796,22.431,10.771,22.893,10.895C223.317,190.909,223.663,190.953,224.002,190.953z"/>
</g>
</svg>