<?xml version="1.0" encoding="iso-8859-1"?>
<!-- Uploaded to: SVG Repo, www.svgrepo.com, Generator: SVG Repo Mixer Tools -->
<!DOCTYPE svg PUBLIC "-//W3C//DTD SVG 1.1//EN" "http://www.w3.org/Graphics/SVG/1.1/DTD/svg11.dtd">
<svg fill="#000000" height="800px" width="800px" version="1.1" id="Capa_1" xmlns="http://www.w3.org/2000/svg" xmlns:xlink="http://www.w3.org/1999/xlink" 
	 viewBox="0 0 390.978 390.978" xml:space="preserve">
<path d="M352.133,159.489c-16.463-38.737-118.8-87.389-133.939-94.414c-2.279-7.862-12.816-36.727-48.815-56.527
	c-24.451-13.448-48.931-8.557-65.159-2.085c-19.35,7.715-38.053,22.397-50.03,39.275C41.58,63.506,36.546,84.621,39.226,108.5
	c3.045,27.132,16.157,57.037,38.973,88.883c18.987,26.502,21.401,56.61,7.176,89.488C74.58,311.82,57.769,329.076,57.6,329.247
	c-1.549,1.573-1.53,4.104,0.043,5.655c0.779,0.768,1.793,1.151,2.808,1.151c1.033,0,2.066-0.398,2.849-1.192
	c0.726-0.736,17.904-18.332,29.319-44.588c15.312-35.216,12.574-68.948-7.916-97.549c-22.01-30.722-34.636-59.359-37.527-85.117
	c-2.454-21.865,2.101-41.123,13.537-57.239c11.122-15.671,28.494-29.307,46.47-36.475c3.101-1.236,6.537-2.408,10.228-3.377
	c4.174,6.128,16.237,22.141,35.115,33.662c-5.331,2.303-9.074,7.608-9.074,13.775c0,8.271,6.729,15,15,15s15-6.729,15-15
	c0-1.409-0.209-2.768-0.574-4.061c21.989,10.865,23.441,31.853,23.507,35.988c-2.785,7.694-4.67,17.089-4.209,28.073
	c-11.641,0.105-25.32,0.552-27.725,0.514c-15.637-0.249-48.041-3.682-58.341-27.028c-0.891-2.021-3.254-2.935-5.273-2.045
	c-2.021,0.892-2.938,3.253-2.046,5.274c6.688,15.156,21.904,25.415,44.007,29.667c1.287,0.248,2.56,0.467,3.815,0.664
	c-2.498,2.029-4.64,4.532-6.302,7.452c-4.228,7.429-4.613,16.151-1.057,23.93c15.679,34.301,41.88,99.091,41.196,147.617
	c0,0.037,0,0.074,0,0.112c0.006,0.37,0.26,37.51-21.749,81.063c-0.996,1.972-0.205,4.378,1.767,5.375
	c0.578,0.292,1.194,0.431,1.801,0.431c1.461,0,2.869-0.804,3.573-2.197c22.654-44.832,22.633-82.423,22.608-84.724
	c0.686-50.085-25.968-116.103-41.921-151.003c-2.474-5.412-2.206-11.479,0.734-16.646c2.94-5.167,8.021-8.496,13.938-9.132
	c13.43-1.445,27.924-1.857,43.082-1.226c46.79,1.95,141.774,38.368,142.729,38.736c1.501,0.578,3.199,0.202,4.314-0.953
	C352.443,162.679,352.76,160.968,352.133,159.489z M333.002,146.262c-22.583-13.261-66.369-34.88-130.583-49
	c3.504-12.729,10.066-21.057,13.25-24.53c7.702,3.614,32.035,15.288,57.566,30.209C300.609,118.937,320.811,133.613,333.002,146.262
	z M126.01,8.76c12.003-1.745,25.813-0.737,39.513,6.799c11.747,6.461,20.557,14.016,27.139,21.372
	c-1.705,2.586-6.604,8.012-18.008,8.957c-1.219-0.553-2.478-1.083-3.799-1.578C148.185,35.807,132.518,17.522,126.01,8.76z
	 M158.451,64.953c-3.859,0-7-3.14-7-7s3.141-7,7-7s7,3.14,7,7S162.31,64.953,158.451,64.953z M184.891,51.938
	c6.518-2.21,10.587-5.764,12.98-8.661c7.771,10.384,11.216,19.541,12.449,23.463c-1.878,1.992-4.941,5.594-8.025,10.713
	C199.984,69.573,195.109,59.675,184.891,51.938z M200.181,117.951c-0.215-4.609,0.025-8.905,0.599-12.87
	c48.358,10.65,85.233,25.872,109.73,38.209c-32.291-10.79-77.146-24.034-105.892-25.232
	C203.331,118.003,201.828,117.97,200.181,117.951z"/>
</svg>