<?xml version="1.0" encoding="iso-8859-1"?>
<!-- Uploaded to: SVG Repo, www.svgrepo.com, Generator: SVG Repo Mixer Tools -->
<!DOCTYPE svg PUBLIC "-//W3C//DTD SVG 1.1//EN" "http://www.w3.org/Graphics/SVG/1.1/DTD/svg11.dtd">
<svg version="1.1" id="Capa_1" xmlns="http://www.w3.org/2000/svg" xmlns:xlink="http://www.w3.org/1999/xlink" 
	 viewBox="0 0 452 452" xml:space="preserve">
<g>
	<path d="M451.654,170.419c-0.628-1.408-2.01-2.331-3.552-2.37l-17.659-0.447c-9.273-19.402-22.852-34.063-35.726-44.631
		c-24.038-19.732-49.459-28.944-57.068-31.412c-2.915-9.171-18.556-39.019-99.936-51.613c-45.349-7.018-86.648,0.149-119.427,20.727
		c-31.296,19.648-54.184,50.883-66.188,90.326C29.431,225.47,0.82,275.609,0.534,276.107c-1.102,1.915-0.443,4.36,1.472,5.462
		c0.629,0.361,1.315,0.534,1.992,0.534c1.384,0,2.73-0.72,3.47-2.006c0.291-0.505,29.334-51.37,52.283-126.77
		c11.436-37.574,33.147-67.271,62.789-85.881c31.125-19.54,70.528-26.317,113.949-19.596c73.28,11.341,89.588,36.549,93.002,44.727
		c-7.364,3.781-25.148,14.666-35.238,35.763c-0.953,1.992-0.11,4.381,1.882,5.334c0.557,0.267,1.145,0.393,1.723,0.393
		c1.492,0,2.925-0.839,3.611-2.275c9.783-20.454,28.198-30.43,33.124-32.805c3.606,1.16,13.971,4.763,26.683,11.476l-43.979,44.678
		c-5.211-0.659-10.508-1.158-15.906-1.45c-2.214-0.113-4.091,1.572-4.21,3.778s1.572,4.091,3.778,4.21
		c3.672,0.198,7.288,0.509,10.869,0.883c-4.031,6.761-9.737,18.797-9.334,32.171c-6.597-2.332-10.509-4.139-10.662-4.211
		c-1.997-0.941-4.381-0.085-5.323,1.913s-0.087,4.38,1.91,5.322c0.704,0.333,5.654,2.627,13.594,5.37
		c-5.222,14.988-13.769,36.164-20.282,51.905c-7.992,19.312-11.06,40.513-8.87,61.311l9.973,94.744
		c0.216,2.055,1.952,3.581,3.973,3.581c0.14,0,0.281-0.007,0.424-0.022c2.197-0.23,3.791-2.199,3.559-4.396l-9.973-94.744
		c-2.05-19.477,0.822-39.33,8.306-57.414c6.579-15.901,15.218-37.314,20.504-52.511c13.26,3.987,31.565,7.995,51.609,7.995
		c15.048,0,31.071-2.268,46.655-8.492c11.47,11.768,20.007,25.302,24.243,38.859c0.552,1.768,2.242,2.93,4.096,2.797
		c1.849-0.129,3.367-1.511,3.668-3.339c3.502-21.215,2.22-39.693-2.039-55.677c4.67-3.928,9.106-8.309,13.181-13.08
		C452.044,173.473,452.282,171.828,451.654,170.419z M310.703,197.428c-1.682-14.791,6.622-28.861,9.922-33.776
		c27.825,4.125,52.466,13.722,72.079,28.187c3.053,2.251,5.969,4.64,8.765,7.121C367.97,210.906,331.976,203.89,310.703,197.428z
		 M433.728,226.899c-7.939-15.444-20.44-29.82-36.276-41.5c-19.408-14.313-43.408-24.073-70.374-28.789l41.446-42.106
		c6.901,4.053,14.203,8.954,21.316,14.814C421.322,155.253,436.043,188.022,433.728,226.899z M435.297,179.381
		c-0.435-1.246-0.887-2.475-1.357-3.687l5.116,0.129C437.827,177.046,436.573,178.232,435.297,179.381z"/>
	<path d="M227.391,98.885c-9.917,0-21.974,2.535-35.837,7.535c-1.204,0.435-2.127,1.418-2.484,2.647
		c-0.357,1.229-0.104,2.554,0.68,3.565c14.453,18.648,30.042,28.104,46.336,28.104c3.945,0,7.87-0.581,11.667-1.727
		c4.613-1.391,8.419-4.684,10.444-9.033c2.005-4.309,2.078-9.284,0.199-13.65C254.97,108.369,246.811,98.885,227.391,98.885z
		 M199.638,112.105c5.23-1.693,10.122-2.97,14.663-3.841c-2.31,3.842-3.91,8.729-3.655,14.566
		C206.938,119.899,203.266,116.326,199.638,112.105z M250.943,126.601c-1.063,2.285-3.069,4.017-5.502,4.751
		c-3.046,0.919-6.194,1.385-9.356,1.385c-5.471,0-10.906-1.346-16.28-4.018c-4.145-12.975,3.822-19.931,6.437-21.802
		c0.381-0.008,0.775-0.032,1.149-0.032c12.097,0,20.056,4.24,23.655,12.604C252.04,121.798,252.003,124.323,250.943,126.601z"/>
</g>
<path style="stroke:#000000;stroke-width:8;stroke-linecap:round;stroke-linejoin:round;stroke-miterlimit:10;" d="M252.974,128.004
	c0.133-0.662,0.203-1.353,0.203-2.063c0-4.936-3.398-8.937-7.59-8.937c-0.196,0-0.391,0.009-0.584,0.026"/>
</svg>