<svg version="1.1" id="Layer_1" xmlns="http://www.w3.org/2000/svg" xmlns:xlink="http://www.w3.org/1999/xlink" x="0px" y="0px"
	 width="100%" viewBox="0 0 564 798" enable-background="new 0 0 564 798" xml:space="preserve">
<path fill="none" opacity="1.000000" stroke="#000000" stroke-linecap="round" stroke-linejoin="round" stroke-width="3.000000"
	d="
M274.500000,306.500000 
	C276.467926,308.798401 278.073242,311.483734 281.496887,312.019867 
	C288.135193,313.059387 293.410339,307.402527 290.856873,301.057617 
	C287.911743,293.739563 289.235199,286.344788 289.162689,278.998383 
	C289.132172,275.905884 289.727356,272.672455 290.066315,269.507111 
	C290.877075,261.935822 295.229340,257.218903 302.494843,254.983292 
	C319.860321,249.639877 336.211548,241.554642 353.503998,236.012497 
	C363.142334,232.923462 372.249481,228.252930 382.492371,226.940475 
	C394.524353,225.398804 408.206512,232.515366 410.981750,247.503372 
	C411.801178,251.928864 406.417358,261.124420 401.500000,264.000000 
	C394.593048,268.039062 383.395569,265.848236 378.500000,259.500000 
	C376.247314,256.578796 376.479462,251.471268 379.000031,248.500015 
	C381.708496,245.307236 384.552063,245.165039 389.215027,248.137054 
	C387.472534,250.772552 387.182129,253.634094 389.558411,255.939819 
	C391.234955,257.566589 393.313049,258.756622 396.019745,257.544098 
	C399.193695,256.122284 399.840088,253.574356 400.029663,250.501831 
	C400.390411,244.656403 398.284424,240.364807 393.025879,237.453262 
	C387.404572,234.340851 378.916443,235.118118 373.490845,239.488647 
	C362.652802,248.219055 362.713287,263.746155 375.098328,272.358612 
	C391.741730,283.932312 411.284241,278.075806 418.729401,260.386108 
	C427.382141,239.827316 415.560486,220.011993 394.993927,215.025070 
	C391.203156,214.105911 387.507507,214.067947 383.470947,214.850037 
	C361.793365,219.050156 340.753845,225.181900 320.496399,233.991684 
	C306.539886,240.061279 292.231506,245.378876 277.452942,248.796524 
	C263.428040,252.039886 249.019241,254.171005 234.506287,252.926620 
	C219.740952,251.660599 205.547440,247.542862 191.541046,242.876785 
	C190.767883,242.619217 189.616592,241.914948 188.864380,240.576202 
	C184.104416,232.104813 180.272156,234.673584 174.577377,238.611893 
	C170.098694,241.709213 167.547577,246.424789 166.392105,251.977554 
	C165.645859,255.563736 166.564377,258.188019 169.017563,260.481232 
	C171.643341,262.935791 174.837494,262.375549 177.444153,260.901245 
	C181.298492,258.721313 184.980103,256.068878 186.500000,251.500000 
"/>
<path fill="none" opacity="1.000000" stroke="#000000" stroke-linecap="round" stroke-linejoin="round" stroke-width="4.000000"
	d="
M345.500000,489.500000 
	C348.000000,490.171265 350.693665,490.583893 352.956299,489.415375 
	C356.701050,487.481476 359.794647,484.556824 359.926086,479.997864 
	C360.046234,475.828003 356.252258,474.276520 353.443665,472.594055 
	C347.704315,469.155884 341.640686,468.614929 336.022186,473.028259 
	C330.946472,477.015167 328.954865,485.809235 330.963348,492.510986 
	C334.506378,504.333252 342.982880,510.594604 354.529938,512.296814 
	C361.089600,513.263794 367.365692,510.014832 372.403381,505.882202 
	C377.765991,501.483002 382.746277,496.491852 384.126190,489.023315 
	C384.432678,487.364410 386.333374,486.000031 387.500031,484.500031 
"/>
<path fill="none" opacity="1.000000" stroke="#000000" stroke-linecap="round" stroke-linejoin="round" stroke-width="5.000000"
	d="
M341.500000,384.500000 
	C346.414856,381.118011 348.280121,375.803162 349.374939,370.474304 
	C350.916199,362.972748 349.079376,355.477875 348.059235,347.991943 
	C346.744843,338.346954 339.637878,334.287567 331.968781,331.074493 
	C317.428314,324.982574 302.489349,328.507050 292.008514,340.007782 
	C291.608368,340.446869 291.360901,341.021179 290.995728,341.496704 
	C287.613007,345.901520 284.000275,349.116302 277.958099,345.571411 
	C275.151703,343.924927 271.613678,344.674011 268.466858,344.240509 
	C259.471832,343.001373 253.549850,336.978943 247.088486,331.887695 
	C243.065979,328.718140 239.208145,327.543823 234.016754,327.226135 
	C223.566818,326.586578 215.227585,329.895203 208.000549,337.000580 
	C207.496338,337.496277 207.084122,338.156952 206.487518,338.476715 
	C195.676636,344.270905 193.519424,355.157776 191.737869,365.540802 
	C190.074173,375.237030 194.219147,383.937805 201.570740,390.419769 
	C209.543152,397.449066 218.434799,402.822388 229.474777,404.201874 
	C233.224762,404.670410 236.677078,403.767365 239.952103,403.215668 
	C247.786209,401.896027 255.735992,401.211945 263.491455,399.462067 
	C267.263855,398.610901 270.856323,399.117889 274.503693,399.984406 
	C277.485565,400.692841 280.237976,401.251556 283.575836,400.253662 
	C286.732117,399.309998 289.924225,402.271362 292.919586,403.671967 
	C296.750885,405.463409 300.023865,408.467377 303.494934,411.006927 
	C310.265717,415.960876 309.897278,424.182129 312.405945,431.034424 
	C314.833191,437.664337 312.234497,444.760162 313.207825,451.469849 
	C313.979584,456.790161 312.536713,460.544159 308.995758,463.995636 
	C307.670044,465.287872 307.144836,467.353058 305.914673,468.399719 
	C299.853088,473.556946 298.494354,479.852997 299.324188,487.519043 
	C299.890625,492.751740 298.692047,498.529510 299.138794,503.441895 
	C299.649231,509.054932 300.764679,516.253296 306.951233,520.324158 
	C311.042114,523.016052 314.500031,526.657227 318.533783,529.451233 
	C327.666046,535.776611 337.879578,534.563721 347.995148,532.969116 
	C363.677795,530.497070 375.100189,521.281677 385.104919,509.589783 
	C387.891144,506.333710 390.411011,502.356079 395.000000,501.000000 
"/>
<path fill="none" opacity="1.000000" stroke="#000000" stroke-linecap="round" stroke-linejoin="round" stroke-width="3.000000"
	d="
M201.500000,469.000000 
	C206.175690,468.853027 208.461823,467.157867 208.957367,462.994934 
	C209.415146,459.149445 208.046066,456.463409 204.030960,454.919495 
	C196.480453,452.016174 185.623520,457.031677 184.191895,465.034332 
	C183.655624,468.031982 181.054413,470.847168 183.377457,474.576324 
	C186.753372,479.995667 189.393753,486.126495 195.083771,489.352234 
	C199.737091,491.990204 205.468979,491.873383 210.457367,490.359528 
	C220.514389,487.307404 230.134476,483.329590 234.115433,472.040710 
	C234.890335,469.843292 236.513062,467.587616 239.000000,466.500000 
"/>
<path fill="none" opacity="1.000000" stroke="#000000" stroke-linecap="round" stroke-linejoin="round" stroke-width="3.000000"
	d="
M183.000000,258.000000 
	C188.919922,261.297058 195.748016,260.857147 202.040466,261.696686 
	C219.084732,263.970764 236.167328,266.600769 253.502747,266.093903 
	C258.418518,265.950134 263.256775,265.427673 267.978668,264.401794 
	C274.429199,263.000397 278.104248,266.662872 278.004822,272.000092 
	C277.973816,273.666168 277.846466,275.350739 278.032867,276.996277 
	C278.389648,280.145630 276.223816,280.983459 274.001892,280.926331 
	C265.453552,280.706573 257.434143,282.012390 250.482040,287.477142 
	C248.361206,289.144226 246.096664,290.708466 243.451920,288.047791 
	C242.954422,287.547302 241.731796,287.334106 241.016068,287.552612 
	C235.320572,289.291534 229.664948,291.161346 224.001175,293.003601 
	C222.532974,293.481201 221.740662,294.609497 221.023987,296.658752 
	C225.184723,299.458588 227.610565,303.678009 228.016800,308.998718 
	C228.318802,312.954285 227.063828,316.695221 226.356125,320.473053 
	C225.979691,322.482635 225.514267,324.446808 225.500000,326.500000 
"/>
<path fill="none" opacity="1.000000" stroke="#000000" stroke-linecap="round" stroke-linejoin="round" stroke-width="6.000000"
	d="
M363.000000,552.000000 
	C359.226868,551.212952 356.539795,548.350037 353.089447,546.800781 
	C346.193665,543.704529 339.441589,544.637756 332.498962,545.491638 
	C313.708557,547.802612 298.334015,558.219299 281.936096,566.371460 
	C268.653839,572.974670 255.260941,571.195679 242.507782,563.986267 
	C241.664230,563.509399 241.282288,562.574890 240.006790,562.437195 
	C230.501480,561.410522 228.476700,552.951965 224.548203,546.470764 
	C223.059311,544.014404 221.936996,541.818604 218.516205,541.375000 
	C215.079224,540.929138 213.069763,537.460388 209.997498,536.005310 
	C200.875031,531.684692 192.171661,529.293030 181.812805,534.096252 
	C176.020493,536.782166 168.333328,538.965393 161.500000,534.500000 
"/>
<path fill="none" opacity="1.000000" stroke="#000000" stroke-linecap="round" stroke-linejoin="round" stroke-width="4.000000"
	d="
M395.500000,422.500000 
	C396.164642,421.167358 396.298462,419.875397 394.493469,419.534637 
	C391.895386,419.044128 389.595032,420.030701 388.042480,422.032928 
	C385.333130,425.527008 387.275879,434.071198 391.249969,437.000031 
	C394.806549,439.621063 401.326538,438.535065 404.522949,435.020874 
	C409.097198,429.991882 411.183441,415.908783 406.548157,409.465363 
	C403.335602,404.999695 400.883057,400.106445 395.541107,397.418335 
	C388.337036,393.793152 381.185730,394.476562 376.047607,400.540344 
	C369.621033,408.124725 366.155853,416.897522 365.325287,426.985626 
	C364.848328,432.778900 366.123688,438.330627 365.963806,443.998993 
	C365.859955,447.681305 368.124298,449.951233 370.571594,451.910583 
	C371.940796,453.006927 373.710480,454.014252 374.882904,455.123718 
	C384.771606,464.481537 395.555267,461.658997 406.504211,458.012634 
	C406.804260,457.912689 407.356934,458.138855 407.472778,457.980133 
	C414.597900,448.216309 423.682800,439.501373 423.566406,425.999420 
	C423.511871,419.669434 424.098022,413.327942 424.594177,407.007385 
	C424.650818,406.286133 425.059479,405.791901 424.531372,404.979614 
	C421.180054,399.824829 419.357880,393.206970 414.338837,389.732819 
	C408.908630,385.974030 403.817322,381.394012 397.467957,379.088196 
	C395.848236,378.500000 393.768555,378.689240 392.011566,379.055450 
	C385.482574,380.416351 379.000000,382.000000 372.500000,383.500000 
"/>
<path fill="none" opacity="1.000000" stroke="#000000" stroke-linecap="round" stroke-linejoin="round" stroke-width="4.000000"
	d="
M206.000000,565.500000 
	C201.838074,559.778625 199.712280,559.875244 194.889908,566.143066 
	C196.085342,568.748779 197.158096,571.479614 199.487411,573.514404 
	C202.047501,575.750916 207.943481,576.339600 210.500000,574.500000 
	C215.946945,570.580566 217.363312,567.208435 214.956207,562.522522 
	C211.289734,555.384949 205.995407,549.767151 198.497696,546.505310 
	C193.296402,544.242432 184.482468,546.434326 181.598755,551.061523 
	C180.598068,552.667175 179.015152,554.773010 180.549728,556.965210 
	C181.056290,557.688782 181.162704,558.409912 180.959259,558.985596 
	C178.904648,564.799500 182.756378,568.563232 186.095306,571.904785 
	C193.749146,579.564453 202.458069,585.305481 213.996216,585.633118 
	C219.156586,585.779724 223.923355,585.075562 228.478134,582.953064 
	C231.977005,581.322571 232.517654,577.990601 232.511536,574.500000 
	C232.503876,570.113647 232.187073,565.681824 234.000000,561.500000 
"/>
<path fill="none" opacity="1.000000" stroke="#000000" stroke-linecap="round" stroke-linejoin="round" stroke-width="5.000000"
	d="
M348.000000,297.000000 
	C344.992065,311.164032 347.494232,323.991364 355.880096,336.083160 
	C364.118896,347.962952 374.544067,357.076660 387.032471,363.940918 
	C394.207397,367.884613 401.852570,367.983917 409.500000,365.000000 
"/>
<path fill="none" opacity="1.000000" stroke="#000000" stroke-linecap="round" stroke-linejoin="round" stroke-width="5.000000"
	d="
M408.000000,458.500000 
	C410.213837,464.015442 408.886719,469.851776 409.324524,475.513580 
	C410.039948,484.765900 412.468353,492.615295 420.991302,497.515137 
	C421.908875,498.042664 422.706085,498.779602 423.747467,499.560669 
	C429.780884,498.214844 430.036713,492.412659 431.916962,487.964905 
	C432.889404,485.664612 432.965637,482.992523 433.507721,480.501678 
	C434.408905,476.360901 434.985382,472.208618 437.417725,468.446808 
	C440.498352,463.682373 441.149475,457.845703 441.744812,452.471741 
	C442.473969,445.889954 444.222656,439.408386 443.225708,432.467590 
	C442.113464,424.724243 439.734650,417.728638 436.041168,410.977478 
	C434.599365,408.342010 434.050964,405.665558 435.403351,402.459229 
	C438.846069,394.296844 437.295746,386.785461 430.950317,380.550568 
	C429.026398,378.660126 428.976196,376.990540 429.391876,374.482086 
	C430.537109,367.570465 424.896790,356.248474 418.968140,353.059235 
	C417.677185,352.364807 415.982208,352.421326 414.031769,352.047333 
	C412.155548,347.187408 411.002075,341.939423 409.161835,336.940430 
	C403.349304,321.150848 391.815430,310.588593 378.462952,301.554779 
	C374.204681,298.673767 367.421844,303.868683 366.987671,309.999115 
	C366.591705,315.589447 368.802185,320.505920 371.595306,324.939972 
	C376.907318,333.372681 383.915894,340.272278 392.487122,345.521057 
	C396.276337,347.841553 399.615570,347.000244 401.500000,343.000000 
	C404.857147,335.873383 400.224701,328.071320 392.000000,327.000000 
	C390.593597,329.302734 389.595764,331.714417 390.000000,334.500000 
"/>
<path fill="none" opacity="1.000000" stroke="#000000" stroke-linecap="round" stroke-linejoin="round" stroke-width="3.000000"
	d="
M298.000000,504.000000 
	C294.357849,502.102264 291.139648,500.027679 288.326141,496.644592 
	C282.623566,489.787415 274.255096,489.742279 265.998993,489.962280 
	C250.881821,490.365112 239.676559,498.558655 228.972473,507.968689 
	C226.317474,510.302734 224.809647,512.591370 224.247040,516.463257 
	C223.228271,523.474426 221.095917,530.274597 222.399017,537.518188 
	C222.615677,538.722534 221.499969,540.166687 220.999969,541.500000 
"/>
<path fill="none" opacity="1.000000" stroke="#000000" stroke-linecap="round" stroke-linejoin="round" stroke-width="5.000000"
	d="
M273.000000,436.500000 
	C273.000000,435.833344 273.155823,435.119904 272.972260,434.508331 
	C272.282349,432.209686 273.390564,428.806854 269.982849,428.080475 
	C266.613892,427.362305 264.681519,430.446259 263.694580,432.589600 
	C261.951416,436.375275 260.599854,440.360199 261.339935,445.025391 
	C262.513367,452.421997 273.510101,456.969971 279.545563,451.550720 
	C285.170654,446.499939 287.640839,441.132660 287.438782,432.989105 
	C287.223480,424.308563 283.197266,418.818817 276.842407,415.835693 
	C270.421570,412.821625 263.133331,411.368774 255.404205,414.783142 
	C246.768661,418.597931 241.746735,424.717041 237.874512,432.940918 
	C232.774170,443.773041 236.223816,454.224915 238.826859,464.416504 
	C240.190704,469.756348 246.306946,472.800995 251.030655,475.954071 
	C261.717407,483.087585 273.463989,483.218353 285.495056,480.478241 
	C289.643219,479.533508 293.626587,477.799652 298.000000,478.000000 
"/>
<path fill="none" opacity="1.000000" stroke="#000000" stroke-linecap="round" stroke-linejoin="round" stroke-width="4.000000"
	d="
M368.000000,562.500000 
	C367.166656,563.500000 365.595856,564.521912 365.624786,565.496277 
	C365.767090,570.288025 362.512573,572.913940 359.450684,575.440247 
	C353.743408,580.149170 348.206451,585.174500 341.475922,588.450562 
	C339.126862,589.593933 336.476471,590.931396 334.004456,590.855408 
	C326.817871,590.634338 320.100922,593.650269 313.000885,593.466370 
	C306.779144,593.305237 300.739105,592.276917 295.496399,588.505005 
	C288.627441,583.563171 288.013184,578.501221 292.419922,570.953247 
	C297.227936,562.718079 305.677338,561.047974 313.552155,558.672913 
	C318.590759,557.153259 324.112701,557.224426 329.502045,557.451172 
	C333.692444,557.627502 337.611176,558.045044 339.477295,562.509460 
	C340.693359,565.418640 338.742889,573.231628 335.484100,574.970215 
	C330.480377,577.639771 325.442352,579.732361 319.448456,577.648254 
	C317.507172,576.973267 316.573364,576.352844 316.521027,574.499390 
	C316.466980,572.584961 316.050018,570.400208 318.506866,569.519165 
	C320.553711,568.785217 322.091156,566.852112 324.500000,567.000000 
"/>
<path fill="none" opacity="1.000000" stroke="#000000" stroke-linecap="round" stroke-linejoin="round" stroke-width="5.000000"
	d="
M173.000000,407.500000 
	C177.333328,407.634033 181.666672,407.115173 186.369186,408.192169 
	C185.392517,401.976532 186.842239,396.528534 186.536957,390.997955 
	C186.108841,383.242004 183.889755,376.219543 178.470795,370.527802 
	C174.245605,366.089966 170.632675,361.227051 167.533875,355.980011 
	C166.326599,353.935760 165.516464,351.658875 164.496765,349.501526 
	C161.926575,344.063965 159.255692,343.396423 155.029831,347.530487 
	C147.597748,354.801147 143.326157,363.993134 139.445343,373.477631 
	C134.413239,385.775848 132.215454,398.848236 128.430084,411.479034 
	C127.754677,413.732697 129.111633,415.176666 129.728775,417.211914 
	C126.732117,420.674347 122.997551,423.328522 122.688065,428.982941 
	C122.424736,433.793854 123.283119,437.991272 126.634026,440.305969 
	C132.669785,444.475464 133.751312,448.607880 131.466751,456.490356 
	C130.803665,458.778198 130.280441,461.733643 127.006813,461.427216 
	C123.301811,461.080475 124.112297,457.943848 124.000000,455.500000 
"/>
<path fill="none" opacity="1.000000" stroke="#000000" stroke-linecap="round" stroke-linejoin="round" stroke-width="5.000000"
	d="
M271.500000,299.500000 
	C269.130219,299.445862 267.347992,301.065826 265.566925,302.113770 
	C258.783234,306.105042 259.220886,316.788147 266.590790,319.776031 
	C270.291992,321.276581 273.959778,323.309937 278.002869,323.982758 
	C290.640259,326.085693 303.294861,325.359344 315.439545,321.794037 
	C324.591461,319.107300 330.981659,312.619598 332.502869,302.500427 
	C332.900604,299.854584 331.777924,297.588013 330.435638,295.542236 
	C329.475769,294.079224 327.887085,293.025696 328.000000,291.000000 
"/>
<path fill="none" opacity="1.000000" stroke="#000000" stroke-linecap="round" stroke-linejoin="round" stroke-width="4.000000"
	d="
M260.500000,343.000000 
	C258.985474,345.597321 260.642365,347.788086 261.529480,349.988098 
	C266.605774,362.577362 259.552246,380.358093 246.950104,384.860321 
	C239.410080,387.554077 231.433502,388.214813 224.250000,383.000000 
"/>
<path fill="none" opacity="1.000000" stroke="#000000" stroke-linecap="round" stroke-linejoin="round" stroke-width="3.000000"
	d="
M303.500000,519.000000 
	C301.792114,521.393372 301.159393,524.055847 300.955383,526.996887 
	C299.636749,546.008179 279.886902,553.973877 264.485077,548.542297 
	C259.866913,546.913696 255.654831,544.742065 252.004059,541.495422 
	C250.602264,540.248840 249.104385,540.227173 247.500000,541.000000 
"/>
<path fill="none" opacity="1.000000" stroke="#000000" stroke-linecap="round" stroke-linejoin="round" stroke-width="3.000000"
	d="
M266.500000,531.500000 
	C273.579590,529.786377 274.740082,523.693237 273.828003,519.033691 
	C273.060516,515.112976 268.699371,514.575439 265.482422,514.125671 
	C258.382111,513.133057 252.296997,516.171753 248.140060,521.607117 
	C244.236832,526.710632 245.794846,532.576965 248.500076,537.999939 
	C248.832794,538.666931 249.166672,539.333313 249.500000,540.000000 
"/>
<path fill="none" opacity="1.000000" stroke="#000000" stroke-linecap="round" stroke-linejoin="round" stroke-width="3.000000"
	d="
M130.500000,418.000000 
	C135.611511,423.525452 137.113403,430.734619 139.462143,437.513123 
	C142.610855,446.600433 142.859100,455.998901 142.040421,465.503479 
	C141.635971,470.199280 137.578339,482.616455 135.029587,486.519318 
	C132.907822,489.768402 134.314331,493.504822 134.136795,497.006927 
	C134.104752,497.639130 134.331772,498.666992 134.500000,499.500000 
"/>
<path fill="none" opacity="1.000000" stroke="#000000" stroke-linecap="round" stroke-linejoin="round" stroke-width="5.000000"
	d="
M232.000000,581.500000 
	C239.519440,587.977051 249.150314,587.417297 258.032715,588.787964 
	C264.037354,589.714600 270.228455,590.628174 276.519531,589.622253 
	C281.273529,588.862000 285.841827,587.987061 290.000000,585.500000 
"/>
<path fill="none" opacity="1.000000" stroke="#000000" stroke-linecap="round" stroke-linejoin="round" stroke-width="6.000000"
	d="
M363.500000,393.500000 
	C360.963684,394.140808 359.340118,396.171844 358.078674,398.052765 
	C347.853729,413.298248 333.302917,417.400299 315.989868,415.075562 
	C313.396118,414.727234 310.666656,413.643188 308.000000,415.000000 
"/>
<path fill="none" opacity="1.000000" stroke="#000000" stroke-linecap="round" stroke-linejoin="round" stroke-width="3.000000"
	d="
M160.500000,408.000000 
	C162.056107,406.301147 163.220139,404.284058 162.916855,402.011108 
	C162.641113,399.944611 163.336334,397.300171 160.022049,396.417236 
	C156.968689,395.603760 155.120895,396.371552 153.459198,398.973938 
	C150.213943,404.056305 150.632690,409.487640 151.515106,414.997589 
	C152.142548,418.915436 155.890106,419.917480 158.531281,420.255920 
	C162.820755,420.805664 167.309052,419.959564 169.526062,415.011688 
	C172.956635,407.355438 176.510941,399.625000 174.400787,391.024353 
	C172.735367,384.236237 168.900116,378.412445 162.951797,374.574707 
	C156.926346,370.687134 150.741669,373.269470 145.007065,381.504913 
	C141.554047,386.463776 140.256943,392.260834 139.048737,398.010254 
	C137.360107,406.045807 137.498901,414.114471 140.029114,421.990662 
	C141.839218,427.625275 144.152466,433.155457 147.610306,437.919952 
	C150.484802,441.880707 154.540070,444.490387 160.006241,444.083862 
	C162.302078,443.913116 164.666672,444.666687 167.000000,445.000000 
"/>
<path fill="none" opacity="1.000000" stroke="#000000" stroke-linecap="round" stroke-linejoin="round" stroke-width="4.000000"
	d="
M126.500000,441.000000 
	C117.331123,446.832611 117.854729,456.017334 118.595474,464.992126 
	C119.153290,471.750519 121.295120,478.172974 124.972702,484.017181 
	C127.014061,487.261200 129.718689,488.681122 133.500000,488.000000 
"/>
<path fill="none" opacity="1.000000" stroke="#000000" stroke-linecap="round" stroke-linejoin="round" stroke-width="5.000000"
	d="
M366.000000,447.500000 
	C363.247772,447.456360 360.675415,447.492615 357.930786,446.140503 
	C353.066589,443.744141 347.589050,444.891724 342.518860,445.629608 
	C334.027649,446.865356 325.535400,448.549866 318.949738,454.948273 
	C317.868011,455.999298 316.207428,456.622284 314.500000,456.500000 
"/>
<path fill="none" opacity="1.000000" stroke="#000000" stroke-linecap="round" stroke-linejoin="round" stroke-width="3.000000"
	d="
M158.000000,509.000000 
	C160.993607,507.220093 161.784027,504.633759 160.474991,501.510468 
	C158.947144,497.865051 157.087036,494.622253 152.511200,493.926361 
	C149.595703,493.482971 146.837646,496.415741 146.487991,499.498627 
	C145.698273,506.461639 152.780396,517.121216 159.499985,519.000000 
	C165.988907,520.814270 172.346191,515.351685 174.723999,508.578644 
	C178.362595,498.214142 170.548386,492.469940 166.939362,485.029419 
	C164.506500,480.013794 159.467529,478.866150 154.496902,478.018188 
	C151.012985,477.423859 147.500000,476.999969 144.000000,476.499969 
"/>
<path fill="none" opacity="1.000000" stroke="#000000" stroke-linecap="round" stroke-linejoin="round" stroke-width="3.000000"
	d="
M329.500000,366.500000 
	C329.844879,359.467255 325.427795,354.956116 318.489899,355.166016 
	C308.880157,355.456787 307.636505,362.876709 304.029266,368.518707 
	C301.035095,373.201721 303.050537,377.879150 304.500000,382.500000 
"/>
<path fill="none" opacity="1.000000" stroke="#000000" stroke-linecap="round" stroke-linejoin="round" stroke-width="3.000000"
	d="
M234.500000,440.000000 
	C229.666794,438.277618 227.179596,433.629425 223.069366,430.895721 
	C215.590637,425.921631 207.755417,424.068604 198.994980,425.976929 
	C198.199402,426.150238 197.333115,425.987762 196.500031,426.001892 
	C189.782150,426.115845 183.829880,427.600311 179.403534,433.426697 
	C176.940872,436.668274 173.565918,439.240814 170.483490,441.981415 
	C166.553497,445.475586 166.667557,450.640472 165.136597,455.047455 
	C162.858124,461.606171 162.184113,468.512909 163.421661,475.513855 
	C163.640106,476.749664 162.833328,478.166656 162.500000,479.500000 
"/>
<path fill="none" opacity="1.000000" stroke="#000000" stroke-linecap="round" stroke-linejoin="round" stroke-width="5.000000"
	d="
M399.500000,509.500000 
	C385.535065,515.101624 378.033508,526.571167 371.929504,539.466614 
	C369.837097,543.887207 367.618622,548.410400 363.381866,551.468140 
	C363.774292,552.356689 364.329559,553.147278 364.468018,554.005188 
	C365.232788,558.744324 367.102844,562.335022 372.490234,563.071533 
	C373.888580,563.262756 375.166656,564.333313 376.500000,565.000000 
"/>
<path fill="none" opacity="1.000000" stroke="#000000" stroke-linecap="round" stroke-linejoin="round" stroke-width="3.000000"
	d="
M220.500000,296.000000 
	C219.666672,296.166656 218.793488,296.585815 218.006058,296.461609 
	C208.299347,294.930145 199.903122,299.709717 191.018021,302.067902 
	C189.721497,302.412018 188.427963,303.467041 187.537720,304.531525 
	C180.370026,313.101990 172.381104,320.982208 166.878189,330.932617 
	C164.295532,335.602600 164.833542,340.925354 162.500000,345.500000 
"/>
<path fill="none" opacity="1.000000" stroke="#000000" stroke-linecap="round" stroke-linejoin="round" stroke-width="3.000000"
	d="
M241.500000,363.500000 
	C240.520264,363.886292 240.013580,362.702271 240.069031,362.521118 
	C241.926102,356.453217 237.131409,354.167999 233.406189,352.175385 
	C229.533356,350.103821 225.364975,351.885620 222.024139,354.530487 
	C215.769913,359.481812 213.092972,366.019073 219.031662,376.482025 
	C220.143585,378.441040 221.666672,380.166656 223.000000,382.000000 
"/>
<path fill="none" opacity="1.000000" stroke="#000000" stroke-linecap="round" stroke-linejoin="round" stroke-width="4.000000"
	d="
M435.500000,446.000000 
	C435.666656,445.500000 436.088318,444.918549 435.958832,444.513153 
	C435.086975,441.783936 436.504913,437.641052 431.993195,437.052032 
	C427.720459,436.494171 426.556305,440.149139 425.598694,443.032776 
	C423.673004,448.831451 423.489258,454.985992 424.103638,460.989380 
	C424.751007,467.315704 428.898895,470.995239 435.000000,472.500000 
"/>
<path fill="none" opacity="1.000000" stroke="#000000" stroke-linecap="round" stroke-linejoin="round" stroke-width="7.000000"
	d="
M283.500000,348.000000 
	C284.133331,350.991669 282.382568,353.410675 281.458466,355.985077 
	C279.004456,362.821503 278.836426,369.882233 279.004700,376.999878 
	C279.045166,378.711090 279.874084,379.899475 281.500000,380.500000 
"/>
<path fill="none" opacity="1.000000" stroke="#000000" stroke-linecap="round" stroke-linejoin="round" stroke-width="5.000000"
	d="
M191.500000,333.500000 
	C196.355759,329.829254 201.577530,326.494873 203.989227,320.495667 
	C205.360733,317.083954 204.239853,315.492126 200.500214,315.524414 
	C199.332184,315.534485 198.079208,315.612518 197.013672,316.034515 
	C187.439301,319.826538 181.353363,326.977478 178.059677,336.520599 
	C176.682175,340.511780 179.683685,344.721191 184.002197,345.487579 
	C187.833038,346.167450 191.849976,345.779297 195.500000,347.500000 
"/>
<path fill="none" opacity="1.000000" stroke="#000000" stroke-linecap="round" stroke-linejoin="round" stroke-width="3.000000"
	d="
M177.000000,502.000000 
	C184.536057,504.308624 191.033997,509.021881 198.942673,510.760712 
	C203.264145,511.710815 207.496536,511.913239 211.459930,511.257721 
	C215.879578,510.526764 219.855011,511.291382 224.000000,512.000000 
"/>
<path fill="none" opacity="1.000000" stroke="#000000" stroke-linecap="round" stroke-linejoin="round" stroke-width="4.000000"
	d="
M245.500000,290.000000 
	C245.032684,294.794617 241.673553,298.463623 240.470871,302.992249 
	C239.045731,308.358521 238.314789,313.557343 240.353851,319.054230 
	C241.160690,321.229279 240.967697,324.053406 240.000000,326.500000 
"/>
<path fill="none" opacity="1.000000" stroke="#000000" stroke-linecap="round" stroke-linejoin="round" stroke-width="3.000000"
	d="
M463.500000,362.500000 
	C462.200500,370.990631 463.290070,379.290131 465.500000,387.500000 
"/>
<path fill="none" opacity="1.000000" stroke="#000000" stroke-linecap="round" stroke-linejoin="round" stroke-width="3.000000"
	d="
M334.500000,393.500000 
	C326.833344,396.874512 319.166656,396.122009 311.500000,393.500000 
"/>
<path fill="none" opacity="1.000000" stroke="#000000" stroke-linecap="round" stroke-linejoin="round" stroke-width="5.000000"
	d="
M370.500000,301.750000 
	C366.283508,293.231445 358.763916,293.876129 351.561829,295.738983 
	C348.630341,296.497253 347.022858,295.774902 344.999725,294.500427 
	C340.104492,291.416656 335.131226,289.200043 328.973938,290.361816 
	C326.026062,290.918030 323.304382,288.574036 320.506104,287.484314 
	C314.375275,285.096741 308.323669,282.493469 301.498108,282.973145 
	C299.129333,283.139618 296.998901,281.597565 294.487579,281.895111 
	C293.357880,282.028961 293.519592,280.458832 293.500000,279.500000 
"/>
<path fill="none" opacity="1.000000" stroke="#000000" stroke-linecap="round" stroke-linejoin="round" stroke-width="5.000000"
	d="
M383.500000,461.500000 
	C385.222198,468.787872 385.570770,476.356750 388.000000,483.500000 
"/>
<path fill="none" opacity="1.000000" stroke="#000000" stroke-linecap="round" stroke-linejoin="round" stroke-width="3.000000"
	d="
M408.000000,524.000000 
	C404.037445,526.460327 402.048981,531.318420 397.476593,532.933777 
	C395.109833,533.769897 392.340973,536.675476 390.057770,532.964478 
	C388.615845,530.620789 390.772064,526.640015 394.004761,525.009460 
	C394.470367,524.774658 395.000000,524.666687 395.500000,524.500000 
"/>
<path fill="none" opacity="1.000000" stroke="#000000" stroke-linecap="round" stroke-linejoin="round" stroke-width="5.000000"
	d="
M414.000000,352.500000 
	C410.938873,357.709778 410.086731,362.709869 411.616486,369.091919 
	C413.057404,375.103424 416.009369,381.384979 414.000000,388.000000 
"/>
<path fill="none" opacity="1.000000" stroke="#000000" stroke-linecap="round" stroke-linejoin="round" stroke-width="4.000000"
	d="
M186.000000,408.500000 
	C186.059692,414.672791 182.954147,420.760010 185.500000,427.000000 
"/>
<path fill="none" opacity="1.000000" stroke="#000000" stroke-linecap="round" stroke-linejoin="round" stroke-width="2.000000"
	d="
M278.000000,280.500000 
	C278.333344,280.833344 278.978394,281.191010 278.954498,281.496429 
	C278.320465,289.607941 278.936432,297.933838 275.000000,305.500000 
"/>
<path fill="none" opacity="1.000000" stroke="#000000" stroke-linecap="round" stroke-linejoin="round" stroke-width="2.000000"
	d="
M371.500000,473.500000 
	C371.410065,478.455017 367.546661,481.523346 365.500000,485.500000 
"/>
<path fill="none" opacity="1.000000" stroke="#000000" stroke-linecap="round" stroke-linejoin="round" stroke-width="4.000000"
	d="
M429.500000,379.500000 
	C424.373627,382.366852 424.279053,382.637024 426.000000,389.500000 
"/>
<path fill="none" opacity="1.000000" stroke="#000000" stroke-linecap="round" stroke-linejoin="round" stroke-width="5.000000"
	d="
M423.500000,500.000000 
	C423.166656,504.000000 422.622131,507.998322 422.590271,512.000732 
	C422.574677,513.964783 421.637299,515.374512 421.000000,517.000000 
"/>
<path fill="none" opacity="1.000000" stroke="#000000" stroke-linecap="round" stroke-linejoin="round" stroke-width="4.000000"
	d="
M240.000000,364.000000 
	C238.744873,367.833740 236.211044,370.468689 232.500000,372.000000 
"/>
<path fill="none" opacity="1.000000" stroke="#000000" stroke-linecap="round" stroke-linejoin="round" stroke-width="3.000000"
	d="
M235.500000,543.000000 
	C232.511429,542.013733 229.764511,543.081665 227.000000,544.000000 
"/>
<path fill="none" opacity="1.000000" stroke="#000000" stroke-linecap="round" stroke-linejoin="round" stroke-width="2.000000"
	d="
M404.000000,385.500000 
	C402.448761,387.237183 404.887543,389.971893 402.500000,391.500000 
"/>
<path fill="none" opacity="1.000000" stroke="#000000" stroke-linecap="round" stroke-linejoin="round" stroke-width="2.000000"
	d="
M313.500000,515.500000 
	C311.843689,515.770142 310.077454,514.941284 308.500000,516.000000 
"/>
<path fill="none" opacity="1.000000" stroke="#000000" stroke-linecap="round" stroke-linejoin="round" stroke-width="2.000000"
	d="
M272.000000,300.500000 
	C273.520020,301.825317 273.175354,303.896515 274.000000,305.500000 
"/>
<path fill="none" opacity="1.000000" stroke="#000000" stroke-linecap="round" stroke-linejoin="round" stroke-width="2.000000"
	d="
M302.000000,520.000061 
	C300.500000,520.166687 299.000000,520.333374 297.500000,520.500061 
"/>
<path fill="none" opacity="1.000000" stroke="#000000" stroke-linecap="round" stroke-linejoin="round" stroke-width="2.000000"
	d="
M418.500000,348.500000 
	C418.500000,349.833344 418.500000,351.166656 418.500000,352.500000 
"/>
<path fill="none" opacity="1.000000" stroke="#000000" stroke-linecap="round" stroke-linejoin="round" stroke-width="2.000000"
	d="
M160.500000,534.000000 
	C159.575668,532.409302 158.065369,532.381226 156.500000,532.500000 
"/>
<path fill="none" opacity="1.000000" stroke="#000000" stroke-linecap="round" stroke-linejoin="round" stroke-width="2.000000"
	d="
M404.500000,376.500000 
	C404.231781,377.820648 405.058014,379.278076 404.000000,380.500000 
"/>
<path fill="none" opacity="1.000000" stroke="#000000" stroke-linecap="round" stroke-linejoin="round" stroke-width="2.000000"
	d="
M378.000000,461.500000 
	C377.166656,462.833344 376.333313,464.166656 375.500000,465.500000 
"/>
<path fill="none" opacity="1.000000" stroke="#000000" stroke-linecap="round" stroke-linejoin="round" stroke-width="2.000000"
	d="
M346.500000,503.500000 
	C345.333344,504.166656 344.166656,504.833344 343.000000,505.500000 
"/>
<path fill="none" opacity="1.000000" stroke="#000000" stroke-linecap="round" stroke-linejoin="round" stroke-width="2.000000"
	d="
M402.000000,395.000000 
	C401.666656,396.166656 401.333313,397.333344 401.000000,398.500000 
"/>
<path fill="none" opacity="1.000000" stroke="#000000" stroke-linecap="round" stroke-linejoin="round" stroke-width="2.000000"
	d="
M338.000000,507.500000 
	C336.833344,508.166687 335.666656,508.833344 334.500000,509.500000 
"/>
</svg>