<svg version="1.1" id="Layer_1" xmlns="http://www.w3.org/2000/svg" xmlns:xlink="http://www.w3.org/1999/xlink" x="0px" y="0px"
	 width="100%" viewBox="0 0 560 896" enable-background="new 0 0 560 896" xml:space="preserve">
<path fill="#000000" opacity="1.000000" stroke="none" 
	d="
M449.719910,387.840942 
	C459.502625,392.571106 466.750061,398.967773 468.769318,409.878143 
	C469.780487,415.341522 468.388916,420.482269 466.811890,425.581787 
	C463.905945,434.978577 457.719543,442.136536 450.599426,448.558624 
	C447.820404,451.065186 444.518158,452.384094 440.574097,452.347473 
	C435.887054,452.303925 433.969116,454.846771 434.866882,459.397003 
	C435.314941,461.667969 435.838806,463.965393 436.689911,466.107208 
	C438.680389,471.116333 438.525879,475.894501 435.530548,480.409943 
	C434.011078,482.700500 433.925934,484.623230 435.122314,487.280151 
	C441.419312,501.264252 431.954376,519.045898 416.846954,522.295471 
	C407.690155,524.265015 399.158630,523.107605 390.625641,519.109436 
	C378.938873,513.633667 367.071106,519.084045 362.919434,531.210388 
	C362.865479,531.367920 362.791077,531.518616 362.741119,531.677246 
	C360.683380,538.213379 362.358490,543.970398 366.783875,545.577026 
	C373.092133,547.867065 379.972809,545.032837 382.906006,539.047729 
	C384.549408,535.694519 384.528015,531.587463 387.262299,528.787048 
	C389.737854,529.076050 389.944580,530.808228 390.208038,532.446899 
	C392.289856,545.397461 386.826660,557.089722 375.287598,563.750183 
	C369.919617,566.848694 364.075989,568.875671 357.854370,569.524170 
	C348.348053,570.515076 338.194611,563.629395 335.736938,554.415710 
	C334.925507,551.373657 334.367462,548.226562 334.069031,545.091797 
	C332.948395,533.321045 324.166168,527.526367 312.703156,531.098877 
	C307.945160,532.581726 304.048584,535.158020 301.078827,539.263733 
	C289.214233,555.666809 273.121155,562.190796 253.194305,559.300110 
	C239.024368,557.244568 230.063049,548.693054 227.117538,534.717590 
	C226.812927,533.272217 226.553421,531.817383 226.317230,530.595886 
	C224.730194,529.411194 223.497711,530.240479 222.285873,530.631531 
	C212.273956,533.862244 203.682251,530.412720 197.730545,520.738770 
	C192.598755,512.397522 193.854095,502.782135 200.972061,495.655487 
	C203.611053,493.013245 206.849396,491.333771 210.126236,489.666290 
	C215.108093,487.131195 215.352768,483.894257 211.030899,480.156799 
	C207.233047,476.872528 203.072784,474.133026 198.813278,471.501099 
	C195.487625,469.446228 193.055664,470.133057 191.675934,473.674469 
	C189.731277,478.665985 186.697449,482.016235 181.119278,483.129517 
	C177.463425,483.859131 175.496246,487.044495 173.989304,490.334442 
	C168.140884,503.102722 158.047150,509.991821 144.273514,511.858063 
	C140.712326,512.340576 137.252319,512.463013 134.226379,510.197723 
	C131.263992,507.980042 128.759277,509.864288 126.348801,511.088562 
	C118.643051,515.002197 110.904190,515.884949 102.809593,512.314331 
	C99.077415,510.668030 95.773865,508.450378 93.072304,505.475891 
	C87.825134,499.698608 87.855057,492.449097 93.411171,484.461304 
	C95.551071,481.384827 96.194786,479.402283 92.938507,476.522217 
	C89.206177,473.221069 88.618477,468.371704 89.152283,463.567993 
	C90.131866,454.752747 93.548378,447.164551 101.038361,441.955383 
	C102.852928,440.693359 103.265007,439.402100 102.909592,437.366150 
	C102.029488,432.324585 103.605888,427.967651 107.733009,425.027252 
	C112.588142,421.568176 113.017868,415.933441 115.091255,411.162140 
	C116.230629,408.540192 113.354416,406.670288 111.855530,404.853546 
	C104.341225,395.745422 100.626259,385.488068 100.648689,373.580963 
	C100.671501,361.471741 106.808151,353.598541 116.673470,347.898376 
	C122.341545,344.623383 128.648102,342.896973 134.843170,340.985687 
	C142.158691,338.728699 148.011047,334.749176 151.904358,328.025696 
	C153.068161,326.015900 154.587967,324.214355 155.910660,322.293945 
	C158.375717,318.714996 161.671646,316.543884 166.076859,317.463287 
	C170.219604,318.327942 170.969604,321.977814 171.472610,326.431335 
	C175.957687,320.863800 179.809494,313.940308 187.695343,319.464020 
	C196.157120,325.391144 192.931168,333.130829 189.690735,340.988342 
	C193.811249,342.131073 197.695358,342.771912 202.743881,342.505249 
	C198.393982,336.527496 196.214767,330.583984 196.656189,323.837585 
	C196.834991,321.104919 197.411591,318.572418 198.719666,316.204163 
	C201.979630,310.301971 206.414215,309.819977 214.614944,314.878723 
	C214.186249,307.528778 217.761276,302.866608 223.693695,299.478668 
	C226.190918,298.052521 227.709503,295.497925 227.566177,292.345032 
	C227.511871,291.150238 227.451904,289.931854 228.790604,289.359558 
	C230.277130,288.723969 231.360825,289.641815 232.353775,290.525604 
	C235.440948,293.273468 236.516266,297.162964 237.698547,301.052216 
	C240.598557,300.350433 240.924103,299.221039 239.451447,297.133820 
	C232.677567,287.532990 234.137665,279.559448 243.836151,272.754211 
	C245.063477,271.893036 246.339478,271.099945 247.550125,270.216644 
	C249.020493,269.143921 250.841202,268.141357 250.438217,265.947083 
	C249.992493,263.520050 248.566757,261.819946 246.115631,260.894806 
	C244.371796,260.236603 241.926346,260.804840 241.068039,258.362427 
	C245.137329,253.149124 256.388947,253.778656 261.269501,259.468506 
	C265.664490,264.592285 265.762329,270.648529 261.603210,276.205444 
	C260.814209,277.259583 260.016693,278.392242 259.595703,279.616760 
	C258.977783,281.414154 259.014923,283.273712 260.710327,284.622681 
	C262.244141,285.843079 263.831451,285.367096 265.417328,284.669312 
	C270.848328,282.279633 274.697418,273.501373 273.091888,267.185577 
	C272.231384,263.800354 271.366730,260.415070 270.586670,257.010834 
	C269.854614,253.816086 270.465790,250.706192 271.500977,247.678925 
	C273.260010,242.534683 277.812805,238.694885 282.258026,238.516647 
	C287.035553,238.325089 291.529724,241.341751 293.730408,246.671997 
	C294.731689,249.097137 294.940979,251.836929 295.752014,254.355896 
	C296.883301,257.869354 299.060577,258.382538 301.669434,255.813446 
	C304.014282,253.504364 305.012085,250.508774 305.675629,247.361801 
	C306.375153,244.044296 308.573181,243.718796 309.930695,246.354599 
	C312.929749,252.177643 316.699188,257.263031 320.961853,262.222931 
	C323.843872,265.576355 322.220276,269.729553 319.682373,273.283569 
	C317.842560,275.859985 315.114502,278.333954 316.770355,282.229950 
	C322.046173,282.634003 320.048370,277.090881 323.001587,275.102539 
	C326.990082,276.968628 328.469757,280.334473 328.231750,284.633331 
	C327.998230,288.850830 326.085266,292.166595 321.801056,293.095734 
	C318.835876,293.738831 316.219452,294.274597 315.527496,297.700195 
	C315.312408,298.765106 315.727600,299.774414 316.699707,300.246185 
	C319.873779,301.786621 322.122253,299.558685 324.393097,298.031189 
	C327.324951,296.059082 328.673126,293.145050 328.918701,289.557373 
	C329.201569,285.424438 329.381683,281.229584 331.283875,277.386688 
	C333.649841,272.606812 338.955017,269.307373 343.737549,269.712585 
	C345.417450,269.854919 347.262299,270.034821 347.821777,271.945129 
	C348.404480,273.934875 346.431061,274.260529 345.299133,275.114166 
	C344.106110,276.013855 342.895874,276.911865 341.821777,277.944427 
	C336.944031,282.633606 336.841003,285.747864 342.139221,289.824249 
	C346.142151,292.904114 347.576263,296.743622 347.264862,301.648254 
	C350.654907,302.651520 352.423706,300.835541 354.037750,298.594513 
	C357.259338,294.121521 361.702881,291.228119 366.687714,289.145691 
	C372.678802,286.642853 378.523499,287.006256 383.649567,291.152405 
	C386.560760,293.507080 389.164734,293.680969 392.294617,291.853790 
	C395.167908,290.176392 398.164459,288.697174 401.167053,287.256348 
	C412.810669,281.669098 430.942169,284.430420 440.614380,292.751434 
	C447.463379,298.643646 449.932312,305.994873 448.993713,314.601257 
	C448.667358,317.593781 448.999664,319.625031 451.620697,321.375641 
	C457.487823,325.294312 458.027802,330.910706 456.559570,337.300781 
	C453.768738,349.447083 448.582123,359.568054 435.725983,363.714783 
	C433.267975,364.507629 433.146118,366.470856 433.335724,368.568726 
	C433.794739,373.647552 431.922485,377.906006 427.974365,380.855896 
	C419.132446,387.462341 410.267548,394.276947 396.706909,392.279419 
	C401.038116,398.707397 398.725159,404.093109 396.885925,409.646423 
	C395.656311,413.359192 398.502655,419.060822 401.903778,420.692993 
	C406.103394,422.708374 409.261993,421.135284 412.739197,418.339172 
	C418.133270,414.001617 421.449860,409.747589 421.553406,401.957367 
	C421.654144,394.379395 428.421661,390.321167 435.587555,388.174042 
	C440.142761,386.809113 444.704712,386.273682 449.719910,387.840942 
M319.682983,420.412323 
	C315.863007,428.115875 320.585266,433.023163 325.496521,437.747467 
	C328.355530,440.497742 330.523376,443.162811 327.795502,447.219421 
	C327.126526,448.214203 327.076477,449.570221 327.738586,450.579834 
	C331.549011,456.390045 334.424438,463.276672 341.282654,466.158264 
	C353.313690,471.213318 365.776184,474.848175 379.001740,474.968140 
	C379.909668,474.976410 381.071320,475.315491 381.571289,473.924469 
	C380.274475,471.487274 377.941193,471.143646 375.605927,471.365570 
	C368.823975,472.010040 362.772003,469.511841 356.861084,466.890839 
	C350.787781,464.197784 346.822144,459.740631 347.814117,452.417175 
	C348.167877,449.805420 347.778656,447.088531 345.968323,445.368805 
	C337.932434,437.734924 339.173615,427.912872 340.082153,418.645660 
	C341.182648,407.420807 350.239258,395.151367 363.701721,393.715607 
	C366.980530,393.365936 370.471405,393.057251 373.398499,391.713776 
	C383.097931,387.261871 393.070862,385.754883 403.571411,387.502502 
	C407.288788,388.121185 410.578094,387.429352 412.842529,384.121338 
	C414.107483,382.273438 415.783661,381.882965 417.953339,381.716248 
	C424.452911,381.216797 430.095520,372.212402 427.653076,366.239471 
	C426.353577,363.061523 426.639679,361.461884 430.324341,360.496490 
	C442.104401,357.410217 449.633453,350.017426 452.496643,337.964844 
	C454.488129,329.581696 453.851898,327.245209 446.573944,322.511810 
	C443.911987,320.780487 443.195007,318.914764 443.852081,315.843048 
	C446.246887,304.647827 440.857483,294.928253 429.963348,291.651093 
	C418.903992,288.324249 407.742889,286.644196 397.557800,294.554565 
	C396.647675,295.261444 395.558319,295.755707 394.511749,296.265869 
	C388.241974,299.322144 385.888184,299.013031 380.643646,294.185394 
	C378.704620,292.400513 376.682068,291.168793 373.949921,291.580200 
	C367.948364,292.483826 362.628418,294.773346 359.288239,300.055847 
	C356.712097,304.130035 353.564392,306.796844 348.601685,307.269073 
	C345.682190,307.546844 344.404449,309.381409 345.846924,312.199738 
	C347.364929,315.165649 347.965454,318.394135 348.708466,321.585297 
	C355.259644,319.641785 356.074432,318.467560 355.368225,311.957458 
	C355.243042,310.803345 354.671570,309.591003 355.980896,308.833740 
	C357.154633,308.154907 358.243744,308.750153 359.223450,309.433838 
	C363.210144,312.216064 365.957001,315.925903 366.948120,320.696198 
	C367.915161,325.350647 364.866516,331.317444 360.810760,332.680481 
	C358.710785,333.386230 356.524719,333.600128 356.159698,336.380066 
	C355.776672,339.297180 357.338074,341.115387 359.586700,342.513000 
	C361.817230,343.899323 363.394958,345.671600 363.788025,348.383728 
	C364.905670,356.095795 360.515747,364.432831 352.954498,365.224976 
	C354.263794,370.652161 354.263794,370.652161 351.998199,375.774139 
	C353.968994,374.534302 355.630981,373.055664 357.573608,372.353638 
	C362.114258,370.712830 366.316986,369.233856 368.025330,363.787598 
	C368.771851,361.407715 371.544586,359.663422 373.629028,357.376068 
	C375.206940,359.969086 373.953918,361.482574 372.764832,363.075867 
	C371.625305,364.602844 369.729095,365.765594 370.108185,368.588135 
	C375.497009,369.077911 380.926056,369.469330 386.327362,370.098724 
	C389.824890,370.506317 392.986877,369.684906 395.873352,367.916595 
	C397.723480,366.783112 400.710266,365.575226 398.809021,362.700623 
	C396.841919,359.726471 395.236786,362.879578 393.521942,363.675720 
	C393.303467,363.777130 392.922791,363.529053 392.392120,363.379395 
	C391.548859,361.179260 392.499939,359.626740 394.453491,358.572205 
	C396.626953,357.399048 398.658112,358.076447 400.538300,359.378418 
	C402.501556,360.737946 403.505432,362.575409 402.817749,364.971832 
	C401.784088,368.574127 399.260773,370.935089 395.987976,372.506531 
	C390.546356,375.119385 385.005035,375.661743 378.996368,374.226959 
	C368.810059,371.794647 359.434814,372.747162 352.765747,382.351715 
	C351.571655,384.071350 349.786316,385.634949 347.924805,386.589966 
	C341.862091,389.700165 337.617584,394.332947 335.004883,400.564789 
	C331.756470,408.313110 324.856934,413.221680 319.682983,420.412323 
M179.211151,323.762695 
	C178.300339,324.723450 177.289886,325.609283 176.499237,326.660461 
	C174.798950,328.920959 173.380722,331.759125 169.913162,331.049988 
	C166.747681,330.402618 166.236206,327.664276 165.765045,324.920837 
	C165.241302,321.871185 163.219574,321.784485 160.900101,322.957184 
	C159.170212,323.831726 158.208908,325.479553 157.466797,327.137909 
	C153.583313,335.816071 146.416763,340.631500 137.964645,344.006195 
	C132.243011,346.290680 126.421028,348.370819 120.858253,350.996460 
	C109.520126,356.348114 104.232063,365.113342 105.289055,376.328705 
	C105.954208,383.386322 108.067459,390.018158 111.786552,396.087494 
	C116.681587,404.075928 122.543251,411.298950 128.973648,418.107788 
	C143.825897,433.834198 162.294083,444.543274 180.560394,455.541534 
	C182.695724,456.827240 184.834976,458.556427 187.170456,458.975098 
	C194.114151,460.219666 200.099808,463.447357 205.888855,467.136139 
	C207.690399,468.284088 209.111923,469.317047 211.285980,468.070251 
	C213.365036,466.877899 214.090286,465.440399 214.253891,462.908508 
	C214.519760,458.793793 212.213043,455.039398 212.757462,449.392090 
	C218.637253,456.786285 218.639999,464.987549 221.769104,472.218964 
	C225.637421,470.692017 224.574142,468.040009 224.181808,465.491547 
	C223.779449,462.878174 221.905045,460.368256 223.039490,457.590851 
	C225.522018,457.593597 224.858932,460.650177 226.897385,460.637146 
	C229.308899,459.443329 229.494705,456.888763 230.598831,454.895569 
	C236.063278,445.030792 234.540833,438.792328 224.782806,433.042175 
	C217.394806,428.688568 209.121094,426.328766 200.881744,424.487640 
	C190.450348,422.156677 181.686920,416.960693 173.497009,410.613190 
	C167.347336,405.846985 162.202286,399.948883 161.047791,391.919678 
	C160.362885,387.156403 158.811279,382.952881 156.484833,378.858521 
	C155.437225,377.014862 153.840561,375.191376 154.483734,372.444366 
	C156.930420,373.194550 158.087387,376.083679 161.078766,375.219086 
	C159.586044,370.094788 154.631668,367.251709 152.755981,361.769196 
	C157.266754,363.042877 158.671738,367.423584 162.340256,368.784790 
	C163.740952,361.483765 162.011002,354.819977 159.519470,347.842346 
	C162.619995,348.571686 162.927933,350.582947 163.725067,352.115723 
	C167.011551,358.435089 168.246140,365.392426 169.062332,372.304260 
	C169.695328,377.664642 173.343048,380.012024 177.140091,382.129272 
	C180.202423,383.836853 183.316925,381.413666 183.050232,378.148438 
	C182.517181,371.621979 184.376541,370.191498 190.694260,372.168579 
	C192.964264,372.878937 195.439972,374.912292 197.589844,372.382751 
	C199.893997,369.671600 200.215164,366.469635 198.975021,362.998260 
	C197.170746,357.947662 193.191071,355.550079 188.621490,353.567963 
	C182.540802,350.930389 181.128967,347.140930 183.867279,341.158905 
	C184.835251,339.044312 186.331726,337.151489 187.145538,334.991150 
	C188.408600,331.638214 188.837082,328.122833 186.448257,325.008789 
	C184.737061,322.778107 182.463562,322.089691 179.211151,323.762695 
M286.870239,308.289612 
	C288.471832,309.167969 290.026459,310.148926 291.683105,310.906982 
	C299.147247,314.322357 303.915161,321.596985 311.580566,324.742310 
	C312.983276,325.317871 314.237305,326.654419 314.146820,328.203583 
	C313.899445,332.437836 316.842712,334.700104 319.158234,337.506866 
	C322.661835,341.753693 326.218658,346.044861 328.981842,350.768219 
	C329.998993,352.506989 330.012177,354.204132 332.567810,354.459412 
	C335.254852,354.727814 336.943604,356.731628 338.116180,359.049561 
	C340.597015,363.953491 340.738098,368.917542 338.500610,373.983612 
	C337.753937,375.674225 336.289520,377.288574 337.102295,379.433624 
	C340.995239,379.932770 340.471100,375.006897 344.145111,374.599976 
	C350.174835,373.932129 350.873169,370.977722 346.661804,366.651001 
	C344.488556,364.418243 343.997345,361.911591 345.681152,359.428131 
	C347.334351,356.989929 349.997894,356.357635 352.796265,357.252930 
	C354.004852,357.639648 355.052155,358.530426 356.136810,359.170990 
	C361.315735,353.460419 361.168640,350.016846 355.493073,345.438995 
	C352.281769,342.848785 350.308594,339.824310 351.049561,335.532196 
	C351.670868,331.932983 353.690979,329.538727 357.174164,328.321564 
	C363.346039,326.164856 364.044220,323.898956 360.492493,317.510406 
	C358.681671,320.063385 358.012970,323.584229 354.567810,324.597778 
	C351.348236,325.544922 349.965027,327.458313 350.339600,330.884918 
	C350.603760,333.301086 349.254669,335.094940 346.961578,335.852386 
	C344.602600,336.631622 342.332520,336.244446 340.467834,334.454346 
	C338.704193,332.761261 338.337860,330.689484 339.271240,328.502075 
	C339.851776,327.141479 340.641693,325.831665 341.538940,324.652161 
	C344.087036,321.302338 345.057495,317.858612 342.520844,314.080231 
	C339.952606,310.254822 333.676025,307.633453 329.353638,308.633698 
	C324.740967,309.701141 321.496033,312.514160 320.443726,317.108307 
	C319.629211,320.664276 321.261810,322.962616 325.290894,322.735748 
	C325.708008,322.712250 326.105774,322.345703 326.514221,322.137482 
	C326.098267,320.540222 323.232758,321.557495 323.752991,319.083923 
	C325.692200,317.264038 327.859558,317.480621 329.982391,318.897400 
	C331.183685,319.699188 331.639618,321.016266 331.228668,322.431488 
	C330.472717,325.034698 328.375549,325.986603 325.952332,326.343750 
	C319.765472,327.255646 315.338440,321.443115 317.425079,315.195007 
	C319.644379,308.549530 326.797424,304.106537 334.069519,305.513489 
	C338.050690,306.283722 339.928375,304.583435 341.643585,301.579315 
	C343.456268,298.404388 342.793396,295.699768 340.116638,293.612793 
	C335.462036,289.983704 331.885559,286.092194 335.268707,279.415039 
	C333.018311,282.136108 333.292542,285.003784 333.094147,287.810394 
	C332.576630,295.132538 329.522919,300.914276 322.640747,304.178894 
	C319.364136,305.733246 316.073761,305.634369 313.240051,303.288879 
	C310.815491,301.281982 310.432037,298.373871 311.189362,295.499939 
	C312.157501,291.826050 314.821442,290.073120 318.583954,289.969116 
	C322.158295,289.870331 323.954193,287.987030 324.341400,283.956940 
	C323.462555,284.499542 322.971191,284.838440 322.448669,285.119598 
	C319.514496,286.698486 316.366516,287.728668 313.680328,285.084503 
	C310.803192,282.252380 311.127594,278.736115 312.981140,275.409882 
	C313.865784,273.822418 315.069977,272.406982 316.181702,270.953644 
	C317.637207,269.050903 318.179718,267.053162 317.283813,264.587982 
	C316.028595,266.112671 315.215881,267.746613 313.897583,268.593170 
	C306.898285,273.087769 303.090881,278.761322 303.910156,287.674652 
	C304.393860,292.936615 299.093933,295.564911 294.443512,293.298004 
	C289.289734,290.785736 285.992554,283.720825 287.112335,277.589386 
	C288.453918,270.243256 291.599548,267.325653 298.844635,266.707642 
	C306.398499,266.063232 310.590027,260.846680 309.173340,253.659683 
	C308.154846,255.270798 307.391266,256.964325 306.199036,258.264893 
	C303.603302,261.096619 300.347992,262.857452 296.405548,261.975037 
	C292.622681,261.128357 291.979950,257.930054 291.623108,254.627686 
	C291.463470,253.150391 291.040894,251.690292 290.628357,250.253769 
	C289.662537,246.890869 288.074860,243.674347 284.206116,243.513290 
	C280.082001,243.341599 277.644470,246.268494 276.045685,249.814529 
	C274.910706,252.331879 274.792725,255.042709 275.248810,257.669983 
	C275.873901,261.270966 276.973785,264.787262 277.668671,268.378845 
	C279.160309,276.088715 274.494781,285.489410 267.450775,288.911285 
	C263.599060,290.782410 259.719574,291.250366 256.485779,287.636810 
	C253.632339,284.448212 253.514450,279.145416 256.131378,275.572266 
	C256.816986,274.636139 257.744385,273.878357 258.441650,272.949280 
	C261.409119,268.995300 259.649628,263.370026 254.696198,261.541382 
	C256.732056,268.349396 254.346359,272.991425 248.006027,275.737213 
	C246.947510,276.195618 245.990479,276.907043 245.024841,277.558319 
	C238.954941,281.652130 238.071991,288.653748 242.910629,294.208221 
	C246.920135,298.810883 245.566925,303.426636 239.606735,305.568665 
	C233.846130,307.639008 230.095917,311.702240 228.609955,317.570465 
	C227.827591,320.660034 227.493301,324.516541 231.482437,325.514404 
	C235.809555,326.596771 236.892227,322.996155 237.829483,319.519409 
	C236.649567,318.704498 234.099197,319.670471 234.703186,317.150818 
	C235.025772,315.805054 235.857681,314.695984 237.332550,314.437531 
	C239.381149,314.078522 240.543427,315.374359 241.029434,317.051025 
	C242.178757,321.016144 240.473251,324.209839 237.830887,326.999512 
	C235.671570,329.279205 232.890900,329.973083 230.038223,328.939880 
	C226.523804,327.666992 224.956696,324.647125 224.889160,321.081177 
	C224.808655,316.831482 225.980179,312.926483 228.741638,309.494568 
	C231.015610,306.668457 232.416153,303.447449 231.526871,299.060059 
	C228.873795,301.877502 226.392380,303.765564 223.617340,305.310120 
	C220.408844,307.095917 218.644150,309.653656 219.737625,313.556183 
	C220.503738,316.290375 220.584473,319.010956 217.644165,320.529938 
	C214.767548,322.015991 212.617401,320.307098 210.530670,318.465576 
	C206.124832,314.577393 202.999451,315.651337 201.473953,321.497589 
	C199.753387,328.091370 203.918961,340.054352 209.405853,344.056366 
	C210.030182,344.511719 210.941681,344.642303 211.744522,344.772736 
	C216.834702,345.599701 221.949356,346.289337 227.018372,347.227203 
	C229.190536,347.629120 230.462173,347.321106 232.070801,345.430084 
	C241.417618,334.442261 250.659912,323.346863 261.489807,313.711731 
	C268.733521,307.267120 277.118134,306.383057 286.870239,308.289612 
M117.622795,456.201752 
	C117.090607,459.309265 117.771896,461.753479 121.421471,459.892365 
	C125.398224,457.864349 126.405022,453.795166 126.145103,449.610016 
	C125.899872,445.661377 123.584541,443.177521 119.703682,442.349243 
	C105.979515,439.420349 90.968880,455.211853 94.548119,468.820770 
	C95.057961,470.759277 95.973259,472.488068 97.570793,473.884033 
	C102.051888,477.799774 102.352203,479.954559 98.828758,484.824738 
	C95.255623,489.763641 93.598595,495.137146 96.310165,500.734375 
	C99.107903,506.509491 104.527008,508.281281 110.750923,508.971436 
	C120.077385,510.005615 127.064423,504.158936 135.398178,501.554504 
	C136.974213,503.939392 137.533371,507.427185 141.874542,506.978821 
	C152.930161,505.837006 162.290787,501.943817 167.576767,491.540924 
	C170.480850,485.825653 174.296234,480.996124 180.094147,478.465912 
	C185.329193,476.181366 187.649506,471.903748 190.493317,467.069519 
	C180.451538,461.895905 171.138687,456.125214 161.959946,450.137390 
	C160.196503,448.987030 158.837173,449.949280 157.381973,450.814941 
	C154.168549,452.726593 150.708817,452.972717 147.273926,451.704742 
	C143.125977,450.173523 142.432114,446.791168 145.442261,443.623108 
	C146.107956,442.922455 147.145050,442.502594 147.059128,440.692108 
	C137.638870,433.281982 127.606506,425.914276 119.725937,415.419464 
	C118.231720,418.639526 117.062912,421.013611 116.020912,423.442108 
	C114.834816,426.206512 112.112900,427.475433 110.250488,429.575745 
	C108.332840,431.738373 107.371635,434.296021 108.547073,436.944489 
	C109.826180,439.826630 112.508118,438.544678 114.735817,438.267395 
	C121.219574,437.460327 126.803421,440.420319 129.054138,445.874695 
	C131.329773,451.389526 129.221771,458.830536 124.278275,462.451355 
	C121.247925,464.670837 118.107697,465.244904 115.419296,462.017212 
	C112.981323,459.090240 113.986923,454.948059 117.521057,452.391510 
	C118.805237,453.329773 118.005630,454.464569 117.622795,456.201752 
M421.632050,416.919556 
	C419.003265,418.176575 417.349365,420.586884 415.173981,422.380676 
	C407.348785,428.833313 399.192322,427.079437 394.541077,418.157837 
	C391.967926,413.222382 391.529236,408.416443 393.902100,403.333557 
	C395.260101,400.424683 395.330994,397.596405 391.682129,396.415466 
	C384.646851,394.138580 377.816040,395.820007 370.652710,397.904388 
	C380.541779,404.805023 384.058868,415.782867 389.934814,425.141663 
	C395.668610,434.274170 403.002502,442.097107 410.753906,450.299866 
	C412.477081,444.724915 415.911194,442.588074 421.111969,442.903015 
	C423.477020,443.046265 425.040497,441.514709 426.180298,439.440765 
	C426.916901,438.100372 427.011902,436.127106 429.071075,435.759033 
	C430.696777,441.532928 426.950317,445.834686 419.709686,446.193207 
	C417.020355,446.326324 415.266754,447.152924 414.368042,449.710846 
	C413.462341,452.288696 413.524750,454.614990 415.827179,456.489807 
	C416.601562,457.120392 417.244202,458.024597 418.120117,458.401031 
	C425.638184,461.632233 426.126190,467.409454 423.829834,474.120056 
	C422.996643,476.554840 423.792603,477.941986 426.005951,478.825989 
	C427.547699,479.441742 429.278412,480.488159 430.696503,479.155518 
	C433.130737,476.867950 434.324097,473.820557 433.510559,470.529724 
	C432.838745,467.812256 431.391388,465.296906 430.480774,462.626190 
	C427.785461,454.721039 431.312378,448.959930 439.544220,448.197388 
	C442.881989,447.888184 445.609070,446.658386 448.184967,444.729370 
	C455.247437,439.440582 459.892670,432.446259 462.278412,424.040771 
	C466.530731,409.058899 460.456940,395.790955 447.722412,391.781403 
	C439.624695,389.231781 429.910461,393.163635 426.349426,400.432129 
	C423.983978,405.260254 425.467285,411.633789 429.706055,414.854950 
	C433.462341,417.709381 438.916229,417.308289 442.522919,413.892029 
	C443.749329,412.730377 445.053925,411.473267 444.400726,409.599121 
	C443.659973,407.473785 441.890289,407.187805 439.889740,407.561432 
	C438.924072,407.741760 437.864136,408.000671 437.427643,406.661743 
	C440.601715,403.692688 443.590912,403.223206 445.986603,405.586426 
	C448.572906,408.137604 448.857391,411.056824 446.761505,414.161560 
	C442.761627,420.086823 434.721497,421.954559 428.689331,418.141235 
	C426.661255,416.859100 424.839996,415.439362 421.632050,416.919556 
M382.842529,420.591675 
	C380.988922,417.432922 379.292328,414.168060 377.246124,411.139404 
	C373.888885,406.170197 369.412018,402.485901 363.558228,400.820709 
	C360.296844,399.892975 357.027222,399.700806 353.983856,401.851135 
	C342.868103,409.704987 340.805450,431.093933 347.743744,440.679016 
	C350.562683,444.573273 352.347839,448.351776 352.200378,453.454193 
	C351.993073,460.626160 360.106934,465.938568 366.793304,463.741821 
	C365.665131,452.237152 364.426758,440.749603 364.635773,429.117310 
	C368.396088,432.704010 365.870422,439.048035 370.925873,442.046814 
	C373.142273,439.903931 371.637665,436.131317 374.542938,433.813049 
	C375.746735,436.547150 375.122864,439.002594 375.094940,441.382935 
	C375.066071,443.846832 373.752075,446.303009 374.871918,448.766724 
	C377.721558,455.035858 377.657623,463.102325 385.618866,466.260406 
	C386.181305,466.483521 386.783295,467.114990 386.974091,467.687500 
	C388.698883,472.863007 393.962708,474.776855 396.968292,479.273224 
	C400.120728,473.644562 404.391266,470.209229 410.388428,469.008820 
	C407.303101,473.686096 400.114014,475.193512 400.151062,482.883362 
	C405.609650,481.814545 406.419586,474.531311 412.507690,474.796631 
	C411.755615,478.377869 407.747772,479.340027 406.811401,483.308472 
	C409.942810,480.008820 412.535950,477.702301 416.401794,476.787048 
	C420.737732,475.760498 422.180634,466.289825 418.736206,463.331940 
	C404.623077,451.212555 392.630310,437.303864 382.842529,420.591675 
M410.672852,484.407379 
	C410.149658,485.795959 409.363678,487.146698 409.157135,488.580841 
	C408.706787,491.707520 408.850647,494.924042 412.804932,495.620911 
	C416.866425,496.336700 418.057892,493.796478 417.968323,490.221985 
	C417.959106,489.854340 418.457031,489.474030 418.738922,489.072083 
	C421.940491,492.659454 421.360352,496.317749 417.413116,498.150482 
	C412.974792,500.211273 408.595642,498.451050 406.444061,493.529602 
	C405.605408,491.611328 405.108917,489.657379 402.363647,490.273224 
	C399.809296,490.846222 398.114899,492.273590 398.019684,495.000336 
	C397.959076,496.736206 397.259827,498.599426 398.484497,500.184235 
	C402.270813,500.312805 402.120148,496.190826 404.606232,494.679718 
	C406.862213,496.863800 405.438019,498.716858 404.199371,500.395721 
	C401.283783,504.347595 396.381348,505.585327 390.658386,502.892761 
	C377.140839,496.532867 366.997253,501.471100 359.849487,511.055542 
	C352.616852,520.753845 343.537445,526.505066 331.491913,527.576843 
	C331.289246,527.594849 331.126648,528.063538 330.623749,528.780396 
	C337.033386,533.373291 338.476379,540.218933 338.581573,547.643616 
	C338.607300,549.459351 338.932892,551.311279 339.398865,553.072937 
	C341.020416,559.202942 344.729889,563.695374 351.090027,564.715881 
	C361.148651,566.329834 370.322784,563.756714 377.977753,556.877686 
	C380.740326,554.395142 383.129913,551.431519 383.624451,546.810059 
	C380.500885,548.035156 377.929260,549.110962 375.311188,550.058167 
	C366.974213,553.074463 359.632050,549.459412 357.584961,540.842773 
	C355.354523,531.454102 360.004028,524.311340 366.510437,518.355530 
	C373.207672,512.224976 381.064575,510.573486 389.671570,514.124268 
	C392.749146,515.393860 395.672485,517.080078 398.811432,518.150146 
	C407.582916,521.140381 415.904022,520.151306 423.446106,514.559143 
	C430.501404,509.327850 434.116364,498.365326 431.350128,490.959106 
	C427.898926,481.718933 417.667786,478.104950 410.672852,484.407379 
M216.473633,513.063965 
	C219.591156,507.631714 222.237610,506.557617 227.900635,508.523102 
	C228.980316,508.897827 229.854370,509.558075 231.172150,508.989136 
	C235.549683,507.099213 239.964966,499.867157 239.524506,495.048126 
	C238.653427,485.517792 239.096344,484.393982 247.506195,480.248352 
	C252.886734,477.596039 256.641541,473.714996 258.815918,468.178864 
	C261.692596,460.854706 259.728882,457.176239 251.286087,455.821869 
	C255.470276,450.568024 257.119293,444.952606 255.968460,438.477875 
	C254.671249,431.179688 250.526062,426.017242 244.769012,425.647766 
	C245.937241,430.352997 248.969147,434.974213 245.234482,440.167175 
	C244.316208,430.530640 240.767395,422.618103 231.793488,418.341248 
	C222.776428,414.043823 214.222595,417.835236 204.246994,419.922272 
	C211.668243,422.748535 217.843094,424.787567 223.756226,427.415466 
	C237.107132,433.348969 241.737686,444.588593 236.579224,458.126831 
	C235.436981,461.124603 234.585297,464.117096 234.450333,467.312622 
	C234.213135,472.928558 231.580338,477.491821 228.065491,481.630341 
	C223.799240,486.653656 218.718842,490.619843 212.649582,493.285309 
	C208.447418,495.130798 204.903076,497.847900 202.233688,501.613556 
	C196.262985,510.036438 198.863327,520.665527 208.033142,525.418457 
	C213.789703,528.402222 222.737305,527.215088 227.255249,522.854553 
	C229.700989,520.494019 230.117355,517.771362 228.869995,514.628174 
	C227.961868,512.339844 226.455902,511.086182 223.980927,511.123169 
	C220.542511,511.174561 219.641006,513.650757 218.988815,516.381165 
	C218.880295,516.835449 218.547928,517.236206 218.332291,517.637024 
	C216.111237,516.708618 215.950226,515.351624 216.473633,513.063965 
M263.480927,347.928436 
	C262.385925,348.946167 261.228210,349.905090 260.207855,350.992859 
	C257.361389,354.027466 252.477280,355.528748 253.231339,361.281006 
	C253.451462,362.960144 251.459137,364.961029 249.401703,363.118591 
	C247.737381,361.628113 246.887924,362.385193 245.608582,363.288849 
	C243.571075,364.727905 241.559921,366.278687 239.331223,367.354675 
	C236.199890,368.866425 235.009644,371.104614 235.183731,374.524109 
	C235.881882,388.237213 241.592712,399.471558 253.143326,406.712341 
	C268.653107,416.435089 285.033966,416.391266 301.147858,407.843719 
	C317.164124,399.348022 325.827026,385.817627 326.518860,367.673004 
	C326.853241,358.903259 323.962769,350.948547 317.873962,344.343903 
	C317.332855,345.602814 317.189575,346.743500 317.354553,347.837708 
	C319.578003,362.585693 314.807007,375.744843 308.287750,388.554138 
	C305.247894,394.527039 300.543640,398.485870 294.338074,400.704803 
	C278.721252,406.288879 255.543259,399.769531 245.158676,386.815918 
	C242.430267,383.412537 240.652405,379.558044 241.324570,375.001984 
	C246.892502,374.382202 246.888428,374.379395 250.235062,369.544189 
	C254.224777,363.779907 258.406647,358.235046 264.167358,354.004974 
	C274.369110,346.513947 286.194580,346.055542 298.066895,346.001038 
	C304.502014,345.971466 310.459534,345.541656 313.575684,338.558167 
	C312.757507,337.274750 311.731750,335.955261 309.720428,337.119720 
	C305.343353,339.653809 300.135681,339.253082 295.699707,340.891510 
	C291.790741,342.335388 289.854095,340.870300 287.932556,339.710419 
	C286.860779,337.842010 289.172516,337.763336 288.107605,336.118408 
	C282.505951,336.144867 276.309174,336.899536 272.949768,330.663086 
	C268.844604,333.584198 270.792419,336.720825 271.492798,339.710236 
	C267.019135,340.587036 266.298706,344.760956 263.480927,347.928436 
M323.310791,447.009430 
	C323.215851,445.497101 325.195953,444.058136 323.304016,442.230988 
	C317.242798,445.023407 313.374298,450.759888 307.562988,454.033325 
	C310.016541,447.644745 313.772095,442.372620 320.488556,439.078308 
	C315.141876,432.164764 312.015533,424.721954 310.272552,415.694336 
	C305.221985,418.102570 300.668610,420.094299 296.284607,422.407166 
	C290.103882,425.667938 284.376068,431.887238 276.975739,424.692352 
	C276.843414,424.563721 276.362030,424.794159 274.944275,425.074066 
	C277.608612,434.234619 275.621918,442.433350 266.370239,448.787933 
	C275.793762,450.731781 283.942535,451.190552 290.212158,457.007660 
	C283.303802,457.340179 277.102783,453.515778 270.202881,453.471313 
	C271.294220,459.966248 273.508240,463.247833 277.769287,463.614990 
	C280.870087,463.882172 283.534088,464.889984 286.265289,466.141327 
	C288.594604,467.208527 291.073212,468.887634 293.021332,465.231689 
	C293.808258,463.754883 295.339722,464.505585 296.519440,465.296875 
	C297.865509,466.199707 298.665985,467.916290 300.645203,468.036133 
	C305.141205,465.329315 306.767273,460.110199 311.148682,454.948456 
	C311.343872,461.837860 315.527191,464.257660 319.633301,466.968414 
	C323.403656,462.133453 327.824036,457.551697 323.670685,450.680420 
	C323.197998,449.898438 323.352997,448.737000 323.310791,447.009430 
M343.774811,496.833466 
	C347.465271,497.157623 351.236908,494.742188 355.479767,496.709045 
	C352.869537,499.296448 350.075592,499.511688 347.537720,499.612122 
	C336.727295,500.039978 331.555603,508.030518 325.876862,515.358643 
	C323.335358,518.638367 326.767700,520.218994 328.316223,521.911987 
	C330.035034,523.791382 331.708649,521.970337 332.847076,520.580933 
	C335.377289,517.492981 337.725983,514.256958 340.175415,511.102020 
	C343.522003,506.791473 347.550415,504.133179 353.405304,504.704895 
	C357.143768,505.069977 360.662201,503.597534 363.728577,501.488068 
	C372.173126,495.678741 381.017090,493.983154 390.620148,498.375763 
	C390.998108,498.548645 391.570801,498.295929 392.312561,498.212128 
	C393.455383,493.691315 395.377441,489.538361 400.045349,486.569244 
	C394.239594,484.404968 388.708466,484.813293 383.408234,483.886230 
	C369.663971,481.482269 355.945892,478.927887 342.220917,476.414215 
	C340.201080,476.044342 338.231659,475.997833 336.389709,477.033356 
	C330.698944,480.232727 325.912659,484.660339 320.794159,488.632996 
	C320.217682,489.080444 319.584869,490.106323 319.713165,490.706909 
	C320.672211,495.195587 317.020935,495.946106 314.173920,497.415741 
	C319.184570,499.817841 322.020416,497.249451 324.904785,493.732239 
	C334.654144,481.843781 341.495789,480.488373 354.054871,487.570526 
	C351.583557,489.438690 351.561401,490.226440 346.977264,490.097595 
	C335.294861,489.769226 326.707642,494.272461 320.504181,504.141449 
	C318.633270,507.117798 314.773895,509.101532 318.265991,513.282471 
	C319.277618,514.493713 317.929871,515.764282 317.154907,517.712646 
	C324.197083,512.831848 328.924438,506.926544 334.450073,501.895172 
	C336.953186,499.615906 339.521851,497.575775 343.774811,496.833466 
M286.136841,321.151001 
	C293.950195,323.644623 301.819427,325.972626 309.506439,328.949493 
	C302.426270,323.595581 294.431335,320.137054 286.070892,317.412079 
	C283.135071,316.455139 280.367676,316.559662 277.324768,317.542969 
	C274.106537,318.582916 270.863098,320.584167 265.825104,319.215973 
	C272.647034,315.389130 278.684174,313.352448 285.946594,313.596893 
	C280.562408,310.051147 271.175232,311.474457 265.639984,315.804047 
	C255.030106,324.102997 247.497375,335.247375 238.357162,344.900360 
	C236.012619,347.376434 233.972885,350.115082 234.120667,353.541077 
	C220.004730,350.559204 206.142258,348.472534 192.018646,347.323151 
	C195.599182,351.948822 200.839767,354.088593 204.114319,358.859436 
	C207.017349,363.089020 232.371643,366.684906 236.968185,364.518646 
	C237.418671,364.306366 237.907303,364.102570 238.262360,363.770813 
	C249.140579,353.606476 263.377411,346.530853 267.838409,330.498901 
	C269.290314,325.280975 272.519501,324.996063 276.266785,328.968506 
	C277.693512,330.480957 278.664001,333.010590 281.377045,332.110901 
	C288.263855,329.827057 294.492096,331.937744 300.681152,334.655029 
	C303.464935,335.877228 305.776123,335.735992 307.436035,331.449738 
	C294.632385,327.386108 282.869598,320.279053 268.520355,324.354309 
	C273.766602,319.934631 279.269562,318.764252 286.136841,321.151001 
M309.076172,519.306885 
	C302.867676,516.445435 302.962646,516.475403 300.921417,522.939026 
	C299.575714,527.200073 296.748260,530.189697 292.156464,530.840698 
	C289.507904,531.216187 287.048676,530.291748 286.040863,527.587158 
	C285.203369,525.339600 285.352264,523.080688 288.457489,521.449951 
	C288.716675,524.572571 287.924957,528.352173 292.653473,527.593872 
	C296.325317,527.005066 298.857056,522.574097 297.843506,518.690308 
	C297.159485,516.069275 295.208710,514.960693 292.809692,514.451355 
	C285.889252,512.982056 279.203552,518.158997 279.058655,525.221313 
	C279.007812,527.698669 279.518677,530.182556 279.661102,532.669922 
	C279.914917,537.101746 278.836975,541.030884 274.617859,543.261108 
	C264.371399,548.677490 245.656006,544.541016 245.407288,528.630371 
	C245.316986,522.853516 243.000107,517.602478 238.876022,513.354553 
	C237.994125,512.446167 237.119156,511.110992 235.527100,511.950684 
	C234.256516,512.620850 234.377731,513.886658 234.603561,515.049194 
	C235.193451,518.085938 233.878143,520.563293 232.399399,523.019897 
	C231.549301,524.432190 230.513763,525.744385 230.421463,527.527222 
	C229.773300,540.045166 238.936234,552.128418 251.223328,554.679443 
	C269.030396,558.376648 283.799561,553.215637 295.103302,538.928772 
	C300.063446,532.659546 306.238708,528.573547 313.867676,526.465759 
	C314.680450,526.241211 315.932587,526.471069 316.239594,525.042114 
	C314.050537,523.270203 311.859741,521.496887 309.076172,519.306885 
M216.194275,396.716614 
	C214.685974,392.033875 212.650482,395.638458 211.184982,396.583435 
	C205.741180,400.093506 200.984344,399.517548 197.233124,394.615051 
	C193.998688,390.387939 192.117279,390.545563 189.767212,395.576904 
	C187.753693,399.887634 184.788071,402.946228 180.261154,404.533752 
	C179.146362,404.924652 177.494675,404.759583 177.202988,406.505768 
	C186.966644,415.856506 194.343582,417.948639 207.041107,415.058624 
	C211.259125,414.098572 215.541122,413.396545 219.722961,412.304962 
	C231.527466,409.223541 238.739578,419.560089 248.629578,422.152557 
	C253.032654,423.306702 256.071716,426.985443 258.281250,431.115387 
	C259.361267,433.134094 259.521423,435.634247 261.615631,437.450592 
	C264.318695,436.237122 267.235962,436.754303 270.051697,437.260742 
	C272.354248,429.169983 270.110809,420.212494 264.777924,417.202393 
	C259.722229,414.348785 253.775391,413.404083 248.833359,410.189545 
	C247.898224,409.581238 246.919952,410.110291 245.997559,410.540680 
	C239.724930,413.467255 234.394470,411.404175 229.345184,407.483734 
	C228.123749,406.535400 227.328110,405.048859 225.194855,405.200165 
	C218.386169,405.683197 216.789978,404.169586 216.194275,396.716614 
M264.471222,464.530640 
	C264.626648,465.318390 264.547028,466.275909 264.974243,466.867401 
	C268.801300,472.166534 269.469635,477.498718 265.476440,483.027618 
	C264.776825,483.996368 264.693817,484.988312 265.013519,486.286713 
	C266.171173,490.988037 263.834717,493.241089 258.354584,492.703033 
	C260.588318,487.251251 255.669312,485.817596 252.795120,483.683105 
	C250.172104,481.735260 247.896637,484.605164 245.923355,486.107635 
	C243.171829,488.202698 243.125305,490.262695 244.960648,495.294678 
	C249.533783,489.588989 249.533783,489.588989 253.090271,490.424164 
	C253.149628,492.447174 250.425308,492.343231 250.218964,494.209717 
	C250.809814,495.498169 251.415573,496.819122 252.193695,498.515961 
	C257.385193,496.940094 262.105682,491.315491 267.150116,496.839935 
	C269.179169,495.828369 268.463745,493.479980 270.763275,493.199127 
	C272.176605,497.914551 269.725189,501.876068 268.327026,505.968414 
	C265.143799,515.285767 256.533051,516.692505 248.345032,518.735107 
	C249.035019,522.053467 249.155670,524.947693 250.624146,527.681335 
	C254.870346,523.823120 262.036041,522.216248 263.902100,524.877075 
	C266.180145,528.125427 265.842926,531.637878 262.907379,534.798889 
	C260.719574,533.766663 258.800995,532.796875 256.829651,531.949951 
	C254.954132,531.144165 252.795776,529.200989 251.209579,532.049377 
	C249.640152,534.867554 251.666214,536.706848 253.726776,538.265137 
	C258.088623,541.563843 263.170837,541.071228 268.156158,540.822876 
	C274.161041,540.523804 276.436676,538.156494 275.779297,532.273743 
	C274.216400,518.287720 275.598541,504.393555 276.545013,490.466614 
	C276.871399,485.663605 277.829010,480.431946 276.408844,476.077576 
	C273.222412,466.307648 266.100433,458.304169 262.889343,448.373352 
	C262.309357,452.390320 265.131287,455.219391 265.959564,458.694214 
	C266.420074,460.626129 268.136108,462.891174 264.471222,464.530640 
M317.521362,476.403137 
	C318.022736,475.369537 318.524078,474.335938 318.971649,473.413300 
	C316.672363,470.470367 313.031250,471.292542 310.757568,469.639435 
	C307.779449,470.616089 308.030914,474.327606 305.045532,475.415710 
	C305.166992,472.286560 307.407471,470.224060 307.176758,466.796570 
	C305.491150,468.970947 303.930298,470.546753 302.113953,471.879333 
	C300.770966,472.864655 300.514282,474.296448 300.891815,476.273499 
	C301.871368,481.403259 301.619598,486.551331 298.475433,492.288757 
	C297.351837,489.664368 295.627930,488.802155 294.048859,487.723663 
	C292.561432,486.707703 292.180817,485.141876 292.357727,483.314789 
	C293.066162,475.998688 290.692352,469.814148 281.061249,468.999878 
	C280.105408,469.967712 279.303802,471.660278 279.854309,472.530792 
	C282.479614,476.682251 280.662079,480.871338 280.442780,485.048340 
	C280.239655,488.917053 280.849060,492.132080 285.536163,493.098511 
	C287.172485,493.435883 289.413300,494.673370 288.251495,496.977875 
	C286.027710,501.388794 288.454620,505.244904 288.811249,509.495880 
	C293.088348,509.316589 296.603027,510.825836 300.059662,512.437073 
	C304.169250,508.210175 310.184021,507.207794 314.772003,503.415100 
	C312.633942,502.253632 311.139923,501.442017 309.866241,500.750122 
	C306.987000,502.257294 306.583740,506.044342 302.117218,506.916504 
	C306.515839,495.946136 311.889008,486.482483 317.521362,476.403137 
M262.244812,359.728973 
	C256.999390,365.883362 251.509521,371.539093 250.237411,380.446838 
	C249.719177,384.075714 248.859772,386.413544 251.861328,388.777008 
	C254.070877,390.516876 256.371368,392.106323 259.193970,392.727417 
	C260.181366,391.101044 259.057526,389.730133 258.975647,388.297729 
	C258.611298,381.922760 258.062775,375.568878 264.241119,371.125336 
	C273.116974,364.741669 283.032013,361.216949 293.834534,360.202972 
	C296.397461,359.962402 298.789001,360.507294 301.361084,358.898560 
	C304.398621,356.998779 306.708679,358.886719 307.347595,362.999512 
	C305.779602,364.437164 304.823914,361.318390 303.065002,362.216919 
	C304.720642,364.294067 306.161438,366.101685 307.620880,367.932678 
	C309.188995,368.162628 308.277191,365.548065 310.167786,365.983246 
	C310.487274,366.279694 310.957703,366.733429 311.447418,367.165283 
	C311.865784,367.534149 311.988434,368.436646 312.873596,368.001434 
	C315.900330,357.316223 313.569550,352.085510 306.355011,353.491974 
	C305.000610,352.010284 304.695679,349.395996 301.874146,349.384644 
	C287.986115,349.328827 274.071533,349.113861 262.244812,359.728973 
M268.563446,390.278229 
	C267.820221,392.572571 265.856415,395.336517 268.501160,397.080750 
	C271.791138,399.250641 272.983704,395.521118 274.629608,393.730530 
	C280.151123,387.723572 286.500885,383.064240 294.562775,381.142365 
	C296.694061,380.634277 298.963501,379.882263 302.297821,382.394104 
	C290.975006,384.642975 282.050751,389.074493 275.476990,397.797729 
	C288.028503,402.017273 301.122803,396.554779 306.131317,385.445557 
	C307.955811,381.398682 305.908356,377.307678 301.646088,376.607361 
	C299.822235,376.307709 298.278076,377.554535 296.351868,377.509094 
	C285.373383,377.250244 277.176422,383.493866 268.563446,390.278229 
M209.571136,392.978699 
	C211.748581,391.334747 214.046173,390.089905 216.928452,390.635040 
	C222.454147,391.680054 220.179245,397.341003 221.995819,400.349854 
	C223.421890,400.020874 223.646408,399.382538 223.569000,398.702454 
	C222.927628,393.067017 224.509262,389.426727 230.077118,386.266083 
	C234.698761,383.642609 229.669785,377.748505 230.790283,373.327209 
	C231.203079,371.698364 230.595474,369.976105 228.513351,369.477417 
	C228.190414,369.400085 227.860214,369.353149 227.537109,369.276398 
	C224.439667,368.540649 216.800674,372.516510 215.642746,375.774811 
	C214.873672,377.938965 214.259537,380.633575 217.375610,381.608856 
	C220.103622,382.462708 221.716049,380.871033 222.614105,378.325745 
	C223.057190,377.069916 222.187378,375.165863 224.594772,374.550476 
	C226.260605,378.597839 225.710236,382.082520 221.875275,384.363220 
	C218.743408,386.225769 215.391968,386.103424 212.851715,383.087128 
	C209.964218,379.658508 211.530426,374.456970 217.241653,368.622437 
	C215.167587,367.985321 213.416580,367.421295 211.354538,368.467468 
	C211.242767,374.374725 210.344177,379.463104 203.152542,380.786346 
	C200.373978,381.297607 198.870346,387.935516 200.564255,391.043427 
	C202.451920,394.506897 205.393906,395.387634 209.571136,392.978699 
M188.360916,379.180450 
	C187.487503,385.918457 181.866379,389.056488 175.281097,386.117279 
	C172.731903,384.979523 170.447433,384.449432 168.344803,386.260376 
	C166.177689,388.126862 165.513794,390.857544 166.308701,393.571899 
	C167.277710,396.880737 168.175430,400.616058 172.456299,401.157990 
	C178.032227,401.863953 182.214828,399.750427 183.941391,395.354401 
	C185.460846,391.485657 187.277634,387.949646 191.632858,386.857178 
	C194.927719,386.030670 197.986237,384.368561 196.444092,380.927612 
	C195.336594,378.456482 191.955338,376.815948 188.360916,379.180450 
M322.191864,405.071167 
	C319.890869,406.725708 317.019714,405.627930 314.392426,406.401306 
	C314.004211,410.894379 313.659576,415.126495 314.984802,418.779388 
	C329.041199,407.923615 333.335724,388.929443 348.989685,379.201569 
	C343.505432,380.044342 339.957001,385.105652 334.153107,384.505951 
	C333.100861,384.397247 333.200317,385.960480 332.844849,386.859253 
	C330.322021,393.237244 328.556305,400.069611 322.191864,405.071167 
M296.172882,289.218262 
	C299.436584,290.337402 300.339661,287.900208 300.119476,285.801300 
	C299.551849,280.390533 300.697968,275.490082 303.891907,270.756378 
	C301.704193,270.902679 300.219727,271.042542 298.732208,271.094238 
	C292.855316,271.298492 289.485718,275.675720 290.791473,281.477631 
	C291.475555,284.517151 293.052979,286.998474 296.172882,289.218262 
M241.051971,506.449188 
	C240.240158,506.838898 239.584518,507.470215 239.889313,508.375885 
	C242.026230,514.725708 248.568420,516.735352 253.921982,512.876282 
	C252.381271,507.215637 250.051880,502.835602 243.090073,506.594391 
	C242.757584,506.773926 242.141373,506.427948 241.051971,506.449188 
M283.848938,510.299530 
	C281.198822,508.370667 280.494690,506.287079 282.812988,503.461761 
	C284.255219,501.704163 283.715179,499.307312 283.843658,497.179626 
	C283.996185,494.654297 282.440491,494.677826 280.355896,495.130035 
	C279.634491,501.674561 278.480103,508.073242 278.526459,515.090393 
	C280.971497,513.694275 282.477753,512.450256 283.848938,510.299530 
M149.310242,448.708679 
	C151.703629,449.018219 154.123184,449.425873 156.099075,447.175568 
	C154.164642,444.927063 152.275497,443.326263 149.527176,444.699249 
	C147.997040,445.463623 146.605759,446.674194 149.310242,448.708679 
M325.734589,474.835083 
	C322.502319,476.030945 320.425507,477.859283 322.000580,482.191498 
	C325.598145,479.189728 327.060852,475.269623 328.722534,471.474243 
	C327.876434,472.460602 327.030334,473.446960 325.734589,474.835083 
z"/>
<path fill="#000000" opacity="1.000000" stroke="none" 
	d="
M184.129272,499.574951 
	C191.444382,505.179016 192.888046,512.513000 191.655502,520.723633 
	C191.410690,522.354492 190.661224,523.908569 190.405182,525.538940 
	C189.738037,529.787354 191.408478,531.742126 195.751068,531.963257 
	C196.745636,532.013916 197.746826,531.916870 198.744339,531.930969 
	C205.320068,532.023987 208.793259,535.803955 208.335938,542.442261 
	C207.781311,550.493591 202.118484,554.600586 195.870697,558.032837 
	C190.395096,561.040894 184.919952,560.319580 179.886826,556.799316 
	C175.733810,553.894592 173.467880,549.624146 172.367142,544.804993 
	C171.305771,540.158325 169.096695,537.977173 163.865433,537.772888 
	C154.280945,537.398621 150.683441,529.399292 155.841660,521.102905 
	C156.017014,520.820923 156.239639,520.568115 156.413284,520.285156 
	C162.649445,510.122559 162.847717,510.083099 172.857361,518.367310 
	C169.982315,511.244171 164.618484,504.889740 172.948730,499.613678 
	C176.511795,497.356903 180.135147,497.293640 184.129272,499.574951 
M181.970627,503.421722 
	C178.736053,501.677032 175.884598,501.896790 173.695007,505.124084 
	C172.724670,506.554291 172.093567,508.086060 173.212402,509.758453 
	C173.891205,510.773102 174.746506,511.619690 176.070099,511.325562 
	C178.572357,510.769562 175.900360,508.191620 177.825180,507.095184 
	C180.483231,508.306427 181.970261,510.421387 179.543488,512.729187 
	C177.005829,515.142334 176.184677,517.716064 175.858841,520.986389 
	C175.605804,523.526001 174.219025,525.938416 171.163681,525.962524 
	C168.408630,525.984253 167.921844,523.565247 167.250885,521.482239 
	C166.586670,519.420105 166.600647,516.695007 162.850739,516.841003 
	C163.073914,519.561462 161.791351,521.385864 159.905731,523.088562 
	C158.047867,524.766174 157.638229,527.136230 158.566391,529.538330 
	C159.355072,531.579407 160.853043,532.558105 163.129852,532.785339 
	C172.364975,533.706726 173.417267,534.681458 176.173080,544.054138 
	C178.178131,550.873474 182.269562,554.499817 188.302383,554.804504 
	C195.135437,555.149658 201.487442,551.369446 203.983368,545.472412 
	C206.275787,540.056213 203.531982,535.984802 197.797913,536.294006 
	C187.390823,536.855042 183.735123,532.057556 187.116562,522.276611 
	C189.643707,514.966736 188.027145,508.330383 181.970627,503.421722 
z"/>
<path fill="#000000" opacity="1.000000" stroke="none" 
	d="
M430.867615,304.181885 
	C435.014099,309.672119 436.718231,314.990387 432.406616,320.919708 
	C430.538055,323.489410 431.251617,325.750916 433.678558,327.877899 
	C439.856323,333.292267 440.778625,337.531250 437.431763,343.485748 
	C434.031158,349.535797 427.988220,352.489685 421.325043,349.941254 
	C411.440674,346.160828 403.256348,347.430115 395.965790,355.296539 
	C394.118591,357.289612 391.330048,358.504395 388.816864,359.763031 
	C385.459229,361.444580 381.996521,361.487305 378.978912,358.942505 
	C375.924133,356.366333 375.476898,353.089325 376.903442,349.438934 
	C377.254059,348.541779 377.379639,347.556641 377.684387,346.299438 
	C373.066956,344.468781 370.494049,341.430298 371.878693,336.278473 
	C373.348022,330.811584 378.569611,325.984100 383.440460,325.601715 
	C384.009552,327.423767 382.360504,327.766510 381.434326,328.533234 
	C378.843781,330.677856 376.465271,332.982574 375.242004,336.214844 
	C373.834137,339.934906 375.181519,342.368561 379.053864,342.136017 
	C383.842407,341.848511 383.105804,343.902069 381.783569,346.910736 
	C380.461365,349.919403 377.308441,353.159790 381.232025,356.259430 
	C384.896362,359.154236 388.199158,356.341217 391.270996,354.592590 
	C393.411377,353.374237 395.254059,351.592285 397.118164,349.936523 
	C403.549011,344.224304 410.720184,342.545471 418.839203,345.785583 
	C422.981873,347.438843 427.066406,348.453857 431.219452,345.707458 
	C436.809143,342.010956 437.326355,335.461670 432.281708,331.179138 
	C427.495453,327.116028 426.818085,324.158386 430.048279,318.672333 
	C432.553772,314.417114 431.719940,310.590881 429.047516,307.068726 
	C425.542145,302.448761 420.477722,301.549347 415.108124,302.487885 
	C410.872345,303.228241 407.786255,305.699585 406.653809,310.019135 
	C405.352478,314.982910 408.501495,319.224579 413.099670,318.936493 
	C414.883698,318.824707 416.359863,318.263397 417.108582,316.498688 
	C418.036407,314.311981 416.335022,313.572784 414.971405,312.635864 
	C414.060425,312.009857 412.742249,311.683716 413.035126,309.716095 
	C416.906677,309.380280 419.914825,310.922821 420.746002,314.655273 
	C421.510132,318.086884 419.510925,320.716400 416.055603,321.899933 
	C411.323242,323.520752 406.456024,321.450409 404.317444,316.940582 
	C401.913239,311.870605 403.808716,305.157135 408.566254,301.892029 
	C415.335083,297.246552 423.579468,297.997620 430.867615,304.181885 
z"/>
<path fill="#000000" opacity="1.000000" stroke="none" 
	d="
M217.450424,334.762207 
	C219.247070,332.682922 221.057480,332.254028 222.880463,333.890076 
	C225.256866,336.022797 223.294815,338.111389 222.391983,340.516937 
	C226.550064,340.744812 227.378845,337.150055 229.603333,334.476593 
	C231.254578,338.046051 229.620148,340.210052 227.573410,342.058594 
	C225.306305,344.106140 222.589661,344.717926 219.747650,343.249847 
	C216.210098,341.422455 216.217392,338.400879 217.450424,334.762207 
z"/>
<path fill="#000000" opacity="1.000000" stroke="none" 
	d="
M133.297760,481.773102 
	C133.875687,480.210358 134.077591,478.757141 135.853943,478.772034 
	C137.345078,479.890869 136.268997,481.249634 136.220505,482.456207 
	C135.937637,489.495300 140.185287,493.016968 147.067917,491.235626 
	C153.990509,489.443878 158.214630,484.924072 159.907364,478.006866 
	C160.618042,475.102844 161.072891,472.110840 162.063278,469.306946 
	C163.366653,465.617004 165.545685,462.606964 170.637543,462.557495 
	C163.402390,467.484283 164.674393,475.682007 162.095901,482.375977 
	C159.044693,490.297180 152.757904,494.320343 144.486481,495.079041 
	C137.186417,495.748688 132.826416,490.580872 133.297760,481.773102 
z"/>
<path fill="#000000" opacity="1.000000" stroke="none" 
	d="
M361.586090,492.961853 
	C363.178070,490.270142 365.270721,489.848206 368.310303,491.057434 
	C366.309143,493.445099 364.235443,494.148590 361.586090,492.961853 
z"/>
<path fill="#000000" opacity="1.000000" stroke="none" 
	d="
M256.784973,329.228180 
	C255.107956,325.857697 256.727142,324.439941 261.808044,325.018311 
	C260.922485,327.342529 258.538269,327.757172 256.784973,329.228180 
z"/>
<path fill="#000000" opacity="1.000000" stroke="none" 
	d="
M274.163849,498.236877 
	C274.153229,509.969604 274.153229,521.225952 274.153229,532.482361 
	C273.490540,532.485107 272.827850,532.487915 272.165161,532.490662 
	C270.693756,514.146790 273.863007,495.730286 272.840973,477.551270 
	C275.758606,480.006622 275.758606,480.006622 274.163849,498.236877 
z"/>
</svg>