<svg version="1.1" id="Layer_1" xmlns="http://www.w3.org/2000/svg" xmlns:xlink="http://www.w3.org/1999/xlink" x="0px" y="0px"
	 width="100%" viewBox="0 0 560 1008" enable-background="new 0 0 560 1008" xml:space="preserve">
<path fill="#000000" opacity="1.000000" stroke="none" 
	d="
M329.024658,584.987000 
	C329.468964,588.837708 333.761139,590.332764 334.401520,594.297913 
	C335.329712,600.045471 332.492706,604.342957 329.643768,608.542847 
	C325.593506,614.513733 319.635315,618.168640 312.795807,620.245911 
	C308.792908,621.461731 305.646942,618.732971 302.686829,616.890320 
	C298.508789,614.289673 295.113007,614.313965 291.508057,617.573181 
	C288.334778,620.442139 284.756958,620.713928 280.820923,619.057739 
	C276.632965,617.295532 273.155426,618.417786 270.337921,622.309204 
	C275.379944,623.612793 280.117218,625.002686 284.491821,627.523315 
	C288.166809,629.640747 288.629547,632.521851 286.197205,635.342896 
	C278.777527,643.948181 270.683655,651.663879 258.796295,653.845581 
	C256.085297,654.343140 253.419525,655.638733 251.201614,657.461914 
	C247.647125,660.383850 243.946274,660.419922 240.096924,658.195801 
	C236.328934,656.018738 233.396118,652.804199 230.569763,649.645508 
	C227.009125,645.666138 229.665039,642.400818 232.605560,639.306763 
	C235.547485,636.211182 237.958755,636.714966 241.159988,639.242737 
	C247.071762,643.910767 253.209000,642.367432 255.889633,636.032837 
	C257.548004,632.114014 255.897980,628.609619 251.817169,629.232361 
	C245.769684,630.155273 241.963211,626.397400 237.350037,624.223694 
	C236.667633,623.902161 235.708862,623.047791 235.744232,622.495361 
	C236.104675,616.869507 231.691330,617.050293 228.285812,616.562561 
	C221.695847,615.618530 218.141617,611.718872 219.941864,605.168823 
	C221.353088,600.034241 219.470917,597.487976 215.389603,595.815979 
	C211.811295,594.350098 210.303726,590.732483 207.141830,588.445557 
	C204.889542,591.079651 202.638046,593.905823 204.957947,596.853516 
	C206.719437,599.091553 210.845840,597.098328 213.460083,599.651611 
	C208.044693,606.234863 209.120224,614.099487 209.436142,621.800049 
	C209.515930,623.744629 209.780060,625.536926 207.411041,626.218506 
	C205.321213,626.819702 203.892624,625.756958 202.703629,624.208496 
	C200.890137,621.846802 199.869202,619.220886 200.817245,616.274292 
	C201.833359,613.116150 200.817764,611.033997 197.810013,609.983459 
	C192.037949,607.967285 190.948364,603.364868 190.817307,598.037415 
	C190.625931,590.258118 192.998398,583.272583 197.081421,576.786072 
	C198.066132,575.221741 199.513504,573.675537 198.169128,571.815796 
	C189.280334,559.518982 188.436172,544.006714 181.715286,530.844727 
	C180.314941,528.102356 178.977921,525.918091 175.572800,524.946411 
	C171.477234,523.777710 169.952209,520.015320 171.032715,516.115906 
	C172.741852,509.947723 175.367691,504.203918 181.982559,501.503662 
	C186.528671,499.647888 187.766922,495.969849 186.682693,491.454498 
	C182.476166,473.936432 182.157135,455.839478 178.683990,438.215302 
	C178.428909,436.920929 178.222580,435.598969 177.791183,434.360352 
	C175.715988,428.402222 178.630798,423.903503 184.927399,422.992920 
	C187.083267,422.681183 186.963699,424.866791 187.991394,425.258789 
	C189.721024,425.363983 190.235687,423.335724 191.809723,423.774231 
	C193.172836,424.659393 191.872681,425.953827 192.140839,426.600250 
	C201.054031,425.711212 208.728836,427.768677 214.952881,434.309204 
	C214.814560,430.359314 210.465485,425.376953 206.294403,425.245483 
	C202.807083,425.135559 199.885529,423.938751 196.799942,422.636078 
	C191.741318,420.500488 186.319595,420.851532 181.025146,421.417480 
	C177.030090,421.844543 176.081055,425.201233 175.704346,429.063049 
	C171.450455,426.191071 172.669922,423.623138 175.222092,421.165375 
	C180.285065,416.289886 189.073532,415.374146 196.750839,419.031769 
	C199.930344,420.546539 202.946091,421.926849 206.680557,421.718445 
	C210.128418,421.526001 218.387115,429.294342 218.821304,432.506042 
	C219.538651,437.812561 214.192566,442.604248 207.184479,442.860901 
	C205.862823,442.909332 204.523972,442.542297 203.205292,442.609009 
	C195.966248,442.975311 193.257294,445.495514 194.375854,452.771057 
	C196.369171,465.736328 199.128433,478.585602 201.661026,491.465027 
	C202.307190,494.751007 205.060120,495.603546 207.905945,496.391388 
	C210.653961,497.152191 211.041580,494.879089 212.446884,493.605286 
	C216.839294,489.623901 219.899673,483.593201 227.360229,484.075684 
	C229.924927,484.241547 230.747864,481.736267 230.731918,479.361694 
	C230.611923,461.488190 232.568497,443.808289 235.723465,426.246368 
	C236.720322,420.697357 234.958908,415.330475 235.188751,409.177216 
	C237.058777,405.213043 237.436462,400.992859 242.150574,399.995636 
	C245.194000,406.794250 247.982040,397.596771 250.712387,399.528046 
	C252.176224,401.216095 249.790146,402.071136 250.494980,403.407318 
	C252.753906,403.652435 253.873642,401.340027 256.285675,401.061035 
	C257.103638,404.129456 259.819519,402.767578 261.698425,402.817566 
	C262.847961,404.655243 260.406128,405.208832 261.078430,407.010559 
	C265.253815,404.831665 269.734467,407.364105 273.944000,406.250244 
	C274.018250,407.693756 272.148071,408.046265 272.804077,409.777832 
	C275.631073,407.687897 277.110046,412.673401 280.073303,411.271973 
	C280.734192,412.789185 278.769623,413.978668 280.201477,415.352448 
	C281.878479,415.722626 283.694336,416.123474 286.678436,416.782135 
	C284.096680,414.018921 282.517914,412.002319 279.823059,410.737640 
	C278.084900,408.564606 276.152435,407.136719 273.707764,405.806122 
	C268.142273,402.443054 262.098846,401.036072 256.602753,398.398041 
	C250.362686,395.402893 244.488449,396.298065 238.515976,399.036682 
	C233.055542,401.540527 232.287613,403.556366 235.049377,409.033112 
	C232.995575,410.140930 231.149506,409.788116 229.675385,408.050873 
	C228.156815,406.261261 229.312408,404.595428 230.193298,403.002747 
	C234.028580,396.068481 245.499817,390.780060 253.062210,393.362488 
	C264.566528,397.291046 275.919281,401.842529 285.327179,409.879272 
	C287.727234,411.929504 291.903656,413.586121 290.065582,418.155609 
	C287.762848,423.880219 282.172516,427.726837 277.448822,427.502838 
	C271.802460,427.235107 266.139618,427.334656 260.485748,427.199036 
	C256.440704,427.102020 253.832611,429.025421 252.506180,432.723724 
	C248.373276,444.247009 245.784271,456.059570 246.376175,468.382782 
	C246.698013,475.083466 247.201004,475.442078 254.017090,475.633026 
	C265.634033,475.958405 272.157654,485.362061 268.572266,496.403320 
	C267.377350,500.083130 263.863342,504.842804 268.624390,507.417084 
	C273.495270,510.050842 275.208984,514.588013 278.116425,518.427795 
	C280.427338,517.364929 281.923187,516.306030 280.072144,513.835693 
	C275.652344,507.937073 278.607269,501.047363 276.762878,493.991455 
	C281.077118,496.261597 280.327393,499.463745 280.312073,502.258667 
	C280.291168,506.061890 281.593353,507.617889 285.947205,505.740082 
	C280.391571,500.993683 287.932343,495.634399 284.746368,490.428558 
	C281.597656,491.253632 278.480469,492.070435 275.271118,492.911377 
	C275.331482,496.427795 278.091858,499.822296 275.199738,503.392395 
	C274.336273,498.263275 269.373077,494.069366 272.204468,487.664490 
	C276.321228,489.077667 280.212677,488.830109 284.261841,487.283844 
	C287.762115,485.947266 288.478088,488.663269 288.367767,491.524841 
	C288.245514,494.697449 288.460052,497.634857 292.537354,498.132874 
	C296.034088,494.850372 298.505127,491.136261 298.146698,486.373871 
	C300.971436,485.229919 302.601257,487.406738 304.949249,487.751526 
	C306.466492,484.764496 305.215637,481.998627 304.430450,479.214905 
	C303.069183,474.389069 304.858093,471.872589 309.867493,471.677307 
	C313.583832,471.532410 316.932343,473.016235 320.437836,473.887207 
	C324.004059,474.773254 324.871307,468.234192 329.303040,468.593231 
	C330.510956,470.756012 329.230988,472.466888 328.335419,474.144836 
	C327.482758,475.742462 325.966888,477.169373 327.733826,479.023346 
	C328.535889,479.864960 329.423096,480.838226 330.741302,480.211609 
	C332.518585,479.366821 333.545563,477.911163 333.666626,475.893250 
	C333.843414,472.946106 335.356110,471.193665 338.345062,471.134521 
	C340.363739,471.094574 341.577728,472.646088 342.808014,474.023987 
	C343.678070,474.998383 344.589691,475.935699 345.690796,477.111816 
	C349.189026,474.116058 345.599426,467.266754 352.683289,466.137695 
	C352.111267,471.221649 354.838806,474.981995 357.577301,478.841888 
	C358.423981,480.035278 358.334930,482.062286 358.279114,483.694122 
	C358.118652,488.388428 358.039307,488.385712 361.151672,491.877411 
	C362.116486,491.761139 362.415833,490.937134 362.883759,490.274353 
	C363.837646,488.923096 364.797607,487.084137 366.776825,488.409760 
	C368.578461,489.616486 367.778809,491.137970 366.779907,492.720154 
	C364.938385,495.637054 366.072174,497.497559 369.648895,497.748047 
	C372.584686,497.953705 375.127655,496.469849 377.854553,495.779572 
	C385.784973,493.772217 394.843079,497.285583 396.016479,503.416412 
	C397.547089,511.413574 397.066193,520.159790 384.929443,523.536194 
	C389.682922,523.556458 392.714996,523.247375 395.595306,520.185791 
	C399.455627,516.082520 406.731537,516.363708 410.655121,519.915100 
	C414.137054,523.066711 414.495819,530.028748 411.199738,534.596741 
	C408.946075,537.720093 406.749969,540.649231 407.170715,544.918518 
	C407.332001,546.554810 406.613190,549.090332 405.406769,549.913269 
	C398.992920,554.288574 394.763519,561.815613 385.899353,562.780396 
	C381.351715,563.275391 377.353607,563.543701 373.876526,560.049377 
	C371.057098,557.215942 367.755768,555.944397 363.560822,556.263245 
	C358.779694,556.626648 354.386047,555.192139 351.493530,550.758484 
	C349.621735,554.029907 349.656342,554.302124 353.012634,555.764709 
	C357.139099,557.562988 361.135925,559.533936 364.700531,562.341553 
	C369.243713,565.919922 371.634949,572.377625 370.066803,577.864380 
	C368.879395,582.018860 367.041718,585.261902 361.579987,583.710327 
	C358.931366,582.957947 356.364075,583.880371 354.694092,586.964905 
	C357.387726,588.484009 360.311157,588.141602 362.924896,588.915405 
	C367.975891,590.410828 372.829620,592.234253 374.050354,598.281250 
	C374.597961,600.994202 374.419891,603.532471 371.695557,605.663574 
	C364.845856,597.245667 355.012207,596.206299 345.506592,594.417908 
	C343.837830,594.104004 342.108734,593.842651 340.911621,592.665100 
	C337.604736,589.412415 334.116577,586.525574 329.263855,584.815552 
	C329.992218,574.697632 333.841034,565.903625 335.939514,556.671631 
	C330.143616,554.722534 325.794525,547.740356 327.156250,542.411865 
	C330.262878,543.348389 329.828369,547.159180 333.308014,549.515808 
	C330.113037,543.722717 330.519379,538.473633 330.405579,532.714294 
	C326.684937,535.437561 321.500732,534.913330 320.332123,540.052185 
	C319.744385,542.636841 319.437683,545.284058 318.945007,547.891846 
	C318.090302,552.415588 316.769592,556.432007 311.848236,558.490295 
	C309.334351,559.541687 307.199524,561.713440 305.173920,563.669373 
	C301.926086,566.805542 302.915894,570.888977 303.798065,574.489258 
	C304.572876,577.651184 307.484283,576.181030 309.736237,576.070496 
	C314.885406,575.817932 317.081390,577.943115 316.984009,583.049683 
	C316.478546,583.892395 316.095795,584.541626 315.493225,585.390259 
	C314.135437,586.932312 312.159271,588.111755 313.308777,590.190186 
	C314.323608,592.025146 316.401764,591.878174 318.242859,591.747803 
	C320.435425,591.592590 322.527771,591.942505 324.595459,592.659851 
	C329.746277,594.446838 330.700409,596.810913 328.168518,601.716309 
	C327.113770,603.759827 326.020477,605.783508 324.944733,607.816223 
	C332.475616,600.114502 332.689545,596.663208 326.836670,588.294983 
	C324.485535,584.933411 323.030487,581.299500 324.026672,577.028381 
	C329.525970,577.906128 326.677490,582.866028 329.024658,584.987000 
M309.678040,555.827698 
	C316.458282,553.133667 315.456848,547.181274 316.138428,541.680725 
	C306.889923,542.085510 304.707550,545.932007 308.769501,553.602905 
	C309.119385,554.263611 308.943237,555.202820 308.298218,555.889099 
	C306.268433,555.209900 304.238617,554.530701 301.533264,553.625488 
	C302.122009,558.308533 298.692413,556.316284 296.143066,556.519165 
	C296.974365,560.595398 297.715820,564.230896 298.457275,567.866455 
	C300.075531,562.027466 305.730164,560.039917 309.678040,555.827698 
M210.697113,556.409302 
	C212.341400,554.099426 216.977890,554.473083 216.580719,550.523010 
	C216.024185,544.987793 215.835831,539.351807 214.026306,533.551208 
	C205.055130,537.659302 203.215836,546.758179 198.657288,554.314819 
	C197.070114,552.346375 196.174301,550.416260 193.983902,551.632141 
	C192.983917,548.424316 196.147278,546.915100 196.033447,544.288208 
	C195.096283,544.606079 194.308609,545.757141 193.302658,544.985901 
	C192.043106,544.020203 192.940155,542.987732 193.351883,541.898560 
	C196.861588,532.614258 202.728928,525.196045 211.215622,519.620300 
	C205.173965,518.077454 202.138626,519.633545 198.326141,526.787537 
	C196.534134,530.150146 193.950668,531.384521 189.950760,531.858582 
	C189.695404,526.228699 192.437332,521.739380 194.581848,517.250427 
	C197.692947,519.834717 193.160629,522.872131 194.975174,525.935913 
	C198.154205,522.240417 200.423264,518.261353 204.544785,515.496643 
	C199.852234,511.954163 197.009644,514.925537 193.378677,517.303040 
	C189.577652,522.074158 187.448532,528.336243 187.752213,533.573853 
	C188.199387,541.286865 191.329865,549.015991 194.240051,556.373291 
	C198.331055,566.715759 203.722031,576.455200 211.233459,585.642822 
	C212.429810,588.348083 214.870468,589.861755 216.915833,591.802917 
	C221.846100,596.482239 228.581436,596.292542 234.330017,598.699707 
	C248.287338,604.544189 257.388702,596.212280 263.164825,583.089783 
	C260.428772,584.030762 259.510803,588.150879 255.035645,586.962891 
	C258.279083,582.354492 262.325256,579.090820 264.489136,574.219910 
	C266.660675,576.168152 267.290802,578.615479 269.755341,578.777161 
	C272.599762,577.241516 272.755005,574.809448 272.513519,572.028320 
	C269.752350,574.854980 268.963226,572.865784 268.815247,570.650574 
	C268.571442,567.001404 268.732239,563.326843 268.638580,559.665161 
	C268.596191,558.006287 268.964050,556.065918 266.418732,554.950500 
	C266.092682,560.008972 265.790588,564.624390 265.500549,569.240601 
	C265.418549,570.545776 265.674438,572.649353 264.271606,572.665588 
	C260.872925,572.704895 260.208893,575.781250 258.156647,577.237793 
	C256.664581,578.296631 255.490219,580.384644 251.855850,578.851379 
	C256.076935,574.689148 260.968323,571.411865 262.442535,565.679077 
	C259.316925,566.152161 259.108276,565.943237 260.113953,563.001953 
	C261.279144,559.594238 264.079803,556.500671 262.070679,551.971863 
	C257.598022,558.791870 254.145615,565.950378 246.442902,569.223450 
	C249.699738,563.936096 254.920166,560.085083 257.003510,554.000488 
	C257.003510,554.000488 257.035858,553.968384 257.520020,553.468506 
	C260.180725,551.055725 260.824066,548.090149 260.790558,544.522461 
	C260.718231,536.825012 259.049927,529.301514 258.741364,521.651184 
	C258.334106,511.554688 252.810898,504.498932 245.246918,498.639709 
	C244.580582,498.123566 243.722168,497.116089 242.578705,498.536713 
	C243.665939,501.161591 248.244553,499.685669 248.648499,503.293549 
	C245.200485,504.997620 242.206268,501.350128 238.811279,502.751923 
	C238.258820,506.744049 236.667374,510.955994 233.080719,512.207214 
	C230.432373,513.131042 227.023666,510.591553 223.519867,507.905121 
	C227.400955,506.421478 231.201019,505.444336 231.355225,500.799652 
	C228.653687,499.976074 227.284592,501.824341 225.656067,503.123322 
	C222.795166,505.405365 222.533630,509.663910 219.832062,511.688782 
	C213.618454,516.346069 215.305435,521.808411 216.856735,527.335876 
	C222.094284,525.891235 223.450851,521.114258 225.912949,516.798401 
	C227.282089,519.158813 228.232056,520.796570 229.142761,522.366638 
	C229.048401,524.177795 225.898209,524.404663 226.831360,526.802429 
	C229.217834,526.423645 230.136398,523.562195 232.899704,524.031311 
	C234.647217,527.629028 233.655640,531.034912 232.398315,534.608276 
	C229.547791,533.439697 231.670120,530.623657 230.163727,529.464600 
	C226.859375,529.938354 228.018097,533.262695 226.305817,535.247498 
	C224.979431,533.835876 223.113739,535.167847 221.660553,533.938293 
	C221.675140,531.615540 225.339020,530.022217 222.887314,527.106995 
	C218.853485,528.885071 216.999268,531.075195 217.981293,536.200195 
	C220.163177,547.586914 219.486374,559.363037 222.587189,570.748230 
	C223.321075,573.442810 226.419449,575.381165 225.177414,578.644226 
	C223.782654,582.308533 223.902863,585.716431 226.631821,588.898132 
	C227.526794,589.941589 227.422913,591.441895 225.457626,592.222168 
	C217.871979,585.268250 219.301041,575.455811 217.605118,566.519592 
	C216.159531,571.810242 213.049286,576.514771 214.812210,582.331482 
	C215.726990,585.349731 213.686325,586.140320 210.845993,584.150024 
	C210.173218,577.802734 213.285980,572.110596 214.405548,565.491394 
	C216.009094,562.803223 218.798325,560.378174 216.246597,556.655884 
	C213.837509,559.440186 214.118042,562.784607 213.412888,566.323486 
	C210.732086,567.090271 211.496704,570.830078 208.077866,572.001770 
	C206.364319,567.297546 211.084579,564.216248 210.792999,560.205444 
	C209.029724,560.518127 208.032303,563.974060 205.583496,561.646179 
	C205.380447,559.234802 207.653748,559.320068 209.220062,557.773804 
	C209.546646,557.439209 209.873230,557.104614 210.697113,556.409302 
M332.000000,500.000000 
	C332.000000,500.000000 331.996338,499.996338 332.529449,500.417786 
	C335.973541,502.950043 337.290985,507.023163 339.882568,510.297791 
	C342.550629,508.837189 344.516815,504.543365 348.682465,507.235992 
	C350.418365,508.358063 350.780945,510.306946 349.840820,512.131531 
	C348.727112,514.292969 347.434021,516.512024 344.532471,515.500610 
	C343.117950,513.167419 347.011017,512.630554 345.579041,510.326996 
	C341.891754,511.375153 340.650024,514.321838 339.460205,517.367432 
	C346.322723,521.563965 346.429474,521.270508 351.292175,515.599548 
	C353.604919,512.902466 353.390808,509.298920 355.722565,506.826630 
	C362.285858,499.867676 362.215393,498.149261 355.117493,491.547943 
	C352.492828,492.356506 353.158966,495.148529 352.012512,496.855499 
	C350.957794,498.425873 350.080902,500.013092 347.882172,499.936371 
	C345.867554,499.866089 344.418793,498.842865 343.475159,497.121399 
	C342.312439,495.000183 343.254578,493.295502 344.657501,491.703918 
	C346.569763,489.534485 349.025543,488.244873 351.589111,486.968750 
	C355.710571,484.917114 356.280365,482.314392 353.731079,478.466003 
	C352.848297,477.133392 351.690704,475.982880 350.513672,474.575897 
	C349.872620,477.253723 348.870392,479.287292 346.482361,480.297577 
	C341.062317,482.590485 341.779938,475.124908 337.724152,474.685547 
	C336.246338,479.082336 334.719879,483.861786 329.367462,483.985870 
	C325.834290,484.067810 324.558807,480.405029 323.108063,477.157257 
	C320.301483,479.100861 317.968506,479.120270 315.458313,476.160797 
	C313.863220,474.280182 310.653412,474.393097 308.431793,475.629944 
	C306.172333,476.887787 307.646423,479.199402 307.955200,481.077972 
	C308.197937,482.554932 308.649506,484.015411 308.727509,485.498016 
	C308.911865,489.002319 307.994507,493.301361 304.744598,493.750214 
	C300.305939,494.363190 299.356964,497.155273 297.162292,500.416962 
	C300.419769,501.250488 301.744293,503.996429 304.357300,505.656799 
	C306.589111,502.417664 309.469574,500.328461 313.312531,499.364410 
	C312.690308,496.191986 312.115906,493.250214 312.807800,490.287354 
	C314.047119,484.980347 319.069305,482.169434 323.844452,484.234009 
	C325.773376,485.067993 328.471558,485.943207 327.819611,488.589966 
	C327.122406,491.420532 324.901184,493.120850 321.787415,492.774017 
	C320.334961,489.834442 324.780945,490.051971 323.851868,487.377991 
	C321.140778,485.540375 318.700897,486.164490 316.752289,488.839325 
	C314.169495,492.384705 315.084259,495.807434 319.571991,499.871307 
	C319.345673,501.524078 316.732117,501.770203 317.210114,504.049530 
	C318.266266,505.114380 319.341766,507.753174 321.137177,506.702820 
	C324.641632,504.652588 328.437866,505.244690 331.669586,504.930359 
	C332.701324,502.934052 327.266998,501.507935 332.000000,500.000000 
M370.180908,550.734985 
	C367.022583,549.148682 364.992065,546.223816 362.453918,543.876953 
	C359.441254,545.300354 356.643738,546.622009 353.698486,548.013550 
	C356.105896,553.073853 360.645599,553.911499 364.798950,553.368042 
	C369.043579,552.812561 371.769745,554.269043 374.584442,556.840393 
	C379.559784,561.385498 388.749786,560.843506 393.686920,555.817932 
	C392.636200,554.471436 389.301453,555.605835 389.820374,552.924500 
	C390.338257,550.248657 392.972443,551.231812 394.843262,551.133362 
	C395.326599,551.107849 395.818634,551.366577 396.311829,551.390930 
	C400.161804,551.581238 402.766144,549.728516 403.725830,546.116577 
	C404.757568,542.233337 402.000885,541.304810 398.937256,540.759583 
	C397.833160,540.563110 396.563873,540.194214 396.926910,538.525269 
	C397.791168,537.451050 399.018494,537.682983 400.148468,537.635437 
	C405.904694,537.393250 408.465057,535.309631 410.002930,529.804077 
	C410.887329,526.637939 410.857483,523.777527 407.653625,521.971863 
	C404.633179,520.269409 401.569244,519.207092 398.513214,522.164368 
	C396.966522,523.661133 395.177338,524.924927 393.415802,526.178833 
	C388.370270,529.770508 382.757172,529.942932 377.932770,526.354553 
	C376.106140,524.995911 374.262085,525.389587 373.588562,526.674744 
	C371.302521,531.037109 366.950348,531.663574 363.062347,533.028259 
	C364.275482,541.059448 369.375061,548.073486 374.489655,548.771179 
	C378.247437,549.283752 380.396790,547.101379 382.125946,544.173157 
	C379.043091,546.063538 376.590942,546.429443 374.957428,542.358948 
	C377.902588,539.939514 381.079193,539.532715 384.416473,540.489563 
	C386.119873,540.978027 387.356049,541.995789 386.410675,544.204346 
	C383.722473,550.484314 377.127747,553.458862 370.180908,550.734985 
M239.173111,408.672821 
	C238.011734,410.719604 238.301376,412.820465 238.857285,414.969849 
	C239.792374,418.585510 239.592026,422.272247 239.068497,425.894501 
	C238.045959,432.969238 236.547394,439.983032 235.737152,447.078186 
	C235.020752,453.351318 234.971680,459.700684 234.628265,466.011169 
	C237.169479,466.004578 238.339371,463.536713 240.674271,464.912537 
	C240.823380,467.267975 240.621780,469.938599 243.013428,472.515656 
	C243.013428,470.428162 243.043427,468.949982 243.008682,467.473328 
	C242.742828,456.174683 245.090378,445.319031 248.496490,434.631287 
	C250.262161,429.090912 252.894287,424.719055 259.460419,423.849243 
	C263.113708,423.365295 265.791565,420.913422 266.939301,417.242767 
	C267.557770,415.264862 269.286926,413.139618 267.642578,411.159119 
	C266.048401,409.239105 263.502563,409.884857 261.516113,410.491821 
	C256.722534,411.956512 252.835190,410.806183 249.014664,407.704773 
	C246.041168,405.291016 242.627609,405.139435 239.173111,408.672821 
M350.094147,571.230591 
	C343.944702,569.691040 342.250366,571.173828 342.516846,577.861877 
	C341.813354,578.500427 340.953369,578.523987 340.178711,578.196533 
	C338.664032,577.556213 337.308258,577.265198 336.293121,578.976257 
	C335.399170,580.482971 334.745239,582.207397 335.821350,583.683105 
	C338.177856,586.914551 340.794891,590.948547 344.748718,591.173950 
	C351.090240,591.535461 356.579285,594.233643 362.497833,595.656860 
	C364.633026,596.170227 366.670166,597.534363 369.432068,596.947205 
	C366.584015,591.966187 361.896423,592.020386 357.534668,591.692566 
	C354.611359,591.472778 351.278381,591.613525 350.826355,588.081543 
	C350.397797,584.733032 353.204681,582.786011 356.072540,581.574768 
	C357.417725,581.006653 358.962311,580.756165 360.434540,580.669861 
	C366.930969,580.289246 368.687164,577.408997 366.203033,571.315002 
	C363.578125,564.875549 358.056335,561.806580 352.172546,559.345276 
	C348.858032,557.958679 346.765411,555.818604 345.169434,552.694641 
	C339.708588,542.005859 341.273315,532.236633 348.653839,523.002136 
	C344.298737,525.737122 340.970795,529.400757 339.077789,534.021973 
	C336.605225,540.057922 334.091003,546.576660 337.998138,552.700195 
	C340.894775,557.240112 344.261322,561.595337 348.784668,565.010437 
	C351.994202,567.433533 355.514099,570.109314 356.640015,574.423645 
	C357.301819,576.959534 356.397583,579.089111 354.003204,580.285461 
	C351.080750,581.745667 348.486694,580.737732 346.182953,578.793884 
	C344.995789,577.792175 344.883484,576.449280 345.767029,575.207764 
	C347.455963,572.834534 349.543335,573.885071 351.590851,574.643677 
	C351.805725,574.723267 352.146271,574.463562 352.443054,574.356079 
	C352.603271,572.937012 351.541168,572.308350 350.094147,571.230591 
M220.777969,504.348175 
	C223.504440,500.682465 226.432755,496.806244 231.475342,497.257751 
	C234.496826,497.528259 236.155258,496.395935 237.922287,494.569611 
	C240.525223,491.879272 243.574295,488.859833 247.351212,489.957428 
	C252.600220,491.482849 258.276276,492.023102 262.895325,495.220947 
	C266.077148,492.443329 262.943756,489.724304 262.863434,486.949951 
	C262.709930,481.647217 259.372864,479.737915 254.827362,479.180450 
	C250.493713,478.648956 246.199677,479.844666 241.928650,479.886993 
	C238.462784,479.921326 235.942627,480.582703 233.596649,483.116699 
	C231.103195,485.809998 228.857483,489.412231 224.074448,487.618103 
	C223.543060,487.418823 222.477661,488.107452 221.903107,488.644440 
	C217.618820,492.648895 214.484833,497.511292 211.792755,502.665497 
	C211.158600,503.879608 211.048203,505.339539 212.148590,506.393921 
	C213.419434,507.611633 215.038406,508.047211 216.779037,507.558685 
	C218.282166,507.136810 219.345840,506.064148 220.777969,504.348175 
M380.252777,513.611511 
	C383.802063,513.120239 382.308228,518.481567 385.699707,518.253479 
	C387.235199,516.779724 384.169128,513.894836 387.216644,512.826721 
	C388.898651,513.425232 387.944305,516.367371 390.343140,516.207275 
	C393.621643,511.867706 393.683319,506.633545 390.503296,502.611603 
	C387.057434,498.253326 382.245056,497.049896 377.380280,499.403625 
	C377.679199,500.279602 378.828949,500.949554 378.185455,502.144806 
	C376.974091,503.256744 374.901276,501.352600 373.701416,503.459808 
	C377.231689,503.922119 381.338715,503.347443 382.646881,507.777710 
	C381.527588,508.792694 380.831909,508.778107 380.291351,508.356537 
	C375.974518,504.989410 372.320435,506.410339 368.789337,509.753235 
	C366.066620,512.330811 363.250061,514.815674 360.385284,517.235352 
	C355.884216,521.037048 350.982208,524.479614 347.920532,529.652100 
	C345.366302,533.967224 344.560699,538.654053 346.398224,543.930054 
	C350.494171,534.315552 359.597198,531.009033 367.193970,525.915466 
	C365.582062,521.993469 370.330902,515.741760 377.067017,513.035217 
	C378.517975,515.193115 377.407745,518.933838 381.107849,520.107605 
	C381.061462,517.799194 379.104889,516.235413 380.252777,513.611511 
M191.275986,479.676880 
	C192.639069,477.674103 194.010147,479.206055 195.352783,479.865631 
	C195.959396,477.783997 195.017029,476.079224 194.749207,474.294952 
	C193.417480,465.422394 190.697327,456.740051 190.973663,447.650909 
	C191.054153,445.003387 191.102570,441.438629 194.211792,441.067719 
	C200.410706,440.328247 198.559418,436.218201 198.971863,432.109772 
	C193.401474,432.493561 188.250046,432.432922 183.958023,428.866516 
	C183.079285,428.136322 181.723602,427.961792 180.685364,428.824036 
	C179.486450,429.819733 179.700058,431.049591 180.112366,432.454041 
	C182.127686,439.318787 183.424713,446.343079 184.403854,453.422516 
	C185.352249,460.279724 186.212784,467.149078 187.101807,473.935974 
	C189.841629,474.306549 192.959763,470.795135 194.009155,475.679596 
	C191.030121,476.597412 187.692566,477.239105 188.885391,481.614777 
	C190.132385,481.623169 190.391235,480.722198 191.275986,479.676880 
M286.031525,553.296387 
	C281.872589,552.284729 277.713623,551.273071 273.554688,550.261414 
	C288.564087,563.359558 287.788696,578.717346 281.069794,595.504395 
	C289.581970,593.590149 295.769043,589.917419 300.947693,584.551147 
	C303.263062,582.151855 303.716675,580.004333 298.993256,579.381470 
	C298.858673,583.224792 295.572968,584.820923 294.143188,587.664062 
	C291.928192,586.513977 294.037842,585.100891 293.365784,583.998169 
	C291.479187,584.895691 291.160217,587.925903 288.151611,587.569702 
	C287.823364,584.127136 289.846069,580.998474 289.313385,577.414368 
	C289.086090,575.885193 291.788666,575.037781 293.225800,577.307129 
	C293.719543,578.086792 293.755096,579.436707 295.276215,578.508301 
	C295.914612,576.884705 293.325562,575.691895 294.405640,574.123718 
	C296.625031,573.080994 297.308136,576.635193 299.897980,575.128113 
	C298.095978,570.950500 295.840454,567.072693 292.385651,564.050781 
	C289.245148,561.303833 287.236481,558.017395 286.031525,553.296387 
M312.036926,522.807739 
	C315.614014,523.177246 318.961792,522.485229 322.096313,520.690918 
	C322.045685,519.262329 319.628265,519.327759 320.474457,516.876770 
	C320.719971,516.115723 322.850952,517.511230 323.313721,515.924072 
	C321.693756,514.160095 322.788696,511.110840 320.079132,509.912964 
	C318.189362,512.023438 315.635712,513.756409 315.752533,517.757690 
	C313.100647,515.838745 311.363525,513.984253 308.611359,513.417969 
	C306.156769,512.913025 305.759247,510.871521 307.835968,508.937103 
	C308.590057,508.234680 310.066925,507.875488 309.190582,506.110016 
	C306.317261,507.834503 304.724243,510.489807 303.407867,513.314941 
	C300.440369,519.683533 302.656403,525.761414 308.949615,528.688538 
	C317.087524,532.473694 324.617645,530.633057 331.447418,525.660461 
	C336.489655,521.989380 337.365692,515.410034 334.115967,510.473907 
	C330.822876,511.135345 330.283020,514.074341 328.858887,516.562561 
	C330.479980,516.384827 331.954742,515.155701 333.157410,516.952637 
	C333.583954,518.311707 332.703918,519.341187 331.729919,519.782288 
	C326.315216,522.234619 320.980896,525.007568 315.093414,526.136963 
	C310.660004,526.987427 307.360474,524.669861 304.901489,521.242310 
	C303.443207,519.209534 303.582214,517.247375 306.166199,516.135864 
	C307.821930,516.901978 307.727753,518.399536 308.175140,519.594604 
	C308.734589,521.089172 309.741089,522.111084 312.036926,522.807739 
M186.229874,514.434753 
	C185.533691,512.434509 186.166916,510.791504 188.306000,510.994659 
	C190.914001,511.242371 192.810547,509.729126 194.686081,508.735382 
	C196.742996,507.645538 197.766953,508.007812 199.506897,509.093170 
	C205.734802,512.977966 207.830338,511.793365 208.187744,504.573914 
	C208.284134,502.627075 209.232178,500.426514 206.501312,499.541077 
	C203.843674,498.679413 200.034668,496.778687 198.540512,498.961395 
	C195.456253,503.467010 191.377167,502.895996 187.176666,503.246338 
	C185.553223,503.381744 183.918594,503.980988 182.396652,504.623688 
	C177.810638,506.560333 175.873978,510.695801 174.522247,515.024597 
	C173.629547,517.883423 175.803818,519.707397 177.943481,521.075378 
	C179.227356,521.896240 185.566971,517.279297 186.229874,514.434753 
M204.080353,611.082825 
	C204.587265,613.091553 204.185547,615.030029 203.659622,616.969421 
	C203.075348,619.123901 203.702499,620.749023 206.204025,622.261414 
	C205.282028,614.873657 206.833694,608.237183 207.499237,601.549011 
	C201.246994,600.776855 199.320541,597.475220 201.670639,591.641968 
	C202.343826,589.970947 203.330048,588.385681 204.393387,586.921326 
	C206.112473,584.554077 206.071472,582.712769 203.307800,581.249817 
	C202.048462,580.583130 200.864624,579.773743 199.480392,578.927490 
	C198.863220,579.773254 198.206924,580.519104 197.720917,581.363098 
	C194.078369,587.689209 193.601242,594.574524 194.295502,601.628662 
	C194.795273,606.706421 200.150436,606.461060 202.785751,609.210999 
	C203.129013,609.569214 203.431610,609.966431 204.080353,611.082825 
M279.779236,521.257751 
	C276.596161,524.398438 273.775940,528.077881 270.131042,530.532837 
	C266.248413,533.147888 267.064392,538.074219 263.711304,540.864380 
	C261.957642,542.323608 264.481110,546.998230 267.031799,547.541870 
	C267.112396,545.427490 264.865479,543.450806 266.375641,541.336365 
	C269.847717,536.474915 272.803589,531.117249 277.494995,527.313293 
	C281.079376,524.406982 285.278137,523.816345 289.555389,526.339661 
	C291.120789,527.263184 292.774841,528.061829 294.452972,528.763062 
	C297.424744,530.004822 299.901978,531.412964 297.510529,534.744019 
	C301.786438,537.447815 304.898621,534.917297 308.582397,533.606934 
	C305.754089,530.911194 303.359680,526.673767 300.710938,526.508362 
	C295.058838,526.155396 291.312592,522.729736 286.783264,520.595154 
	C284.523041,519.529907 282.423737,518.931824 279.779236,521.257751 
M293.015289,556.235657 
	C295.081177,552.447083 295.285339,546.396179 302.225616,548.904236 
	C303.234772,544.002319 303.234772,544.002319 300.892365,541.134766 
	C299.170837,541.302917 299.611176,543.915710 297.748749,543.924561 
	C292.408722,539.691406 288.973846,539.723633 284.162872,544.128174 
	C283.211548,544.999084 282.567444,546.570740 280.961853,545.916504 
	C278.554535,544.935608 280.972107,543.021851 280.274719,541.360107 
	C276.724213,542.513672 272.567902,542.175842 270.041809,545.885315 
	C271.717621,547.530396 273.278046,546.753723 274.694550,546.877563 
	C281.687561,547.488892 289.540619,546.684692 290.546417,556.855286 
	C290.601959,557.417053 291.161987,558.237305 291.654724,558.387451 
	C292.943726,558.780151 292.654053,557.538269 293.015289,556.235657 
M270.088776,520.882629 
	C267.845703,515.966309 267.826172,509.928986 261.632812,505.307983 
	C262.004303,515.448853 261.715881,524.460693 263.613403,534.198853 
	C265.806793,531.487549 267.545563,529.370605 269.247375,527.224304 
	C270.598785,525.519897 272.038635,523.808838 270.088776,520.882629 
M343.549927,568.187256 
	C344.456238,567.900269 345.362518,567.613220 347.163666,567.042847 
	C343.571777,565.592224 342.491882,562.330872 339.201660,560.323059 
	C336.798828,564.868347 335.172729,569.128174 335.535858,574.457153 
	C339.218323,573.081970 340.179932,569.698853 343.549927,568.187256 
M279.269653,422.221863 
	C280.441284,422.353210 281.696381,423.480133 283.008575,421.692780 
	C278.432800,420.185028 275.987732,415.873108 271.849945,413.667389 
	C270.272064,416.584839 269.235199,419.454865 271.375153,421.862122 
	C273.365784,424.101471 276.131836,423.642822 279.269653,422.221863 
M202.565903,533.960632 
	C202.592453,534.409424 202.614655,534.858765 202.666153,535.304688 
	C202.667740,535.318420 203.012787,535.358643 203.131561,535.282837 
	C205.383804,533.845154 205.311096,529.980164 208.451004,529.659485 
	C210.153610,530.560120 208.381195,531.909729 209.266464,532.768677 
	C214.700699,529.576172 214.995575,528.359985 211.503647,523.591003 
	C206.818634,525.304504 205.504608,529.991028 202.565903,533.960632 
M298.895142,521.187683 
	C298.035187,518.189087 300.795715,515.043335 298.692322,511.591461 
	C298.077881,513.202087 299.295868,514.784180 297.774780,515.407349 
	C295.676758,516.107605 295.695587,512.520386 292.830597,514.104370 
	C295.729523,516.344421 296.272125,518.729126 290.583405,520.660095 
	C294.719849,520.733276 296.164368,524.461548 298.895142,521.187683 
M256.605316,503.255219 
	C255.391602,500.901825 254.383270,498.409698 252.911118,496.230927 
	C251.154022,493.630493 248.611649,492.709656 244.573990,493.755280 
	C249.393051,497.120636 252.737579,500.501465 255.400574,504.613373 
	C256.578888,506.432831 256.706268,504.863281 256.605316,503.255219 
M291.275574,506.460297 
	C293.988434,507.200806 296.701263,507.941315 300.098572,508.868652 
	C297.057709,503.581970 293.669769,501.685822 287.426666,501.423096 
	C289.017456,502.871033 290.222137,504.217926 291.275574,506.460297 
M360.826080,509.144775 
	C361.996979,510.524078 362.814056,509.557709 363.604370,508.697266 
	C365.663513,506.455414 367.700226,504.192993 370.811310,500.764740 
	C367.423615,502.371735 365.754089,500.779907 363.925720,500.212494 
	C362.722504,503.236877 361.652191,505.927124 360.826080,509.144775 
M286.144226,530.575623 
	C287.282349,527.656982 284.928802,528.276550 283.616150,528.274353 
	C278.650177,528.265930 276.884735,532.487183 274.108368,535.393066 
	C277.649445,533.081238 281.419128,531.511230 286.144226,530.575623 
M281.457428,534.879089 
	C279.542053,535.633423 277.399872,536.064087 276.044983,538.635864 
	C280.453125,538.423645 284.047791,537.237183 287.814758,535.941406 
	C286.043610,533.588379 284.085144,534.148621 281.457428,534.879089 
M283.241852,511.905884 
	C286.635132,515.544189 287.907257,515.316711 291.119629,510.384186 
	C288.311035,509.872559 285.436249,507.787262 283.241852,511.905884 
M204.041687,433.442657 
	C201.333817,436.119690 203.645905,437.088501 205.705963,437.636414 
	C207.515274,438.117676 209.496582,437.952332 212.524307,438.143402 
	C209.331360,436.152893 207.513687,434.017914 204.041687,433.442657 
M183.571838,523.572510 
	C184.295578,525.055725 185.019333,526.539001 185.743088,528.022217 
	C186.069183,525.565552 188.412918,523.625549 187.440079,521.072266 
	C185.200241,520.188843 184.124466,521.124023 183.571838,523.572510 
M265.560425,586.132324 
	C264.362183,587.963074 263.163940,589.793823 261.965698,591.624573 
	C265.702667,589.636963 268.541107,587.110535 268.423370,581.921448 
	C267.364380,583.508728 266.661102,584.562927 265.560425,586.132324 
z"/>
<path fill="#000000" opacity="1.000000" stroke="none" 
	d="
M386.979889,466.084717 
	C385.360046,465.912659 383.913605,466.763885 382.968964,465.285675 
	C387.920380,459.406982 398.599091,459.721466 402.320374,466.130310 
	C404.554840,469.978485 406.418915,471.493317 409.394257,467.081726 
	C411.132935,464.503754 413.342255,464.858124 415.467590,466.214233 
	C418.848267,468.371307 420.229828,471.743896 420.057983,475.624268 
	C419.777313,481.961853 409.923004,491.619965 403.674835,491.953339 
	C401.973969,492.044067 400.349152,491.606659 400.218750,489.899384 
	C399.912659,485.891052 397.631866,482.420227 397.662384,478.278656 
	C397.706146,472.346222 392.967468,467.084656 386.979889,466.084717 
M404.185577,472.678589 
	C401.637512,472.035583 400.608429,470.007751 399.512329,467.877167 
	C397.964264,464.868073 397.799164,464.903137 394.123047,465.073639 
	C398.372803,470.144623 400.737671,475.828461 402.461639,482.027740 
	C403.193970,484.661133 404.677429,489.408173 410.178833,487.331482 
	C407.306366,484.401001 410.185211,483.718475 411.753143,482.502808 
	C416.893341,478.517365 418.123016,475.145813 415.798157,471.112854 
	C414.278046,468.475952 412.500397,467.052307 410.401764,470.635620 
	C409.133728,472.800751 407.354187,473.584076 404.185577,472.678589 
z"/>
<path fill="#000000" opacity="1.000000" stroke="none" 
	d="
M356.078979,632.391602 
	C353.750458,633.327148 351.884705,633.541260 349.711090,631.466797 
	C352.487457,627.106628 357.332611,624.041443 358.403564,618.598816 
	C359.593964,612.549133 356.736664,608.457458 351.921082,605.398560 
	C356.370178,600.184875 361.737152,600.673767 364.379425,606.437683 
	C365.367401,608.592957 367.255737,609.006104 368.955444,609.925293 
	C376.132324,613.806702 376.395538,620.835938 369.722290,625.625305 
	C365.625549,628.565552 360.988831,630.282532 356.078979,632.391602 
M360.997803,612.242493 
	C362.380798,618.330078 361.013885,623.650269 355.119965,628.653015 
	C361.670044,627.501343 365.861450,624.941345 369.486938,621.564026 
	C371.944977,619.274231 371.363403,614.553833 368.560944,614.133667 
	C364.201202,613.479858 362.272888,611.090515 361.113007,607.284424 
	C360.746185,606.080750 359.812164,604.954590 357.888672,605.251465 
	C358.853119,607.385010 359.778290,609.431702 360.997803,612.242493 
z"/>
<path fill="#000000" opacity="1.000000" stroke="none" 
	d="
M316.034790,446.979187 
	C314.161835,448.902252 311.482880,449.673492 310.076782,447.467804 
	C308.210449,444.540039 309.780273,441.580994 312.433075,439.142487 
	C314.117065,440.152283 315.702698,441.103088 317.442841,442.146576 
	C316.972168,443.618439 316.528687,445.005341 316.044281,446.703613 
	C316.003387,447.015015 316.034790,446.979187 316.034790,446.979187 
z"/>
<path fill="#000000" opacity="1.000000" stroke="none" 
	d="
M205.102097,638.898193 
	C202.629105,636.488647 203.361282,634.431335 205.323776,632.698547 
	C206.815674,631.381287 208.437881,631.915222 209.757507,633.201843 
	C211.554535,634.953857 211.717789,637.060974 210.416855,639.070801 
	C208.891479,641.427368 207.067230,640.460510 205.102097,638.898193 
z"/>
<path fill="#000000" opacity="1.000000" stroke="none" 
	d="
M342.828766,459.445587 
	C342.682556,458.805756 342.579132,458.452484 342.663361,458.151733 
	C343.470734,455.269592 345.515900,454.121307 348.313934,454.625000 
	C349.727539,454.879486 350.066315,456.350494 349.274933,457.392700 
	C347.731628,459.424927 346.241180,462.156097 342.828766,459.445587 
z"/>
<path fill="#000000" opacity="1.000000" stroke="none" 
	d="
M296.862488,452.196960 
	C296.460785,452.451813 296.295319,452.529480 296.139465,452.513458 
	C293.600342,452.251801 291.120911,451.698730 290.284607,448.897827 
	C289.864746,447.491547 291.096832,446.665894 292.343781,446.830902 
	C295.249390,447.215454 297.023071,448.868408 296.862488,452.196960 
z"/>
<path fill="#000000" opacity="1.000000" stroke="none" 
	d="
M295.524658,442.847076 
	C299.859222,442.562103 299.861664,445.675690 300.949402,449.493439 
	C297.117126,448.086365 294.457642,447.224030 295.524658,442.847076 
z"/>
<path fill="#000000" opacity="1.000000" stroke="none" 
	d="
M315.991272,447.035583 
	C317.160980,446.037628 317.601868,444.021088 320.009857,444.253662 
	C321.037506,447.336426 318.811615,448.930267 317.353363,450.825500 
	C314.969635,450.301636 315.835419,448.800934 315.967712,447.287109 
	C316.034790,446.979187 316.003387,447.015015 315.991272,447.035583 
z"/>
<path fill="#000000" opacity="1.000000" stroke="none" 
	d="
M306.925995,446.332550 
	C303.836609,444.464386 304.623474,442.061676 305.769623,438.713135 
	C308.489746,441.291840 308.716248,443.568604 306.925995,446.332550 
z"/>
<path fill="#000000" opacity="1.000000" stroke="none" 
	d="
M304.191193,444.664581 
	C304.063232,447.240295 303.123383,448.078217 301.717316,445.930695 
	C300.557129,444.158691 300.166931,441.985992 301.419647,439.726959 
	C304.100006,440.265930 303.557800,442.640564 304.191193,444.664581 
z"/>
<path fill="#000000" opacity="1.000000" stroke="none" 
	d="
M208.962204,558.011597 
	C204.073654,556.459045 202.996277,554.209839 205.017029,550.258728 
	C206.369858,547.613586 207.752731,544.966125 209.368851,542.480042 
	C210.285492,541.069946 211.278381,539.259583 213.687927,539.904236 
	C214.537323,542.577698 211.280899,543.278076 211.160431,545.437317 
	C214.400711,548.811157 214.181824,552.006958 210.286697,556.486389 
	C209.873230,557.104614 209.546646,557.439209 208.962204,558.011597 
z"/>
<path fill="#000000" opacity="1.000000" stroke="none" 
	d="
M316.984009,583.049683 
	C319.502777,578.601074 316.144287,574.153748 317.274872,569.747314 
	C320.616577,570.159546 320.018127,572.797302 320.645264,574.681824 
	C321.997559,578.745239 320.785522,582.547180 319.483521,586.323303 
	C319.105927,587.418396 318.449463,588.540894 316.981476,588.258484 
	C315.672668,588.006775 315.820892,586.853333 315.742035,585.532776 
	C316.095795,584.541626 316.478546,583.892395 316.984009,583.049683 
z"/>
<path fill="#000000" opacity="1.000000" stroke="none" 
	d="
M256.988831,554.017822 
	C253.140717,554.127625 254.001877,550.753235 254.752548,549.618896 
	C259.210144,542.883179 252.795242,541.618103 249.377792,538.458191 
	C251.872360,535.761353 255.433197,532.738159 248.554779,530.813049 
	C250.994568,527.166504 253.514084,525.257385 257.428406,526.257568 
	C258.355133,528.715820 255.072937,529.062073 255.370941,531.137939 
	C256.516602,532.028015 257.270294,529.801697 259.030670,531.172729 
	C257.457397,538.148682 260.055908,545.829529 257.101685,553.587219 
	C257.035858,553.968384 257.003510,554.000488 256.988831,554.017822 
z"/>
<path fill="#000000" opacity="1.000000" stroke="none" 
	d="
M238.977325,563.415039 
	C240.982346,561.693420 242.202866,559.266418 245.432800,559.061462 
	C245.048813,562.823608 242.345703,564.146545 239.836197,565.400818 
	C239.039688,565.798889 238.637665,564.606812 238.977325,563.415039 
z"/>
<path fill="#000000" opacity="1.000000" stroke="none" 
	d="
M332.001831,500.001831 
	C331.900391,498.872528 331.797119,497.741364 331.674286,496.396027 
	C328.640228,496.313232 327.367981,497.914978 327.151062,500.536499 
	C326.999115,502.373108 326.270630,503.527008 324.345337,502.947937 
	C322.115173,502.277130 322.953369,500.676086 323.635193,499.326660 
	C325.424133,495.786285 327.471619,492.490417 332.252747,493.272705 
	C334.244232,493.598541 336.597656,494.174408 336.771973,496.516083 
	C336.948181,498.882965 334.983368,499.850830 332.373169,500.001160 
	C331.996338,499.996338 332.000000,500.000000 332.001831,500.001831 
z"/>
<path fill="#000000" opacity="1.000000" stroke="none" 
	d="
M365.691467,520.525330 
	C364.996948,521.903809 364.916962,523.541870 362.664795,522.834839 
	C362.307373,518.743652 364.129028,516.334229 368.430023,515.157776 
	C368.933990,517.823242 366.553650,518.616211 365.691467,520.525330 
z"/>
</svg>